<svg xmlns="http://www.w3.org/2000/svg" viewBox="0 0 19 21.87"><defs><style>.cls-1{fill:#9bd4b9;}</style></defs><g id="Layer_2" data-name="Layer 2"><g id="도자기"><path class="cls-1" d="M8.78,4.35a8.66,8.66,0,0,0,1,4.89A8.25,8.25,0,0,0,12,4.89a8.69,8.69,0,0,0-1-4.89A8.31,8.31,0,0,0,8.78,4.35Z"/><path class="cls-1" d="M3.89,8.32A7.08,7.08,0,0,0,8.27,9.86,8.39,8.39,0,0,0,5.94,5.54,7.08,7.08,0,0,0,1.56,4,8.31,8.31,0,0,0,3.89,8.32Z"/><path class="cls-1" d="M8,11.55a6.91,6.91,0,0,0-4.61,0A7.75,7.75,0,0,0,0,14.94a6.91,6.91,0,0,0,4.61,0A7.81,7.81,0,0,0,8,11.55Z"/><path class="cls-1" d="M8,21.87a8.25,8.25,0,0,0,2.27-4.35,8.69,8.69,0,0,0-1-4.89A8.31,8.31,0,0,0,7,17,8.66,8.66,0,0,0,8,21.87Z"/><path class="cls-1" d="M15.12,13.55A7.12,7.12,0,0,0,10.73,12a8.39,8.39,0,0,0,2.33,4.32,7.12,7.12,0,0,0,4.39,1.54A8.39,8.39,0,0,0,15.12,13.55Z"/><path class="cls-1" d="M19,6.93a6.88,6.88,0,0,0-4.6,0A7.75,7.75,0,0,0,11,10.32a6.88,6.88,0,0,0,4.6,0A7.75,7.75,0,0,0,19,6.93Z"/></g></g></svg>