<svg width="28" height="28" viewBox="0 0 28 28" fill="none" xmlns="http://www.w3.org/2000/svg">
<path d="M7.4375 2.625C6.16115 2.625 4.93707 3.13203 4.03455 4.03455C3.13203 4.93707 2.625 6.16115 2.625 7.4375V20.5625C2.625 21.8389 3.13203 23.0629 4.03455 23.9655C4.93707 24.868 6.16115 25.375 7.4375 25.375H17.9375C18.2856 25.375 18.6194 25.2367 18.8656 24.9906C19.1117 24.7444 19.25 24.4106 19.25 24.0625C19.25 23.7144 19.1117 23.3806 18.8656 23.1344C18.6194 22.8883 18.2856 22.75 17.9375 22.75H7.4375C6.23 22.75 5.25 21.77 5.25 20.5625V7.4375C5.25 6.23 6.23 5.25 7.4375 5.25H17.9375C18.2856 5.25 18.6194 5.11172 18.8656 4.86558C19.1117 4.61944 19.25 4.2856 19.25 3.9375C19.25 3.5894 19.1117 3.25556 18.8656 3.00942C18.6194 2.76328 18.2856 2.625 17.9375 2.625H7.4375ZM21.0525 8.26C20.9323 8.13105 20.7874 8.02762 20.6264 7.95588C20.4654 7.88415 20.2916 7.84557 20.1154 7.84247C19.9392 7.83936 19.7641 7.87177 19.6007 7.93779C19.4373 8.0038 19.2888 8.10205 19.1642 8.22668C19.0395 8.35132 18.9413 8.49977 18.8753 8.6632C18.8093 8.82663 18.7769 9.00168 18.78 9.17791C18.7831 9.35414 18.8216 9.52794 18.8934 9.68894C18.9651 9.84994 19.0685 9.99484 19.1975 10.115L21.77 12.6875H11.8125C11.4644 12.6875 11.1306 12.8258 10.8844 13.0719C10.6383 13.3181 10.5 13.6519 10.5 14C10.5 14.3481 10.6383 14.6819 10.8844 14.9281C11.1306 15.1742 11.4644 15.3125 11.8125 15.3125H21.77L19.1975 17.885C19.0685 18.0052 18.9651 18.1501 18.8934 18.3111C18.8216 18.4721 18.7831 18.6459 18.78 18.8221C18.7769 18.9983 18.8093 19.1734 18.8753 19.3368C18.9413 19.5002 19.0395 19.6487 19.1642 19.7733C19.2888 19.8979 19.4373 19.9962 19.6007 20.0622C19.7641 20.1282 19.9392 20.1606 20.1154 20.1575C20.2916 20.1544 20.4654 20.1159 20.6264 20.0441C20.7874 19.9724 20.9323 19.869 21.0525 19.74L25.865 14.9275C26.1108 14.6814 26.2488 14.3478 26.2488 14C26.2488 13.6522 26.1108 13.3186 25.865 13.0725L21.0525 8.26Z" fill="#9BD4B9"/>
</svg>
