<svg width="221" height="59" viewBox="0 0 221 59" fill="none" xmlns="http://www.w3.org/2000/svg">
<g filter="url(#filter0_d_7954_36)">
<path d="M56.6621 36.1955C56.5214 36.0666 56.3948 36.0409 56.2963 36.1955C55.8274 36.6701 55.3091 37.1016 54.7487 37.484C54.3984 37.7565 53.9673 37.927 53.5105 37.9736C52.8211 37.9736 52.6242 37.1619 52.9337 35.5512L55.9305 19.3803C55.9305 19.303 55.9305 19.2386 55.7054 19.1741C55.4803 19.1097 55.3818 19.1741 55.3114 19.1741C54.8853 19.8348 54.3379 20.4233 53.6934 20.9136C53.2542 20.5241 52.7322 20.2215 52.1599 20.0246C51.4892 19.7753 50.7732 19.6442 50.0494 19.638C48.4144 19.6979 46.8364 20.205 45.5191 21.094C43.8418 22.18 42.3444 23.482 41.0731 24.9596C39.6895 26.5464 38.5137 28.2762 37.5698 30.1137C36.6617 31.8047 36.0583 33.6192 35.783 35.4868C35.4329 36.8464 35.6381 38.2763 36.3598 39.507C36.6733 39.9206 37.0953 40.2554 37.587 40.4806C38.0787 40.7057 38.6243 40.814 39.1737 40.7955C40.7692 40.7287 42.2945 40.1754 43.5071 39.2235C45.2071 37.9627 46.6381 36.425 47.728 34.6879C48.2533 33.8557 48.7232 32.9951 49.1349 32.1109L48.4877 35.4868C48.1758 36.7676 48.2389 38.1011 48.6706 39.3523C48.8602 39.7447 49.1794 40.0726 49.5832 40.2899C49.9871 40.5072 50.4553 40.6029 50.9218 40.5636C51.9664 40.5263 52.9631 40.1521 53.7357 39.507C54.8611 38.6339 55.8715 37.6436 56.7465 36.5563C56.8169 36.4532 56.7887 36.3372 56.6621 36.1955ZM47.2215 33.5282C46.6032 34.4691 45.8296 35.3167 44.9282 36.0409C44.2621 36.6347 43.3806 36.9833 42.4519 37.0201C42.0477 37.0033 41.6597 36.8695 41.3437 36.6379C41.0277 36.4064 40.7999 36.0891 40.6932 35.7316C40.2488 34.2776 40.2101 32.7446 40.5807 31.2733C40.8356 29.6351 41.3573 28.0411 42.1283 26.5445C42.7259 25.3342 43.5658 24.2372 44.6046 23.3103C45.3446 22.6029 46.3504 22.1792 47.4185 22.1248C47.8947 22.1103 48.365 22.2248 48.7705 22.454C49.176 22.6832 49.4985 23.0169 49.6977 23.4134C50.2025 24.5719 50.3105 25.8438 50.0072 27.0599C49.8022 28.1788 49.4721 29.2755 49.0224 30.3327C48.5342 31.4478 47.9311 32.5178 47.2215 33.5282Z" fill="white"/>
</g>
<g filter="url(#filter1_d_7954_36)">
<path d="M92.1031 36.1436C92.0781 36.1142 92.0461 36.0903 92.0095 36.074C91.9729 36.0576 91.9328 36.049 91.892 36.049C91.8513 36.049 91.8111 36.0576 91.7746 36.074C91.738 36.0903 91.706 36.1142 91.681 36.1436C91.1323 36.659 90.6399 37.0842 90.274 37.4321C89.9477 37.7341 89.5127 37.9173 89.05 37.9475C88.8935 37.9425 88.7427 37.8926 88.6189 37.8047C88.4952 37.7168 88.4048 37.5955 88.3606 37.4579C88.1855 36.8236 88.1855 36.1594 88.3606 35.5251L90.0067 26.3895C90.4845 24.7168 90.4209 22.953 89.8238 21.3127C89.5924 20.8101 89.1989 20.3842 88.6961 20.0918C88.1933 19.7994 87.6051 19.6544 87.0099 19.6763C86.0799 19.7256 85.1728 19.9597 84.3515 20.3625C83.5303 20.7652 82.8147 21.3269 82.2544 22.0085C80.5418 23.9233 79.2215 26.106 78.3572 28.4511L78.7371 26.3122C79.2029 24.6282 79.1048 22.8548 78.4557 21.2226C78.2049 20.737 77.8054 20.3287 77.3058 20.0473C76.8062 19.7659 76.2281 19.6236 75.6418 19.6377C74.6848 19.6864 73.7512 19.9276 72.9074 20.344C72.0637 20.7605 71.3304 21.342 70.7597 22.0472C69.0524 23.9918 67.7374 26.1997 66.8765 28.5671L67.6362 24.2506C67.9257 23.175 67.8867 22.0473 67.5237 20.9906C67.347 20.6102 67.0402 20.2927 66.6494 20.0859C66.2586 19.8791 65.805 19.7941 65.357 19.8438C64.2946 19.8735 63.268 20.2019 62.4164 20.7845C61.0721 21.6519 59.8771 22.6986 58.8709 23.8898C58.8145 23.9486 58.7834 24.0241 58.7834 24.1024C58.7834 24.1806 58.8145 24.2562 58.8709 24.315C59.0116 24.4696 59.1242 24.4825 59.2367 24.315C59.7501 23.747 60.3305 23.2328 60.9673 22.7817C61.3181 22.4899 61.762 22.3092 62.2335 22.2663C63.0496 22.2663 63.3169 23.1038 63.0074 24.8433L60.8829 36.2982C60.7422 37.1873 60.5874 38.012 60.3904 38.7722C60.2698 39.1964 60.1759 39.6266 60.1091 40.0607C60.1091 40.1638 60.2357 40.254 60.4749 40.3442C60.9321 40.4615 61.4082 40.5051 61.8818 40.473C63.6405 40.473 64.6113 40.138 64.7801 39.4422C65.2556 36.3529 66.0133 33.3056 67.0453 30.3324C67.6756 28.2903 68.6233 26.3419 69.8592 24.5469C70.8722 23.2584 71.8289 22.5497 72.6731 22.5497C73.0091 22.564 73.3302 22.6808 73.5852 22.8816C73.8402 23.0825 74.0144 23.3558 74.0801 23.6579C74.3816 24.849 74.3816 26.0875 74.0801 27.2786L72.3636 36.2982C72.246 37.1301 72.0817 37.9558 71.8712 38.7722C71.7505 39.1964 71.6566 39.6266 71.5898 40.0607C71.5898 40.1638 71.7164 40.254 71.9556 40.3442C72.4128 40.4615 72.8889 40.5051 73.3625 40.473C75.1915 40.473 76.1764 40.138 76.2608 39.4422C76.7288 36.2512 77.5009 33.1038 78.5682 30.036C79.2321 28.0407 80.2084 26.144 81.4665 24.4052C82.5077 23.1553 83.4222 22.6013 84.196 22.6013C84.9698 22.6013 85.3216 23.0007 85.603 23.7867C85.8053 24.998 85.772 26.2325 85.5045 27.4332L83.9428 35.4865C83.6353 36.7205 83.6353 38.002 83.9428 39.236C84.0925 39.6537 84.3962 40.0106 84.8017 40.2457C85.2073 40.4808 85.6895 40.5794 86.1658 40.5246C87.2387 40.5011 88.267 40.1262 89.0641 39.468C90.1811 38.5909 91.1864 37.601 92.0609 36.5173C92.1194 36.4721 92.1564 36.4079 92.1643 36.3382C92.1722 36.2685 92.1502 36.1988 92.1031 36.1436Z" fill="white"/>
</g>
<g filter="url(#filter2_d_7954_36)">
<path d="M147.101 20.6561C146.871 20.3674 146.568 20.1352 146.217 19.9801C145.866 19.825 145.478 19.7518 145.089 19.767C144.293 19.7312 143.513 19.9861 142.922 20.4757C142.644 20.7216 142.426 21.0188 142.283 21.3475C142.14 21.6763 142.075 22.0291 142.092 22.3827C142.06 22.9914 142.221 23.5955 142.556 24.1222L143.513 25.5138C143.871 26.0791 144.114 26.699 144.231 27.3435C144.378 28.3436 144.301 29.3607 144.005 30.3328C143.684 31.4038 143.251 32.4437 142.711 33.4382C142.022 34.7911 141.192 36.2858 140.207 37.9351C139.714 38.7469 139.208 39.5586 138.701 40.3575C138.857 37.8555 138.857 35.3474 138.701 32.8455C138.536 30.5773 138.154 28.3268 137.562 26.1194C137.164 24.4808 136.444 22.9221 135.437 21.5194C135.128 21.0356 134.692 20.6301 134.169 20.3399C133.646 20.0496 133.051 19.8837 132.44 19.8572C131.251 19.9343 130.117 20.3436 129.19 21.0297C127.961 21.8213 126.988 22.9034 126.376 24.1608C126.376 24.3026 126.376 24.3928 126.616 24.4443C126.651 24.4596 126.689 24.4684 126.727 24.4701C126.766 24.4719 126.805 24.4667 126.842 24.4547C126.878 24.4428 126.912 24.4243 126.941 24.4004C126.97 24.3765 126.993 24.3476 127.009 24.3155C127.273 23.8867 127.621 23.5066 128.037 23.1944C128.394 22.9039 128.853 22.7395 129.331 22.7306C131.047 22.7306 132.398 24.8309 133.355 29.0186C134.407 34.6857 134.812 40.4376 134.565 46.1816C134.326 46.4651 134.1 46.7743 133.875 47.0449C133.108 48.0201 132.204 48.8994 131.188 49.6606C130.904 49.8991 130.567 50.078 130.2 50.1848C129.834 50.2917 129.446 50.3238 129.064 50.2791C128.428 50.132 127.821 49.8974 127.263 49.5833C126.671 49.2509 125.987 49.081 125.293 49.0937C124.555 49.0473 123.828 49.2687 123.267 49.71C122.706 50.1512 122.357 50.7769 122.296 51.4517C122.162 51.8799 122.156 52.3335 122.28 52.7644C122.404 53.1953 122.653 53.5876 123 53.8998C123.669 54.3321 124.474 54.5536 125.293 54.5312C126.582 54.4422 127.81 53.9924 128.81 53.2427C130.322 52.2082 131.708 51.029 132.947 49.725C134.46 48.1224 135.869 46.4402 137.168 44.6869C138.575 42.8229 139.916 40.8815 141.192 38.8628C142.467 36.8442 143.635 34.8598 144.695 32.9099C145.586 31.1501 146.361 29.343 147.016 27.4981C147.515 26.1641 147.799 24.7709 147.86 23.362C147.92 22.4097 147.654 21.4641 147.101 20.6561Z" fill="white"/>
</g>
<g filter="url(#filter3_d_7954_36)">
<path d="M170.977 36.1955C170.836 36.0666 170.71 36.0408 170.611 36.1955C170.142 36.6701 169.624 37.1016 169.063 37.484C168.713 37.7565 168.282 37.927 167.825 37.9736C167.136 37.9736 166.939 37.1619 167.248 35.5512L170.245 19.3803C170.245 19.303 170.245 19.2386 170.02 19.1741C169.795 19.1097 169.697 19.1741 169.626 19.1741C169.196 19.832 168.649 20.4198 168.008 20.9136C167.574 20.5056 167.052 20.1852 166.475 19.973C165.804 19.7249 165.088 19.5938 164.364 19.5865C162.729 19.6463 161.151 20.1535 159.834 21.0425C158.157 22.1285 156.659 23.4304 155.388 24.908C154.004 26.4948 152.829 28.2247 151.885 30.0621C150.971 31.7693 150.367 33.6016 150.098 35.4868C149.727 36.8679 149.938 38.3263 150.689 39.5714C151 39.9868 151.422 40.3229 151.914 40.5482C152.406 40.7736 152.953 40.8809 153.503 40.8599C155.098 40.7931 156.623 40.2398 157.836 39.2879C159.536 38.0271 160.967 36.4894 162.057 34.7523C162.582 33.9201 163.052 33.0595 163.464 32.1753L162.803 35.4868C162.491 36.7676 162.554 38.1011 162.985 39.3523C163.175 39.7447 163.494 40.0726 163.898 40.2899C164.302 40.5072 164.77 40.6029 165.237 40.5636C166.282 40.5308 167.281 40.156 168.05 39.507C169.184 38.638 170.2 37.6473 171.075 36.5563C171.132 36.4532 171.104 36.3372 170.977 36.1955ZM161.578 33.5282C160.96 34.4691 160.187 35.3167 159.285 36.0409C158.618 36.6327 157.737 36.9809 156.809 37.0201C156.405 37.0033 156.017 36.8695 155.701 36.6379C155.385 36.4064 155.157 36.0891 155.05 35.7316C154.601 34.2694 154.562 32.7271 154.938 31.2476C155.204 29.61 155.73 28.0168 156.499 26.5187C157.097 25.3084 157.937 24.2114 158.976 23.2845C159.716 22.5771 160.721 22.1534 161.79 22.0991C162.264 22.0836 162.733 22.1979 163.136 22.4274C163.54 22.6569 163.859 22.9911 164.055 23.3876C164.595 24.5648 164.713 25.8687 164.392 27.1114C164.17 28.1919 163.831 29.2494 163.379 30.2683C162.89 31.4032 162.287 32.4945 161.578 33.5282Z" fill="white"/>
</g>
<g filter="url(#filter4_d_7954_36)">
<path d="M195.514 36.1444C195.373 36.0155 195.247 36.0155 195.148 36.1444C194.6 36.6598 194.093 37.085 193.657 37.4329C193.318 37.7338 192.875 37.9163 192.405 37.9483C192.248 37.9433 192.097 37.8933 191.974 37.8055C191.85 37.7176 191.759 37.5962 191.715 37.4587C191.54 36.8244 191.54 36.1602 191.715 35.5259L193.418 26.3903C193.876 24.6857 193.788 22.8963 193.164 21.2362C192.896 20.7128 192.46 20.2762 191.915 19.984C191.37 19.6919 190.741 19.5579 190.111 19.5998C189.14 19.6452 188.191 19.8843 187.33 20.3005C186.47 20.7167 185.719 21.2999 185.131 22.0093C183.296 24.0374 181.893 26.3626 180.994 28.8643V28.9673L181.838 24.2127C182.128 23.1371 182.089 22.0094 181.726 20.9527C181.547 20.5737 181.24 20.2574 180.85 20.0508C180.46 19.8442 180.007 19.7584 179.559 19.806C178.497 19.8357 177.47 20.1641 176.619 20.7466C175.331 21.6376 174.194 22.6969 173.242 23.8906C173.186 23.9494 173.155 24.0249 173.155 24.1032C173.155 24.1814 173.186 24.257 173.242 24.3158C173.383 24.4704 173.495 24.4833 173.594 24.3158C174.114 23.7539 174.694 23.2403 175.324 22.7824C175.678 22.4952 176.121 22.3151 176.591 22.267C177.421 22.267 177.688 23.1046 177.378 24.8441L175.254 36.299C175.113 37.1881 174.959 38.0127 174.762 38.773C174.641 39.1972 174.547 39.6274 174.48 40.0615C174.48 40.1646 174.593 40.2548 174.846 40.345C175.303 40.4623 175.779 40.5059 176.253 40.4738C178.012 40.4738 178.968 40.1388 179.151 39.443C179.638 36.3004 180.415 33.2011 181.473 30.1785C182.146 28.1384 183.157 26.2047 184.469 24.4446C185.539 23.1561 186.552 22.499 187.523 22.499C189.07 22.499 189.539 24.1096 188.93 27.3309L187.396 35.4872C187.068 36.7191 187.068 38.005 187.396 39.2368C187.545 39.6497 187.844 40.0031 188.244 40.2377C188.643 40.4723 189.119 40.5739 189.591 40.5253C190.682 40.5073 191.73 40.1325 192.545 39.4688C193.661 38.5943 194.662 37.6041 195.528 36.518C195.573 36.4638 195.596 36.397 195.594 36.3289C195.591 36.2609 195.563 36.1957 195.514 36.1444Z" fill="white"/>
</g>
<g filter="url(#filter5_d_7954_36)">
<path d="M216.689 19.7671C215.545 19.7959 214.414 19.9961 213.34 20.3598C212.736 20.5407 212.148 20.7648 211.581 21.0298C210.559 20.316 209.292 19.9597 208.008 20.0248C206.571 20.0215 205.157 20.3541 203.9 20.9912C202.579 21.6581 201.442 22.5939 200.579 23.7266C199.715 24.8593 199.147 26.1585 198.919 27.524C198.669 28.758 198.702 30.0263 199.017 31.2478C199.288 32.3279 199.917 33.3047 200.818 34.0439C201.305 34.4291 201.876 34.7146 202.493 34.8814C201.831 35.3968 201.226 35.8993 200.692 36.3761C199.901 37.0434 199.352 37.9153 199.116 38.8758C199.023 39.2068 199.01 39.5525 199.078 39.8886C199.146 40.2247 199.293 40.5431 199.51 40.8215C199.903 41.2967 200.379 41.7101 200.917 42.0456C199.497 42.8226 198.134 43.6835 196.837 44.6226C195.375 45.6147 194.371 47.0717 194.023 48.7072C193.832 49.7187 194.052 50.7592 194.642 51.6322C195.319 52.5917 196.301 53.3381 197.456 53.7711C198.938 54.3362 200.536 54.6042 202.141 54.5571C203.945 54.5688 205.736 54.2852 207.431 53.7196C208.975 53.2049 210.377 52.3869 211.539 51.3229C212.629 50.322 213.335 49.0244 213.551 47.6249C213.744 46.5651 213.577 45.4766 213.073 44.5067C212.633 43.6557 211.982 42.9101 211.173 42.3291C210.333 41.6841 209.423 41.1185 208.458 40.6411C207.473 40.1772 206.545 39.7262 205.644 39.2753C204.877 38.9008 204.179 38.4181 203.576 37.845C203.324 37.5896 203.137 37.2858 203.03 36.9558C202.923 36.6258 202.898 36.278 202.957 35.938C202.997 35.5941 203.111 35.2611 203.295 34.9587C203.611 35.0004 203.931 35.0219 204.251 35.0232C205.624 35.0179 206.973 34.699 208.177 34.0954C209.55 33.4266 210.735 32.4762 211.641 31.3183C212.546 30.1605 213.147 28.8266 213.396 27.4209C213.694 26.2033 213.694 24.9405 213.396 23.7228C213.217 23.0439 212.892 22.4044 212.44 21.8416C212.709 21.8482 212.977 21.8741 213.242 21.9189C214.348 22.0856 215.395 22.492 216.295 23.1044C216.393 23.1688 216.506 23.1044 216.604 22.7178C216.721 22.3275 216.815 21.9318 216.886 21.5324C216.971 21.1075 217.009 20.6757 216.998 20.2438C216.956 19.9475 216.872 19.7671 216.689 19.7671ZM203.857 43.5403C204.763 43.9471 205.642 44.4032 206.488 44.9061C207.288 45.3649 207.989 45.9545 208.557 46.6456C209.108 47.3577 209.371 48.2232 209.302 49.0938C209.283 50.0337 208.922 50.9408 208.275 51.6708C207.825 52.1306 207.264 52.4869 206.635 52.7107C206.007 52.9346 205.33 53.0198 204.659 52.9593C203.522 52.9783 202.398 52.7299 201.395 52.2378C200.465 51.7679 199.699 51.0665 199.186 50.2148C198.652 49.2998 198.45 48.2527 198.609 47.2254C198.718 46.3483 199.025 45.5014 199.51 44.7386C199.969 44.0461 200.527 43.4133 201.17 42.8573L201.648 42.4837C202.38 42.8187 203.069 43.2181 203.857 43.5403ZM208.951 27.9234C208.862 29.4393 208.446 30.924 207.726 32.2915C207.093 33.3867 206.32 33.9408 205.644 33.9408C205.348 33.9157 205.063 33.8221 204.817 33.6689C204.571 33.5156 204.372 33.3077 204.237 33.0646C203.773 32.3253 203.485 31.504 203.393 30.6551C203.244 29.4779 203.244 28.2888 203.393 27.1116C203.502 25.6138 203.922 24.1488 204.631 22.7951C205.292 21.6354 206.038 21.0427 206.756 21.0427C207.114 21.0587 207.459 21.1764 207.741 21.3795C208.023 21.5827 208.23 21.8613 208.331 22.1766C208.713 23.0436 208.936 23.9621 208.993 24.8954C209.078 25.9039 209.063 26.9173 208.951 27.9234Z" fill="white"/>
</g>
<g filter="url(#filter6_d_7954_36)">
<path d="M127.347 4.5625C126.644 4.5625 125.828 4.5625 124.913 4.63981C123.999 4.71712 123.042 4.71712 122.099 4.71712C121.157 4.71712 120.172 4.71712 119.285 4.63981C118.399 4.5625 117.513 4.5625 116.823 4.5625C116.725 4.5625 116.668 4.66558 116.668 4.88463C116.668 5.10368 116.668 5.19387 116.823 5.19387C118.019 5.19387 118.765 5.45158 119.032 5.9541C119.305 6.93054 119.305 7.95414 119.032 8.93058L116.837 23.2331H105.497L106.707 15.8886C106.803 15.1057 106.982 14.3333 107.242 13.5821C107.41 13.1037 107.766 12.6995 108.241 12.4482C108.859 12.2124 109.528 12.1067 110.197 12.139C110.197 12.139 110.295 12.023 110.295 11.8169C110.295 11.6107 110.295 11.4947 110.197 11.4947C109.507 11.4947 108.677 11.4947 107.748 11.5849C106.82 11.6751 105.835 11.6622 104.822 11.6622C103.809 11.6622 102.909 11.6622 102.008 11.5849C101.108 11.5076 100.362 11.5076 99.6725 11.5076C99.6725 11.5076 99.5741 11.6236 99.5741 11.8297C99.5741 12.0359 99.5741 12.1519 99.6725 12.1519C100.883 12.1519 101.642 12.3838 101.952 12.8606C102.309 13.7992 102.344 14.8156 102.05 15.7726L98.1108 40.1514C98.0055 40.943 97.8025 41.721 97.5058 42.4707C97.4191 42.7001 97.2837 42.9116 97.1074 43.0929C96.9312 43.2742 96.7175 43.4218 96.4788 43.5273C95.8567 43.7306 95.1966 43.8182 94.5372 43.785C94.4387 43.785 94.3965 43.901 94.3965 44.1071C94.3965 44.3133 94.3965 44.4164 94.5372 44.4164C95.2266 44.4164 96.0285 44.4164 96.9149 44.4164C97.8013 44.4164 98.744 44.4164 99.7288 44.4164C100.714 44.4164 101.755 44.4164 102.669 44.4164C103.584 44.4164 104.4 44.4164 105.103 44.4164C105.202 44.4164 105.244 44.3133 105.244 44.1071C105.244 43.901 105.244 43.785 105.103 43.785C103.893 43.785 103.148 43.566 102.838 43.1021C102.529 42.1389 102.529 41.1146 102.838 40.1514L105.328 24.6892H116.556L115.149 33.1805C115.051 33.9707 114.857 34.7485 114.572 35.4998C114.496 35.7267 114.371 35.9371 114.204 36.1187C114.037 36.3002 113.832 36.4491 113.601 36.5564C112.968 36.7553 112.3 36.8428 111.632 36.8141C111.632 36.8141 111.533 36.9172 111.533 37.1234C111.533 37.3295 111.533 37.4455 111.632 37.4455C112.349 37.4455 113.179 37.4455 114.108 37.4455C115.036 37.4455 115.993 37.4455 117.006 37.4455C118.019 37.4455 118.99 37.4455 119.904 37.4455C120.819 37.4455 121.593 37.4455 122.198 37.4455C122.296 37.4455 122.338 37.3424 122.338 37.1234C122.338 36.9043 122.338 36.8141 122.198 36.8141C121.016 36.8141 120.27 36.5822 119.961 36.1312C119.596 35.1821 119.547 34.1551 119.82 33.1805L123.816 8.8275C123.949 8.05642 124.156 7.29756 124.435 6.5597C124.603 6.0976 124.961 5.71385 125.434 5.49023C126.041 5.26797 126.694 5.16694 127.347 5.19387C127.347 5.19387 127.432 5.09079 127.432 4.88463C127.432 4.67847 127.404 4.5625 127.347 4.5625Z" fill="#9BD4B9"/>
</g>
<g filter="url(#filter7_d_7954_36)">
<path d="M32.4907 13.195C31.6602 10.92 30.0583 8.94724 27.9181 7.56421C25.619 6.16234 22.8982 5.45493 20.1377 5.54123C19.1979 5.5382 18.2586 5.58121 17.3238 5.67009C16.3889 5.75772 15.4497 5.80073 14.5099 5.79894C13.5813 5.85048 12.5965 5.77317 11.696 5.72163C10.7956 5.67009 9.97953 5.64432 9.24792 5.64432C9.24792 5.64432 9.14943 5.7474 9.14943 5.96645C9.14943 6.18549 9.14943 6.27569 9.24792 6.27569H11.2036C11.8511 8.90967 12.3209 11.5777 12.6105 14.2645C12.6105 14.6081 12.6387 14.9818 12.6949 15.3855C12.3367 14.3112 11.6826 13.3394 10.7956 12.5637C9.63868 11.7248 8.20508 11.2705 6.72948 11.2751C7.04691 12.6436 7.80104 13.8948 8.89618 14.8701C10.0028 15.6843 11.3741 16.1376 12.7934 16.1586C12.8919 17.7564 12.9201 19.6119 12.7934 21.5318C12.4492 20.2861 11.7331 19.1528 10.7252 18.2589C9.56833 17.42 8.13473 16.9657 6.65913 16.9704C6.96078 18.3665 7.71602 19.6465 8.82584 20.6427C9.95241 21.4598 11.3424 21.9128 12.7794 21.9312C12.7794 23.4388 12.5965 24.985 12.3854 26.4797C12.0436 25.3585 11.3834 24.3403 10.472 23.529C9.31508 22.6901 7.88148 22.2358 6.40588 22.2404C6.70753 23.6365 7.46277 24.9166 8.57259 25.9127C9.64626 26.7098 10.9758 27.1625 12.3573 27.2012C11.7804 30.9122 10.6689 34.1979 8.657 35.6539C8.40375 35.8214 6.22298 37.0069 5.91345 37.1486L4.30953 37.9217H4.15476C4 37.9217 4 38.0634 4 38.2309C4 38.3985 4 38.5531 4.15476 38.5531C4.87231 38.5531 5.67427 38.5531 6.54658 38.5531C7.41889 38.5531 8.38968 38.5531 9.43082 38.5531C10.472 38.5531 11.485 38.5531 12.6246 38.7077C13.7642 38.8623 14.721 38.8623 15.4385 38.8623C17.4352 38.852 19.4048 38.4384 21.207 37.6511C23.1919 36.7585 24.9879 35.5499 26.5112 34.0819C28.2374 32.4864 29.6636 30.6404 30.732 28.6186C31.9104 26.3882 32.694 24.0004 33.0535 21.5446C33.598 18.7603 33.405 15.8969 32.4907 13.195ZM27.7212 22.7043C27.3311 25.5178 26.4722 28.2598 25.1746 30.8349C24.2009 32.8491 22.7093 34.6175 20.8271 35.9889C19.2376 37.1266 17.2729 37.7355 15.2556 37.7155L11.7382 37.6382C11.7685 37.4642 11.8108 37.292 11.8648 37.1228L12.0055 36.4013C12.2588 35.1127 12.5965 33.6954 12.9341 32.3682C13.103 31.7239 13.2577 31.0797 13.4266 30.3968C13.6376 29.3273 13.8205 28.2578 13.9612 27.1755C15.2636 27.0893 16.506 26.6396 17.5208 25.8869C18.625 24.8869 19.3793 23.6086 19.6875 22.2147C18.2078 22.2112 16.7702 22.6652 15.6073 23.5032C15.0159 24.0009 14.5377 24.6008 14.2004 25.2685C14.3129 24.1603 14.3833 23.0522 14.4255 21.9441C15.6904 21.8438 16.8923 21.3945 17.8725 20.6556C18.9768 19.6556 19.731 18.3772 20.0392 16.9833C18.5595 16.9798 17.1219 17.4338 15.9591 18.2718C15.3423 18.7937 14.8408 19.4192 14.4818 20.1144C14.4818 18.8259 14.4818 17.4471 14.4818 16.1329C15.7141 16.0249 16.8841 15.5856 17.8444 14.8701C18.9486 13.8701 19.7029 12.5917 20.0111 11.1978C18.5314 11.1943 17.0938 11.6483 15.9309 12.4864C15.2355 13.0885 14.6928 13.823 14.3411 14.6382C14.1722 11.7777 13.8486 9.00735 13.5673 6.40454C16.156 6.49474 19.0403 6.59782 19.7156 6.59782C21.4242 6.52246 23.1013 7.03751 24.4148 8.04096C25.6555 9.08931 26.5644 10.4247 27.0458 11.9065C27.6402 13.595 27.9718 15.3518 28.0307 17.125C28.1075 18.9895 28.004 20.8566 27.7212 22.7043Z" fill="white"/>
</g>
<defs>
<filter id="filter0_d_7954_36" x="31.6162" y="15.1455" width="29.168" height="29.6519" filterUnits="userSpaceOnUse" color-interpolation-filters="sRGB">
<feFlood flood-opacity="0" result="BackgroundImageFix"/>
<feColorMatrix in="SourceAlpha" type="matrix" values="0 0 0 0 0 0 0 0 0 0 0 0 0 0 0 0 0 0 127 0" result="hardAlpha"/>
<feOffset/>
<feGaussianBlur stdDeviation="2"/>
<feComposite in2="hardAlpha" operator="out"/>
<feColorMatrix type="matrix" values="0 0 0 0 0 0 0 0 0 0 0 0 0 0 0 0 0 0 0.25 0"/>
<feBlend mode="normal" in2="BackgroundImageFix" result="effect1_dropShadow_7954_36"/>
<feBlend mode="normal" in="SourceGraphic" in2="effect1_dropShadow_7954_36" result="shape"/>
</filter>
<filter id="filter1_d_7954_36" x="54.7834" y="15.6367" width="41.3823" height="28.9028" filterUnits="userSpaceOnUse" color-interpolation-filters="sRGB">
<feFlood flood-opacity="0" result="BackgroundImageFix"/>
<feColorMatrix in="SourceAlpha" type="matrix" values="0 0 0 0 0 0 0 0 0 0 0 0 0 0 0 0 0 0 127 0" result="hardAlpha"/>
<feOffset/>
<feGaussianBlur stdDeviation="2"/>
<feComposite in2="hardAlpha" operator="out"/>
<feColorMatrix type="matrix" values="0 0 0 0 0 0 0 0 0 0 0 0 0 0 0 0 0 0 0.25 0"/>
<feBlend mode="normal" in2="BackgroundImageFix" result="effect1_dropShadow_7954_36"/>
<feBlend mode="normal" in="SourceGraphic" in2="effect1_dropShadow_7954_36" result="shape"/>
</filter>
<filter id="filter2_d_7954_36" x="118.191" y="15.7637" width="33.6775" height="42.769" filterUnits="userSpaceOnUse" color-interpolation-filters="sRGB">
<feFlood flood-opacity="0" result="BackgroundImageFix"/>
<feColorMatrix in="SourceAlpha" type="matrix" values="0 0 0 0 0 0 0 0 0 0 0 0 0 0 0 0 0 0 127 0" result="hardAlpha"/>
<feOffset/>
<feGaussianBlur stdDeviation="2"/>
<feComposite in2="hardAlpha" operator="out"/>
<feColorMatrix type="matrix" values="0 0 0 0 0 0 0 0 0 0 0 0 0 0 0 0 0 0 0.25 0"/>
<feBlend mode="normal" in2="BackgroundImageFix" result="effect1_dropShadow_7954_36"/>
<feBlend mode="normal" in="SourceGraphic" in2="effect1_dropShadow_7954_36" result="shape"/>
</filter>
<filter id="filter3_d_7954_36" x="145.919" y="15.1455" width="29.1838" height="29.7168" filterUnits="userSpaceOnUse" color-interpolation-filters="sRGB">
<feFlood flood-opacity="0" result="BackgroundImageFix"/>
<feColorMatrix in="SourceAlpha" type="matrix" values="0 0 0 0 0 0 0 0 0 0 0 0 0 0 0 0 0 0 127 0" result="hardAlpha"/>
<feOffset/>
<feGaussianBlur stdDeviation="2"/>
<feComposite in2="hardAlpha" operator="out"/>
<feColorMatrix type="matrix" values="0 0 0 0 0 0 0 0 0 0 0 0 0 0 0 0 0 0 0.25 0"/>
<feBlend mode="normal" in2="BackgroundImageFix" result="effect1_dropShadow_7954_36"/>
<feBlend mode="normal" in="SourceGraphic" in2="effect1_dropShadow_7954_36" result="shape"/>
</filter>
<filter id="filter4_d_7954_36" x="169.155" y="15.5923" width="30.4392" height="28.9448" filterUnits="userSpaceOnUse" color-interpolation-filters="sRGB">
<feFlood flood-opacity="0" result="BackgroundImageFix"/>
<feColorMatrix in="SourceAlpha" type="matrix" values="0 0 0 0 0 0 0 0 0 0 0 0 0 0 0 0 0 0 127 0" result="hardAlpha"/>
<feOffset/>
<feGaussianBlur stdDeviation="2"/>
<feComposite in2="hardAlpha" operator="out"/>
<feColorMatrix type="matrix" values="0 0 0 0 0 0 0 0 0 0 0 0 0 0 0 0 0 0 0.25 0"/>
<feBlend mode="normal" in2="BackgroundImageFix" result="effect1_dropShadow_7954_36"/>
<feBlend mode="normal" in="SourceGraphic" in2="effect1_dropShadow_7954_36" result="shape"/>
</filter>
<filter id="filter5_d_7954_36" x="189.956" y="15.7671" width="31.0442" height="42.7954" filterUnits="userSpaceOnUse" color-interpolation-filters="sRGB">
<feFlood flood-opacity="0" result="BackgroundImageFix"/>
<feColorMatrix in="SourceAlpha" type="matrix" values="0 0 0 0 0 0 0 0 0 0 0 0 0 0 0 0 0 0 127 0" result="hardAlpha"/>
<feOffset/>
<feGaussianBlur stdDeviation="2"/>
<feComposite in2="hardAlpha" operator="out"/>
<feColorMatrix type="matrix" values="0 0 0 0 0 0 0 0 0 0 0 0 0 0 0 0 0 0 0.25 0"/>
<feBlend mode="normal" in2="BackgroundImageFix" result="effect1_dropShadow_7954_36"/>
<feBlend mode="normal" in="SourceGraphic" in2="effect1_dropShadow_7954_36" result="shape"/>
</filter>
<filter id="filter6_d_7954_36" x="90.3965" y="0.5625" width="41.0352" height="47.854" filterUnits="userSpaceOnUse" color-interpolation-filters="sRGB">
<feFlood flood-opacity="0" result="BackgroundImageFix"/>
<feColorMatrix in="SourceAlpha" type="matrix" values="0 0 0 0 0 0 0 0 0 0 0 0 0 0 0 0 0 0 127 0" result="hardAlpha"/>
<feOffset/>
<feGaussianBlur stdDeviation="2"/>
<feComposite in2="hardAlpha" operator="out"/>
<feColorMatrix type="matrix" values="0 0 0 0 0 0 0 0 0 0 0 0 0 0 0 0 0 0 0.25 0"/>
<feBlend mode="normal" in2="BackgroundImageFix" result="effect1_dropShadow_7954_36"/>
<feBlend mode="normal" in="SourceGraphic" in2="effect1_dropShadow_7954_36" result="shape"/>
</filter>
<filter id="filter7_d_7954_36" x="0" y="1.53418" width="37.3557" height="41.3281" filterUnits="userSpaceOnUse" color-interpolation-filters="sRGB">
<feFlood flood-opacity="0" result="BackgroundImageFix"/>
<feColorMatrix in="SourceAlpha" type="matrix" values="0 0 0 0 0 0 0 0 0 0 0 0 0 0 0 0 0 0 127 0" result="hardAlpha"/>
<feOffset/>
<feGaussianBlur stdDeviation="2"/>
<feComposite in2="hardAlpha" operator="out"/>
<feColorMatrix type="matrix" values="0 0 0 0 0 0 0 0 0 0 0 0 0 0 0 0 0 0 0.25 0"/>
<feBlend mode="normal" in2="BackgroundImageFix" result="effect1_dropShadow_7954_36"/>
<feBlend mode="normal" in="SourceGraphic" in2="effect1_dropShadow_7954_36" result="shape"/>
</filter>
</defs>
</svg>
