<svg width="16" height="18" viewBox="0 0 16 18" fill="none" xmlns="http://www.w3.org/2000/svg">
<mask id="path-1-inside-1_7823_476" fill="white">
<path d="M8 2.33333C7.22645 2.33333 6.48459 2.64062 5.93761 3.1876C5.39062 3.73459 5.08333 4.47645 5.08333 5.25C5.08333 6.02355 5.39062 6.76541 5.93761 7.31239C6.48459 7.85937 7.22645 8.16667 8 8.16667C8.77355 8.16667 9.51541 7.85937 10.0624 7.31239C10.6094 6.76541 10.9167 6.02355 10.9167 5.25C10.9167 4.47645 10.6094 3.73459 10.0624 3.1876C9.51541 2.64062 8.77355 2.33333 8 2.33333ZM3.41667 5.25C3.41667 4.03442 3.89955 2.86864 4.75909 2.00909C5.61864 1.14955 6.78442 0.666666 8 0.666666C9.21558 0.666666 10.3814 1.14955 11.2409 2.00909C12.1004 2.86864 12.5833 4.03442 12.5833 5.25C12.5833 6.46557 12.1004 7.63136 11.2409 8.49091C10.3814 9.35045 9.21558 9.83333 8 9.83333C6.78442 9.83333 5.61864 9.35045 4.75909 8.49091C3.89955 7.63136 3.41667 6.46557 3.41667 5.25ZM0.5 14.8333C0.5 13.7283 0.938987 12.6685 1.72039 11.8871C2.50179 11.1057 3.5616 10.6667 4.66667 10.6667H11.3333C12.4384 10.6667 13.4982 11.1057 14.2796 11.8871C15.061 12.6685 15.5 13.7283 15.5 14.8333V17.3333H0.5V14.8333ZM4.66667 12.3333C4.00363 12.3333 3.36774 12.5967 2.8989 13.0656C2.43006 13.5344 2.16667 14.1703 2.16667 14.8333V15.6667H13.8333V14.8333C13.8333 14.1703 13.5699 13.5344 13.1011 13.0656C12.6323 12.5967 11.9964 12.3333 11.3333 12.3333H4.66667Z"/>
</mask>
<path d="M8 2.33333C7.22645 2.33333 6.48459 2.64062 5.93761 3.1876C5.39062 3.73459 5.08333 4.47645 5.08333 5.25C5.08333 6.02355 5.39062 6.76541 5.93761 7.31239C6.48459 7.85937 7.22645 8.16667 8 8.16667C8.77355 8.16667 9.51541 7.85937 10.0624 7.31239C10.6094 6.76541 10.9167 6.02355 10.9167 5.25C10.9167 4.47645 10.6094 3.73459 10.0624 3.1876C9.51541 2.64062 8.77355 2.33333 8 2.33333ZM3.41667 5.25C3.41667 4.03442 3.89955 2.86864 4.75909 2.00909C5.61864 1.14955 6.78442 0.666666 8 0.666666C9.21558 0.666666 10.3814 1.14955 11.2409 2.00909C12.1004 2.86864 12.5833 4.03442 12.5833 5.25C12.5833 6.46557 12.1004 7.63136 11.2409 8.49091C10.3814 9.35045 9.21558 9.83333 8 9.83333C6.78442 9.83333 5.61864 9.35045 4.75909 8.49091C3.89955 7.63136 3.41667 6.46557 3.41667 5.25ZM0.5 14.8333C0.5 13.7283 0.938987 12.6685 1.72039 11.8871C2.50179 11.1057 3.5616 10.6667 4.66667 10.6667H11.3333C12.4384 10.6667 13.4982 11.1057 14.2796 11.8871C15.061 12.6685 15.5 13.7283 15.5 14.8333V17.3333H0.5V14.8333ZM4.66667 12.3333C4.00363 12.3333 3.36774 12.5967 2.8989 13.0656C2.43006 13.5344 2.16667 14.1703 2.16667 14.8333V15.6667H13.8333V14.8333C13.8333 14.1703 13.5699 13.5344 13.1011 13.0656C12.6323 12.5967 11.9964 12.3333 11.3333 12.3333H4.66667Z" fill="#B3B3B3"/>
<path d="M8 2.33333L8 0.333333L8 2.33333ZM8 8.16667V6.16667V8.16667ZM3.41667 5.25L1.41667 5.25L3.41667 5.25ZM8 0.666666L8 -1.33333L8 0.666666ZM12.5833 5.25L14.5833 5.25L12.5833 5.25ZM8 9.83333L8 11.8333L8 9.83333ZM11.3333 10.6667V8.66667V10.6667ZM15.5 17.3333V19.3333H17.5V17.3333H15.5ZM0.5 17.3333H-1.5V19.3333H0.5V17.3333ZM4.66667 12.3333L4.66667 10.3333L4.66667 12.3333ZM2.16667 15.6667H0.166667V17.6667H2.16667V15.6667ZM13.8333 15.6667V17.6667H15.8333V15.6667H13.8333ZM13.8333 14.8333L15.8333 14.8333L13.8333 14.8333ZM11.3333 12.3333V10.3333V12.3333ZM8 2.33333L8 0.333333C6.69602 0.333333 5.44545 0.851338 4.52339 1.77339L5.93761 3.1876L7.35182 4.60182C7.52373 4.42991 7.75689 4.33333 8 4.33333L8 2.33333ZM5.93761 3.1876L4.52339 1.77339C3.60134 2.69544 3.08333 3.94602 3.08333 5.25H5.08333H7.08333C7.08333 5.00688 7.17991 4.77373 7.35182 4.60182L5.93761 3.1876ZM5.08333 5.25H3.08333C3.08333 6.55398 3.60134 7.80455 4.52339 8.72661L5.93761 7.31239L7.35182 5.89818C7.17991 5.72627 7.08333 5.49311 7.08333 5.25H5.08333ZM5.93761 7.31239L4.52339 8.72661C5.44545 9.64866 6.69602 10.1667 8 10.1667V8.16667V6.16667C7.75689 6.16667 7.52373 6.07009 7.35182 5.89818L5.93761 7.31239ZM8 8.16667L8 10.1667C9.30398 10.1667 10.5546 9.64866 11.4766 8.72661L10.0624 7.31239L8.64818 5.89818C8.47627 6.07009 8.24311 6.16667 8 6.16667L8 8.16667ZM10.0624 7.31239L11.4766 8.72661C12.3987 7.80455 12.9167 6.55398 12.9167 5.25H10.9167H8.91667C8.91667 5.49311 8.82009 5.72627 8.64818 5.89818L10.0624 7.31239ZM10.9167 5.25H12.9167C12.9167 3.94602 12.3987 2.69544 11.4766 1.77339L10.0624 3.1876L8.64818 4.60182C8.82009 4.77373 8.91667 5.00688 8.91667 5.25H10.9167ZM10.0624 3.1876L11.4766 1.77339C10.5546 0.851338 9.30398 0.333333 8 0.333333L8 2.33333L8 4.33333C8.24311 4.33333 8.47627 4.42991 8.64818 4.60182L10.0624 3.1876ZM3.41667 5.25L5.41667 5.25C5.41667 4.56486 5.68884 3.90778 6.17331 3.42331L4.75909 2.00909L3.34488 0.59488C2.11027 1.82949 1.41667 3.50399 1.41667 5.25L3.41667 5.25ZM4.75909 2.00909L6.17331 3.42331C6.65778 2.93884 7.31486 2.66667 8 2.66667L8 0.666666L8 -1.33333C6.25399 -1.33333 4.57949 -0.639735 3.34488 0.59488L4.75909 2.00909ZM8 0.666666L8 2.66667C8.68514 2.66667 9.34222 2.93884 9.82669 3.42331L11.2409 2.00909L12.6551 0.59488C11.4205 -0.639735 9.74601 -1.33333 8 -1.33333L8 0.666666ZM11.2409 2.00909L9.82669 3.42331C10.3112 3.90778 10.5833 4.56486 10.5833 5.25L12.5833 5.25L14.5833 5.25C14.5833 3.50399 13.8897 1.82949 12.6551 0.59488L11.2409 2.00909ZM12.5833 5.25L10.5833 5.25C10.5833 5.93514 10.3112 6.59222 9.82669 7.07669L11.2409 8.49091L12.6551 9.90512C13.8897 8.6705 14.5833 6.99601 14.5833 5.25L12.5833 5.25ZM11.2409 8.49091L9.82669 7.07669C9.34222 7.56116 8.68514 7.83333 8 7.83333L8 9.83333L8 11.8333C9.74601 11.8333 11.4205 11.1397 12.6551 9.90512L11.2409 8.49091ZM8 9.83333L8 7.83333C7.31486 7.83333 6.65778 7.56116 6.17331 7.07669L4.75909 8.49091L3.34488 9.90512C4.57949 11.1397 6.25399 11.8333 8 11.8333L8 9.83333ZM4.75909 8.49091L6.17331 7.07669C5.68884 6.59222 5.41667 5.93514 5.41667 5.25L3.41667 5.25L1.41667 5.25C1.41667 6.99601 2.11027 8.6705 3.34488 9.90512L4.75909 8.49091ZM0.5 14.8333H2.5C2.5 14.2587 2.72827 13.7076 3.1346 13.3013L1.72039 11.8871L0.306175 10.4728C-0.8503 11.6293 -1.5 13.1978 -1.5 14.8333H0.5ZM1.72039 11.8871L3.1346 13.3013C3.54093 12.8949 4.09203 12.6667 4.66667 12.6667V10.6667V8.66667C3.03116 8.66667 1.46265 9.31637 0.306175 10.4728L1.72039 11.8871ZM4.66667 10.6667V12.6667H11.3333V10.6667V8.66667H4.66667V10.6667ZM11.3333 10.6667L11.3333 12.6667C11.908 12.6667 12.4591 12.8949 12.8654 13.3013L14.2796 11.8871L15.6938 10.4728C14.5374 9.31637 12.9688 8.66667 11.3333 8.66667L11.3333 10.6667ZM14.2796 11.8871L12.8654 13.3013C13.2717 13.7076 13.5 14.2587 13.5 14.8333H15.5H17.5C17.5 13.1978 16.8503 11.6293 15.6938 10.4728L14.2796 11.8871ZM15.5 14.8333H13.5V17.3333H15.5H17.5V14.8333H15.5ZM15.5 17.3333V15.3333H0.5V17.3333V19.3333H15.5V17.3333ZM0.5 17.3333H2.5V14.8333H0.5H-1.5V17.3333H0.5ZM4.66667 12.3333L4.66667 10.3333C3.47319 10.3333 2.3286 10.8074 1.48469 11.6514L2.8989 13.0656L4.31311 14.4798C4.40688 14.386 4.53406 14.3333 4.66667 14.3333L4.66667 12.3333ZM2.8989 13.0656L1.48469 11.6514C0.640772 12.4953 0.166667 13.6399 0.166667 14.8333H2.16667H4.16667C4.16667 14.7007 4.21935 14.5735 4.31311 14.4798L2.8989 13.0656ZM2.16667 14.8333H0.166667V15.6667H2.16667H4.16667V14.8333H2.16667ZM2.16667 15.6667V17.6667H13.8333V15.6667V13.6667H2.16667V15.6667ZM13.8333 15.6667H15.8333V14.8333H13.8333H11.8333V15.6667H13.8333ZM13.8333 14.8333L15.8333 14.8333C15.8333 13.6399 15.3592 12.4953 14.5153 11.6514L13.1011 13.0656L11.6869 14.4798C11.7807 14.5735 11.8333 14.7007 11.8333 14.8333L13.8333 14.8333ZM13.1011 13.0656L14.5153 11.6514C13.6714 10.8074 12.5268 10.3333 11.3333 10.3333L11.3333 12.3333L11.3333 14.3333C11.4659 14.3333 11.5931 14.386 11.6869 14.4798L13.1011 13.0656ZM11.3333 12.3333V10.3333H4.66667V12.3333V14.3333H11.3333V12.3333Z" fill="white" mask="url(#path-1-inside-1_7823_476)"/>
</svg>
