<svg width="120" height="30" viewBox="0 0 120 30" fill="none" xmlns="http://www.w3.org/2000/svg">
<g filter="url(#filter0_d_7823_445)">
<path d="M29.6712 18.9917C29.5919 18.9144 29.5206 18.8989 29.4651 18.9917C29.2009 19.2767 28.9089 19.5358 28.5931 19.7653C28.3958 19.9289 28.1529 20.0313 27.8955 20.0593C27.5071 20.0593 27.3961 19.5719 27.5705 18.6049L29.259 8.89634C29.259 8.84992 29.259 8.81124 29.1322 8.77256C29.0053 8.73388 28.9499 8.77256 28.9102 8.77256C28.6701 9.16923 28.3617 9.52252 27.9986 9.81691C27.7511 9.58307 27.457 9.40138 27.1346 9.28313C26.7567 9.13349 26.3533 9.05475 25.9455 9.05106C25.0243 9.087 24.1352 9.39148 23.393 9.92522C22.448 10.5772 21.6043 11.3589 20.888 12.246C20.1085 13.1987 19.446 14.2372 18.9142 15.3404C18.4025 16.3557 18.0626 17.445 17.9074 18.5663C17.7102 19.3826 17.8258 20.2411 18.2324 20.9799C18.409 21.2282 18.6468 21.4292 18.9239 21.5644C19.2009 21.6996 19.5083 21.7646 19.8179 21.7535C20.7168 21.7134 21.5762 21.3812 22.2594 20.8097C23.2172 20.0527 24.0235 19.1295 24.6375 18.0866C24.9335 17.587 25.1982 17.0703 25.4302 16.5395L25.0656 18.5663C24.8898 19.3352 24.9254 20.1358 25.1686 20.8871C25.2754 21.1226 25.4553 21.3195 25.6828 21.4499C25.9104 21.5804 26.1742 21.6379 26.437 21.6142C27.0256 21.5919 27.5871 21.3672 28.0224 20.9799C28.6565 20.4557 29.2258 19.8612 29.7188 19.2084C29.7584 19.1465 29.7426 19.0768 29.6712 18.9917ZM24.3521 17.3904C24.0038 17.9553 23.5679 18.4641 23.06 18.8989C22.6847 19.2555 22.1881 19.4647 21.6649 19.4868C21.4371 19.4767 21.2185 19.3964 21.0404 19.2574C20.8624 19.1184 20.7341 18.9279 20.674 18.7133C20.4236 17.8403 20.4018 16.9199 20.6106 16.0366C20.7542 15.053 21.0481 14.096 21.4825 13.1975C21.8192 12.4709 22.2924 11.8123 22.8777 11.2558C23.2947 10.8311 23.8613 10.5767 24.4631 10.5441C24.7314 10.5353 24.9964 10.6041 25.2249 10.7417C25.4533 10.8793 25.6351 11.0797 25.7473 11.3177C26.0318 12.0133 26.0926 12.7768 25.9217 13.507C25.8062 14.1787 25.6202 14.8372 25.3668 15.4719C25.0917 16.1414 24.752 16.7838 24.3521 17.3904Z" fill="white"/>
</g>
<g filter="url(#filter1_d_7823_445)">
<path d="M49.6392 18.9608C49.6252 18.9431 49.6071 18.9288 49.5865 18.919C49.5659 18.9092 49.5433 18.904 49.5203 18.904C49.4974 18.904 49.4748 18.9092 49.4542 18.919C49.4335 18.9288 49.4155 18.9431 49.4014 18.9608C49.0923 19.2702 48.8148 19.5255 48.6087 19.7344C48.4249 19.9157 48.1798 20.0257 47.9191 20.0438C47.8309 20.0408 47.7459 20.0108 47.6762 19.9581C47.6065 19.9053 47.5556 19.8325 47.5306 19.7499C47.432 19.3691 47.432 18.9703 47.5306 18.5895L48.4581 13.1047C48.7273 12.1004 48.6915 11.0415 48.3551 10.0567C48.2246 9.75498 48.003 9.49925 47.7197 9.32369C47.4364 9.14814 47.105 9.06112 46.7696 9.07426C46.2457 9.10383 45.7345 9.2444 45.2718 9.4862C44.8091 9.728 44.406 10.0652 44.0903 10.4745C43.1254 11.6241 42.3815 12.9345 41.8945 14.3424L42.1085 13.0583C42.371 12.0473 42.3157 10.9826 41.95 10.0026C41.8087 9.71106 41.5836 9.4659 41.3021 9.29697C41.0207 9.12803 40.6949 9.04259 40.3646 9.05106C39.8254 9.08034 39.2994 9.22513 38.824 9.47514C38.3486 9.72516 37.9354 10.0743 37.6139 10.4977C36.652 11.6652 35.9111 12.9907 35.426 14.4121L35.8541 11.8205C36.0171 11.1748 35.9952 10.4977 35.7907 9.86333C35.6911 9.63496 35.5183 9.44433 35.2981 9.32015C35.0779 9.19597 34.8223 9.14497 34.5699 9.17483C33.9713 9.19266 33.3929 9.38983 32.9131 9.73956C32.1557 10.2603 31.4824 10.8887 30.9155 11.6039C30.8837 11.6392 30.8662 11.6846 30.8662 11.7316C30.8662 11.7785 30.8837 11.8239 30.9155 11.8592C30.9948 11.952 31.0582 11.9598 31.1216 11.8592C31.4108 11.5182 31.7378 11.2095 32.0966 10.9386C32.2943 10.7635 32.5444 10.655 32.8101 10.6292C33.2698 10.6292 33.4205 11.132 33.2461 12.1764L32.0491 19.0536C31.9698 19.5874 31.8826 20.0825 31.7716 20.5389C31.7037 20.7936 31.6507 21.0519 31.6131 21.3125C31.6131 21.3744 31.6844 21.4286 31.8192 21.4827C32.0768 21.5532 32.3451 21.5794 32.6119 21.5601C33.6028 21.5601 34.1497 21.3589 34.2449 20.9412C34.5128 19.0865 34.9397 17.2569 35.5211 15.4719C35.8763 14.2459 36.4102 13.0761 37.1065 11.9985C37.6773 11.2249 38.2163 10.7994 38.692 10.7994C38.8813 10.8079 39.0622 10.8781 39.2058 10.9987C39.3495 11.1192 39.4477 11.2833 39.4847 11.4647C39.6546 12.1798 39.6546 12.9234 39.4847 13.6385L38.5176 19.0536C38.4513 19.5531 38.3587 20.0488 38.2401 20.5389C38.1721 20.7936 38.1192 21.0519 38.0816 21.3125C38.0816 21.3744 38.1529 21.4286 38.2877 21.4827C38.5453 21.5532 38.8136 21.5794 39.0804 21.5601C40.1109 21.5601 40.6658 21.3589 40.7134 20.9412C40.977 19.0254 41.412 17.1358 42.0134 15.294C42.3875 14.096 42.9375 12.9573 43.6464 11.9134C44.233 11.163 44.7482 10.8303 45.1842 10.8303C45.6202 10.8303 45.8184 11.0701 45.9769 11.542C46.0909 12.2693 46.0722 13.0105 45.9215 13.7313L45.0415 18.5663C44.8683 19.3071 44.8683 20.0766 45.0415 20.8174C45.1259 21.0682 45.297 21.2825 45.5255 21.4236C45.754 21.5648 46.0257 21.6239 46.294 21.591C46.8986 21.5769 47.4779 21.3519 47.927 20.9567C48.5564 20.4301 49.1228 19.8358 49.6155 19.1851C49.6484 19.158 49.6693 19.1195 49.6737 19.0777C49.6782 19.0358 49.6658 18.9939 49.6392 18.9608Z" fill="white"/>
</g>
<g filter="url(#filter2_d_7823_445)">
<path d="M80.6264 9.6622C80.4972 9.48892 80.3261 9.3495 80.1283 9.25637C79.9305 9.16324 79.7122 9.11929 79.4928 9.12842C79.0442 9.10694 78.6052 9.25995 78.2721 9.55389C78.1155 9.70155 77.9928 9.87996 77.9122 10.0773C77.8316 10.2747 77.7948 10.4865 77.8044 10.6988C77.7864 11.0643 77.8773 11.427 78.066 11.7432L78.605 12.5786C78.8064 12.9181 78.9434 13.2902 79.0093 13.6772C79.0922 14.2776 79.0491 14.8882 78.8824 15.4719C78.7015 16.1148 78.4573 16.7392 78.1531 17.3363C77.7647 18.1485 77.297 19.0459 76.7421 20.0361C76.4647 20.5235 76.1793 21.0108 75.8939 21.4905C75.9819 19.9883 75.9819 18.4825 75.8939 16.9804C75.8006 15.6187 75.5858 14.2675 75.2518 12.9422C75.0276 11.9585 74.622 11.0227 74.0549 10.1805C73.8809 9.89006 73.6353 9.64663 73.3404 9.47235C73.0456 9.29807 72.7107 9.19846 72.3664 9.18257C71.6966 9.22888 71.0575 9.47459 70.5352 9.88654C69.8424 10.3618 69.2945 11.0114 68.9498 11.7664C68.9498 11.8515 68.9498 11.9056 69.0846 11.9366C69.1044 11.9457 69.1258 11.951 69.1477 11.9521C69.1695 11.9532 69.1914 11.95 69.212 11.9428C69.2326 11.9356 69.2516 11.9245 69.2678 11.9102C69.284 11.8959 69.2972 11.8785 69.3065 11.8592C69.455 11.6018 69.6512 11.3736 69.8852 11.1862C70.0867 11.0117 70.3452 10.913 70.6145 10.9077C71.5816 10.9077 72.3426 12.1686 72.8817 14.6828C73.4744 18.0852 73.7029 21.5386 73.5634 24.9871C73.4286 25.1573 73.3018 25.343 73.1749 25.5054C72.7424 26.0909 72.2334 26.6188 71.6609 27.0758C71.5011 27.219 71.3112 27.3264 71.1044 27.3905C70.8977 27.4547 70.6791 27.474 70.4639 27.4471C70.106 27.3588 69.7638 27.218 69.4492 27.0294C69.1157 26.8298 68.7306 26.7278 68.3394 26.7354C67.9239 26.7076 67.5138 26.8405 67.1978 27.1054C66.8818 27.3704 66.6854 27.746 66.651 28.1511C66.5753 28.4082 66.5721 28.6805 66.6419 28.9392C66.7117 29.198 66.8517 29.4335 67.0473 29.6209C67.4246 29.8804 67.878 30.0135 68.3394 30C69.0657 29.9465 69.7575 29.6765 70.3212 29.2264C71.1728 28.6053 71.9541 27.8973 72.6518 27.1145C73.5042 26.1523 74.2982 25.1423 75.0299 24.0897C75.8226 22.9706 76.5783 21.8051 77.297 20.5931C78.0158 19.3811 78.6737 18.1898 79.2709 17.0191C79.7731 15.9626 80.2099 14.8776 80.5788 13.77C80.8599 12.9691 81.0201 12.1326 81.0545 11.2867C81.0878 10.715 80.9382 10.1473 80.6264 9.6622Z" fill="white"/>
</g>
<g filter="url(#filter3_d_7823_445)">
<path d="M94.0783 18.9917C93.999 18.9144 93.9276 18.8989 93.8722 18.9917C93.608 19.2767 93.316 19.5358 93.0002 19.7653C92.8028 19.9289 92.5599 20.0313 92.3026 20.0593C91.9142 20.0593 91.8032 19.5719 91.9776 18.6049L93.6661 8.89634C93.6661 8.84992 93.6661 8.81124 93.5392 8.77256C93.4124 8.73388 93.3569 8.77256 93.3173 8.77256C93.0747 9.16749 92.7666 9.52041 92.4057 9.81691C92.1611 9.57194 91.8668 9.37958 91.5416 9.25219C91.1635 9.10325 90.7602 9.02454 90.3525 9.02011C89.4313 9.05606 88.5422 9.36054 87.8 9.89427C86.855 10.5463 86.0113 11.3279 85.2951 12.2151C84.5155 13.1677 83.853 14.2063 83.3212 15.3094C82.8063 16.3344 82.4663 17.4344 82.3145 18.5663C82.1056 19.3955 82.2245 20.271 82.6474 21.0186C82.823 21.2679 83.0605 21.4697 83.3378 21.605C83.6151 21.7403 83.9231 21.8047 84.2328 21.7922C85.1318 21.7521 85.9911 21.4199 86.6744 20.8484C87.6322 20.0914 88.4384 19.1682 89.0525 18.1253C89.3485 17.6257 89.6132 17.109 89.8452 16.5781L89.4726 18.5663C89.2969 19.3352 89.3324 20.1358 89.5757 20.8871C89.6825 21.1226 89.8623 21.3195 90.0899 21.4499C90.3174 21.5804 90.5812 21.6379 90.844 21.6142C91.4332 21.5946 91.9957 21.3695 92.4294 20.9799C93.0682 20.4582 93.6405 19.8634 94.1338 19.2084C94.1655 19.1465 94.1496 19.0768 94.0783 18.9917ZM88.783 17.3904C88.4346 17.9553 87.9987 18.4641 87.4909 18.8989C87.1148 19.2542 86.6186 19.4633 86.0957 19.4868C85.8679 19.4767 85.6493 19.3964 85.4713 19.2574C85.2932 19.1184 85.1649 18.9279 85.1048 18.7133C84.8517 17.8354 84.8299 16.9094 85.0414 16.0211C85.1913 15.038 85.4878 14.0815 85.9213 13.1821C86.258 12.4554 86.7312 11.7968 87.3165 11.2403C87.7334 10.8156 88.3001 10.5612 88.9019 10.5286C89.1693 10.5194 89.4334 10.588 89.6607 10.7257C89.888 10.8635 90.0681 11.0642 90.1781 11.3022C90.4825 12.009 90.5491 12.7918 90.3684 13.5379C90.2431 14.1866 90.0519 14.8215 89.7976 15.4332C89.5217 16.1146 89.182 16.7698 88.783 17.3904Z" fill="white"/>
</g>
<g filter="url(#filter4_d_7823_445)">
<path d="M107.904 18.9608C107.824 18.8834 107.753 18.8834 107.697 18.9608C107.388 19.2702 107.103 19.5255 106.857 19.7344C106.666 19.9151 106.417 20.0246 106.152 20.0438C106.063 20.0408 105.978 20.0108 105.909 19.9581C105.839 19.9053 105.788 19.8325 105.763 19.7499C105.665 19.3691 105.665 18.9703 105.763 18.5895L106.722 13.1047C106.98 12.0813 106.931 11.007 106.58 10.0103C106.428 9.69604 106.183 9.43392 105.876 9.25852C105.569 9.08313 105.214 9.0027 104.86 9.02785C104.312 9.0551 103.777 9.19868 103.293 9.44855C102.808 9.69841 102.385 10.0485 102.053 10.4745C101.02 11.6921 100.229 13.0881 99.7228 14.59V14.6519L100.198 11.7973C100.361 11.1516 100.34 10.4745 100.135 9.84012C100.034 9.61253 99.8613 9.42263 99.6414 9.29861C99.4215 9.17459 99.1665 9.12304 98.9142 9.15162C98.3157 9.16945 97.7372 9.36662 97.2575 9.71635C96.5321 10.2513 95.8911 10.8873 95.355 11.6039C95.3232 11.6392 95.3057 11.6846 95.3057 11.7316C95.3057 11.7785 95.3232 11.8239 95.355 11.8592C95.4342 11.952 95.4976 11.9598 95.5531 11.8592C95.8464 11.5219 96.173 11.2135 96.5282 10.9386C96.7276 10.7662 96.9768 10.6581 97.2416 10.6292C97.7093 10.6292 97.8599 11.132 97.6855 12.1764L96.4885 19.0536C96.4093 19.5874 96.3221 20.0825 96.2111 20.5389C96.1431 20.7936 96.0902 21.0519 96.0525 21.3125C96.0525 21.3744 96.116 21.4286 96.2586 21.4827C96.5163 21.5532 96.7845 21.5794 97.0514 21.5601C98.0422 21.5601 98.5813 21.3589 98.6843 20.9412C98.9587 19.0545 99.3962 17.1938 99.9923 15.3791C100.372 14.1542 100.941 12.9933 101.681 11.9366C102.283 11.163 102.854 10.7684 103.401 10.7684C104.273 10.7684 104.537 11.7354 104.194 13.6694L103.33 18.5663C103.145 19.3059 103.145 20.0779 103.33 20.8174C103.413 21.0653 103.582 21.2775 103.807 21.4183C104.032 21.5592 104.3 21.6202 104.566 21.591C105.181 21.5802 105.771 21.3552 106.231 20.9567C106.86 20.4317 107.423 19.8372 107.911 19.1851C107.937 19.1526 107.95 19.1125 107.948 19.0716C107.947 19.0307 107.931 18.9916 107.904 18.9608Z" fill="white"/>
</g>
<g filter="url(#filter5_d_7823_445)">
<path d="M119.834 9.12842C119.189 9.14573 118.552 9.26594 117.947 9.48427C117.606 9.59289 117.275 9.72739 116.956 9.88654C116.38 9.45799 115.666 9.24404 114.943 9.28314C114.133 9.28113 113.336 9.48083 112.628 9.86333C111.884 10.2637 111.244 10.8256 110.757 11.5056C110.27 12.1856 109.95 12.9656 109.822 13.7855C109.681 14.5263 109.7 15.2878 109.877 16.0211C110.03 16.6696 110.384 17.2561 110.892 17.6998C111.166 17.9311 111.488 18.1025 111.835 18.2027C111.463 18.5121 111.122 18.8138 110.821 19.1001C110.375 19.5007 110.066 20.0242 109.933 20.6008C109.88 20.7996 109.873 21.0071 109.911 21.2089C109.95 21.4106 110.033 21.6018 110.155 21.769C110.376 22.0542 110.644 22.3024 110.947 22.5039C110.148 22.9704 109.38 23.4872 108.649 24.0511C107.825 24.6467 107.259 25.5215 107.063 26.5034C106.956 27.1106 107.08 27.7353 107.412 28.2594C107.794 28.8355 108.347 29.2836 108.997 29.5436C109.833 29.8828 110.733 30.0437 111.637 30.0155C112.653 30.0225 113.663 29.8522 114.618 29.5126C115.488 29.2036 116.278 28.7125 116.932 28.0738C117.546 27.4728 117.944 26.6938 118.066 25.8535C118.175 25.2173 118.081 24.5638 117.796 23.9814C117.548 23.4705 117.182 23.0229 116.726 22.6741C116.253 22.2868 115.74 21.9473 115.196 21.6607C114.641 21.3822 114.118 21.1114 113.611 20.8406C113.179 20.6158 112.785 20.326 112.446 19.982C112.304 19.8286 112.199 19.6462 112.138 19.4481C112.078 19.25 112.064 19.0412 112.097 18.837C112.119 18.6306 112.184 18.4306 112.287 18.2491C112.466 18.2741 112.646 18.287 112.826 18.2878C113.599 18.2846 114.36 18.0932 115.038 17.7308C115.811 17.3293 116.479 16.7586 116.989 16.0635C117.5 15.3684 117.838 14.5675 117.979 13.7236C118.146 12.9925 118.146 12.2344 117.979 11.5034C117.878 11.0957 117.694 10.7118 117.44 10.3739C117.591 10.3779 117.742 10.3934 117.891 10.4203C118.515 10.5204 119.105 10.7644 119.612 11.132C119.667 11.1707 119.731 11.132 119.786 10.8999C119.852 10.6656 119.905 10.4281 119.945 10.1882C119.993 9.93315 120.014 9.67395 120.008 9.41465C119.984 9.23672 119.937 9.12842 119.834 9.12842ZM112.604 23.4012C113.115 23.6455 113.61 23.9193 114.087 24.2212C114.537 24.4967 114.932 24.8507 115.252 25.2656C115.562 25.6932 115.711 26.2128 115.672 26.7354C115.661 27.2997 115.458 27.8443 115.093 28.2826C114.84 28.5587 114.523 28.7725 114.169 28.9069C113.815 29.0414 113.434 29.0925 113.056 29.0562C112.415 29.0676 111.782 28.9184 111.217 28.623C110.693 28.3409 110.261 27.9198 109.972 27.4085C109.671 26.8591 109.558 26.2305 109.647 25.6137C109.709 25.0871 109.881 24.5786 110.155 24.1207C110.413 23.7049 110.728 23.325 111.09 22.9912L111.36 22.7669C111.772 22.968 112.16 23.2078 112.604 23.4012ZM115.474 14.0253C115.424 14.9354 115.19 15.8268 114.784 16.6478C114.427 17.3053 113.991 17.638 113.611 17.638C113.444 17.6229 113.284 17.5667 113.145 17.4747C113.006 17.3827 112.894 17.2579 112.818 17.1119C112.556 16.6681 112.394 16.1749 112.343 15.6653C112.258 14.9585 112.258 14.2447 112.343 13.5379C112.404 12.6386 112.641 11.7591 113.04 10.9464C113.413 10.2501 113.833 9.89428 114.237 9.89428C114.439 9.90384 114.633 9.97451 114.792 10.0965C114.951 10.2185 115.068 10.3857 115.125 10.575C115.34 11.0956 115.466 11.647 115.498 12.2073C115.545 12.8128 115.537 13.4212 115.474 14.0253Z" fill="white"/>
</g>
<g filter="url(#filter6_d_7823_445)">
<path d="M69.4968 0C69.1005 0 68.6407 0 68.1255 0.0464157C67.6102 0.0928314 67.0712 0.0928314 66.54 0.0928314C66.0089 0.0928314 65.454 0.0928314 64.9546 0.0464157C64.4552 0 63.9558 0 63.5674 0C63.5119 0 63.4802 0.0618876 63.4802 0.193399C63.4802 0.32491 63.4802 0.379061 63.5674 0.379061C64.2412 0.379061 64.6613 0.53378 64.8119 0.835482C64.9656 1.42171 64.9656 2.03626 64.8119 2.62249L63.5753 11.2094H57.1861L57.8678 6.7999C57.922 6.32988 58.0229 5.86612 58.1691 5.41516C58.2635 5.1279 58.4641 4.88523 58.7319 4.7344C59.0803 4.59279 59.4568 4.52935 59.8337 4.54874C59.8337 4.54874 59.8892 4.47911 59.8892 4.35534C59.8892 4.23156 59.8892 4.16194 59.8337 4.16194C59.4453 4.16194 58.9776 4.16194 58.4544 4.21609C57.9312 4.27024 57.3764 4.26251 56.8056 4.26251C56.2349 4.26251 55.7275 4.26251 55.2202 4.21609C54.7129 4.16968 54.2927 4.16968 53.9043 4.16968C53.9043 4.16968 53.8488 4.2393 53.8488 4.36307C53.8488 4.48685 53.8488 4.55647 53.9043 4.55647C54.586 4.55647 55.0141 4.69572 55.1885 4.98195C55.3898 5.54546 55.4092 6.15568 55.244 6.73027L53.0244 21.3667C52.965 21.8419 52.8507 22.3091 52.6835 22.7592C52.6346 22.8969 52.5584 23.0238 52.459 23.1327C52.3597 23.2415 52.2394 23.3302 52.1048 23.3935C51.7544 23.5155 51.3825 23.5681 51.0109 23.5482C50.9554 23.5482 50.9316 23.6178 50.9316 23.7416C50.9316 23.8654 50.9316 23.9273 51.0109 23.9273C51.3993 23.9273 51.8512 23.9273 52.3506 23.9273C52.85 23.9273 53.3811 23.9273 53.936 23.9273C54.4909 23.9273 55.0775 23.9273 55.5928 23.9273C56.108 23.9273 56.5678 23.9273 56.9641 23.9273C57.0196 23.9273 57.0434 23.8654 57.0434 23.7416C57.0434 23.6178 57.0434 23.5482 56.9641 23.5482C56.2824 23.5482 55.8623 23.4167 55.6879 23.1382C55.5137 22.5599 55.5137 21.945 55.6879 21.3667L57.091 12.0835H63.4168L62.6241 17.1815C62.5686 17.656 62.4596 18.1229 62.2991 18.574C62.2562 18.7102 62.1858 18.8365 62.0918 18.9455C61.9978 19.0545 61.8823 19.1439 61.7521 19.2084C61.3955 19.3278 61.0189 19.3803 60.6423 19.3631C60.6423 19.3631 60.5868 19.425 60.5868 19.5487C60.5868 19.6725 60.5868 19.7421 60.6423 19.7421C61.0466 19.7421 61.5143 19.7421 62.0375 19.7421C62.5607 19.7421 63.0997 19.7421 63.6704 19.7421C64.2412 19.7421 64.7882 19.7421 65.3034 19.7421C65.8187 19.7421 66.2547 19.7421 66.5955 19.7421C66.651 19.7421 66.6748 19.6802 66.6748 19.5487C66.6748 19.4172 66.6748 19.3631 66.5955 19.3631C65.9297 19.3631 65.5095 19.2238 65.3351 18.9531C65.1294 18.3833 65.1018 17.7667 65.2559 17.1815L67.5071 2.5606C67.5823 2.09766 67.699 1.64206 67.8559 1.19907C67.9506 0.921633 68.1526 0.691242 68.4188 0.556988C68.7611 0.423549 69.1286 0.362891 69.4968 0.379061C69.4968 0.379061 69.5444 0.317174 69.5444 0.193399C69.5444 0.0696235 69.5285 0 69.4968 0Z" fill="#9BD4B9"/>
</g>
<g filter="url(#filter7_d_7823_445)">
<path d="M16.0523 5.18308C15.5844 3.8172 14.6818 2.63282 13.476 1.80248C12.1806 0.960831 10.6477 0.536117 9.09235 0.587932C8.56284 0.58611 8.03362 0.611934 7.50694 0.665291C6.9802 0.717903 6.45101 0.743724 5.92152 0.74265C5.39834 0.773594 4.84344 0.727179 4.33611 0.696235C3.82878 0.665291 3.36901 0.649819 2.9568 0.649819C2.9568 0.649819 2.90131 0.711707 2.90131 0.843218C2.90131 0.974729 2.90131 1.02888 2.9568 1.02888H4.05866C4.42347 2.61026 4.68821 4.21205 4.85137 5.82517C4.85137 6.03146 4.86722 6.2558 4.89893 6.49819C4.69708 5.85322 4.32854 5.26978 3.82878 4.80402C3.17696 4.30038 2.36923 4.02763 1.53785 4.03043C1.7167 4.852 2.14159 5.60322 2.75862 6.18876C3.38214 6.67756 4.15474 6.94976 4.95442 6.96235C5.00991 7.92161 5.02576 9.03559 4.95442 10.1882C4.76048 9.44038 4.35698 8.76 3.78914 8.22331C3.13732 7.71967 2.3296 7.44692 1.49822 7.44972C1.66817 8.2879 2.09369 9.0564 2.71899 9.65446C3.35372 10.145 4.13688 10.417 4.94649 10.4281C4.94649 11.3332 4.84344 12.2615 4.72453 13.1588C4.53196 12.4857 4.15996 11.8744 3.64645 11.3873C2.99464 10.8837 2.18691 10.6109 1.35553 10.6137C1.52548 11.4519 1.951 12.2204 2.5763 12.8185C3.18123 13.297 3.93031 13.5688 4.70868 13.5921C4.38367 15.82 3.75743 17.7927 2.62386 18.6668C2.48117 18.7674 1.25248 19.4791 1.07808 19.5642L0.174396 20.0284H0.0871978C0 20.0284 0 20.1135 0 20.214C0 20.3146 0 20.4074 0.0871978 20.4074C0.491478 20.4074 0.943321 20.4074 1.4348 20.4074C1.92628 20.4074 2.47325 20.4074 3.05985 20.4074C3.64645 20.4074 4.2172 20.4074 4.85929 20.5003C5.50139 20.5931 6.04043 20.5931 6.44471 20.5931C7.56969 20.5869 8.67941 20.3386 9.69481 19.8659C10.8132 19.33 11.825 18.6044 12.6833 17.7231C13.6559 16.7651 14.4594 15.6568 15.0614 14.443C15.7253 13.1039 16.1668 11.6704 16.3694 10.196C16.6762 8.52432 16.5674 6.80523 16.0523 5.18308ZM13.365 10.8922C13.1453 12.5813 12.6614 14.2276 11.9302 15.7736C11.3817 16.9829 10.5412 18.0446 9.48078 18.868C8.5852 19.551 7.47823 19.9166 6.34166 19.9046L4.35989 19.8582C4.37695 19.7537 4.40078 19.6503 4.43123 19.5487L4.5105 19.1155C4.65319 18.3419 4.84344 17.491 5.03369 16.6942C5.12881 16.3074 5.21601 15.9206 5.31114 15.5106C5.43004 14.8685 5.5331 14.2264 5.61237 13.5766C6.3462 13.5248 7.04614 13.2549 7.61791 12.803C8.24006 12.2026 8.66503 11.4351 8.83868 10.5982C8.005 10.5961 7.195 10.8687 6.53983 11.3718C6.20659 11.6707 5.93718 12.0308 5.74713 12.4317C5.81054 11.7664 5.85018 11.1011 5.87396 10.4358C6.58662 10.3756 7.26381 10.1059 7.81609 9.6622C8.43824 9.06182 8.8632 8.29433 9.03686 7.45745C8.20318 7.45535 7.39317 7.72793 6.73801 8.23105C6.39053 8.54438 6.10797 8.91993 5.90567 9.33729C5.90567 8.56369 5.90567 7.73595 5.90567 6.94688C6.6 6.88208 7.25917 6.61831 7.80024 6.18876C8.42239 5.58838 8.84735 4.82089 9.02101 3.98401C8.18732 3.98191 7.37732 4.25449 6.72216 4.75761C6.33034 5.11912 6.02456 5.56012 5.8264 6.04951C5.73127 4.33213 5.54895 2.6689 5.39041 1.10624C6.84899 1.16039 8.47404 1.22228 8.85454 1.22228C9.81717 1.17703 10.7621 1.48626 11.5022 2.08871C12.2012 2.71811 12.7133 3.51986 12.9845 4.40949C13.3194 5.42321 13.5063 6.47794 13.5394 7.54255C13.5827 8.66194 13.5244 9.78287 13.365 10.8922Z" fill="white"/>
</g>
<defs>
<filter id="filter0_d_7823_445" x="13.8135" y="4.75537" width="19.9268" height="20.9993" filterUnits="userSpaceOnUse" color-interpolation-filters="sRGB">
<feFlood flood-opacity="0" result="BackgroundImageFix"/>
<feColorMatrix in="SourceAlpha" type="matrix" values="0 0 0 0 0 0 0 0 0 0 0 0 0 0 0 0 0 0 127 0" result="hardAlpha"/>
<feOffset/>
<feGaussianBlur stdDeviation="2"/>
<feComposite in2="hardAlpha" operator="out"/>
<feColorMatrix type="matrix" values="0 0 0 0 0 0 0 0 0 0 0 0 0 0 0 0 0 0 0.25 0"/>
<feBlend mode="normal" in2="BackgroundImageFix" result="effect1_dropShadow_7823_445"/>
<feBlend mode="normal" in="SourceGraphic" in2="effect1_dropShadow_7823_445" result="shape"/>
</filter>
<filter id="filter1_d_7823_445" x="26.8662" y="5.05048" width="26.8086" height="20.5494" filterUnits="userSpaceOnUse" color-interpolation-filters="sRGB">
<feFlood flood-opacity="0" result="BackgroundImageFix"/>
<feColorMatrix in="SourceAlpha" type="matrix" values="0 0 0 0 0 0 0 0 0 0 0 0 0 0 0 0 0 0 127 0" result="hardAlpha"/>
<feOffset/>
<feGaussianBlur stdDeviation="2"/>
<feComposite in2="hardAlpha" operator="out"/>
<feColorMatrix type="matrix" values="0 0 0 0 0 0 0 0 0 0 0 0 0 0 0 0 0 0 0.25 0"/>
<feBlend mode="normal" in2="BackgroundImageFix" result="effect1_dropShadow_7823_445"/>
<feBlend mode="normal" in="SourceGraphic" in2="effect1_dropShadow_7823_445" result="shape"/>
</filter>
<filter id="filter2_d_7823_445" x="62.5918" y="5.12643" width="22.4668" height="28.8745" filterUnits="userSpaceOnUse" color-interpolation-filters="sRGB">
<feFlood flood-opacity="0" result="BackgroundImageFix"/>
<feColorMatrix in="SourceAlpha" type="matrix" values="0 0 0 0 0 0 0 0 0 0 0 0 0 0 0 0 0 0 127 0" result="hardAlpha"/>
<feOffset/>
<feGaussianBlur stdDeviation="2"/>
<feComposite in2="hardAlpha" operator="out"/>
<feColorMatrix type="matrix" values="0 0 0 0 0 0 0 0 0 0 0 0 0 0 0 0 0 0 0.25 0"/>
<feBlend mode="normal" in2="BackgroundImageFix" result="effect1_dropShadow_7823_445"/>
<feBlend mode="normal" in="SourceGraphic" in2="effect1_dropShadow_7823_445" result="shape"/>
</filter>
<filter id="filter3_d_7823_445" x="78.2139" y="4.75537" width="19.9355" height="21.0383" filterUnits="userSpaceOnUse" color-interpolation-filters="sRGB">
<feFlood flood-opacity="0" result="BackgroundImageFix"/>
<feColorMatrix in="SourceAlpha" type="matrix" values="0 0 0 0 0 0 0 0 0 0 0 0 0 0 0 0 0 0 127 0" result="hardAlpha"/>
<feOffset/>
<feGaussianBlur stdDeviation="2"/>
<feComposite in2="hardAlpha" operator="out"/>
<feColorMatrix type="matrix" values="0 0 0 0 0 0 0 0 0 0 0 0 0 0 0 0 0 0 0.25 0"/>
<feBlend mode="normal" in2="BackgroundImageFix" result="effect1_dropShadow_7823_445"/>
<feBlend mode="normal" in="SourceGraphic" in2="effect1_dropShadow_7823_445" result="shape"/>
</filter>
<filter id="filter4_d_7823_445" x="91.3057" y="5.02334" width="20.6426" height="20.5748" filterUnits="userSpaceOnUse" color-interpolation-filters="sRGB">
<feFlood flood-opacity="0" result="BackgroundImageFix"/>
<feColorMatrix in="SourceAlpha" type="matrix" values="0 0 0 0 0 0 0 0 0 0 0 0 0 0 0 0 0 0 127 0" result="hardAlpha"/>
<feOffset/>
<feGaussianBlur stdDeviation="2"/>
<feComposite in2="hardAlpha" operator="out"/>
<feColorMatrix type="matrix" values="0 0 0 0 0 0 0 0 0 0 0 0 0 0 0 0 0 0 0.25 0"/>
<feBlend mode="normal" in2="BackgroundImageFix" result="effect1_dropShadow_7823_445"/>
<feBlend mode="normal" in="SourceGraphic" in2="effect1_dropShadow_7823_445" result="shape"/>
</filter>
<filter id="filter5_d_7823_445" x="103.025" y="5.12842" width="20.9834" height="28.8902" filterUnits="userSpaceOnUse" color-interpolation-filters="sRGB">
<feFlood flood-opacity="0" result="BackgroundImageFix"/>
<feColorMatrix in="SourceAlpha" type="matrix" values="0 0 0 0 0 0 0 0 0 0 0 0 0 0 0 0 0 0 127 0" result="hardAlpha"/>
<feOffset/>
<feGaussianBlur stdDeviation="2"/>
<feComposite in2="hardAlpha" operator="out"/>
<feColorMatrix type="matrix" values="0 0 0 0 0 0 0 0 0 0 0 0 0 0 0 0 0 0 0.25 0"/>
<feBlend mode="normal" in2="BackgroundImageFix" result="effect1_dropShadow_7823_445"/>
<feBlend mode="normal" in="SourceGraphic" in2="effect1_dropShadow_7823_445" result="shape"/>
</filter>
<filter id="filter6_d_7823_445" x="46.9316" y="-4" width="26.6123" height="31.9273" filterUnits="userSpaceOnUse" color-interpolation-filters="sRGB">
<feFlood flood-opacity="0" result="BackgroundImageFix"/>
<feColorMatrix in="SourceAlpha" type="matrix" values="0 0 0 0 0 0 0 0 0 0 0 0 0 0 0 0 0 0 127 0" result="hardAlpha"/>
<feOffset/>
<feGaussianBlur stdDeviation="2"/>
<feComposite in2="hardAlpha" operator="out"/>
<feColorMatrix type="matrix" values="0 0 0 0 0 0 0 0 0 0 0 0 0 0 0 0 0 0 0.25 0"/>
<feBlend mode="normal" in2="BackgroundImageFix" result="effect1_dropShadow_7823_445"/>
<feBlend mode="normal" in="SourceGraphic" in2="effect1_dropShadow_7823_445" result="shape"/>
</filter>
<filter id="filter7_d_7823_445" x="-4" y="-3.4163" width="24.54" height="28.0094" filterUnits="userSpaceOnUse" color-interpolation-filters="sRGB">
<feFlood flood-opacity="0" result="BackgroundImageFix"/>
<feColorMatrix in="SourceAlpha" type="matrix" values="0 0 0 0 0 0 0 0 0 0 0 0 0 0 0 0 0 0 127 0" result="hardAlpha"/>
<feOffset/>
<feGaussianBlur stdDeviation="2"/>
<feComposite in2="hardAlpha" operator="out"/>
<feColorMatrix type="matrix" values="0 0 0 0 0 0 0 0 0 0 0 0 0 0 0 0 0 0 0.25 0"/>
<feBlend mode="normal" in2="BackgroundImageFix" result="effect1_dropShadow_7823_445"/>
<feBlend mode="normal" in="SourceGraphic" in2="effect1_dropShadow_7823_445" result="shape"/>
</filter>
</defs>
</svg>
