<svg width="170" height="46" viewBox="0 0 170 46" fill="none" xmlns="http://www.w3.org/2000/svg">
<path d="M42.0338 29.1207C41.9215 29.0021 41.8204 28.9783 41.7418 29.1207C41.3676 29.5576 40.9539 29.9549 40.5065 30.3069C40.227 30.5577 39.8828 30.7147 39.5183 30.7576C38.968 30.7576 38.8108 30.0103 39.0579 28.5276L41.4499 13.641C41.4499 13.5699 41.4499 13.5106 41.2702 13.4513C41.0905 13.3919 41.0119 13.4513 40.9557 13.4513C40.6156 14.0595 40.1787 14.6012 39.6643 15.0526C39.3137 14.694 38.897 14.4154 38.4402 14.2341C37.9049 14.0047 37.3334 13.8839 36.7557 13.8783C35.4506 13.9334 34.1911 14.4003 33.1396 15.2187C31.8009 16.2184 30.6057 17.4169 29.591 18.7772C28.4866 20.2379 27.5481 21.8304 26.7947 23.5219C26.0698 25.0787 25.5882 26.749 25.3685 28.4683C25.089 29.7199 25.2528 31.0363 25.8289 32.1692C26.0791 32.5499 26.4159 32.8581 26.8084 33.0654C27.2009 33.2727 27.6364 33.3724 28.0749 33.3553C29.3484 33.2938 30.5658 32.7845 31.5337 31.9082C32.8907 30.7475 34.0328 29.332 34.9028 27.7328C35.3221 26.9667 35.6971 26.1745 36.0258 25.3605L35.5092 28.4683C35.2602 29.6473 35.3105 30.8749 35.6552 32.0268C35.8064 32.388 36.0612 32.6899 36.3836 32.8899C36.706 33.09 37.0797 33.1781 37.452 33.1418C38.2858 33.1076 39.0813 32.763 39.698 32.1692C40.5962 31.3654 41.4028 30.4538 42.1012 29.4528C42.1573 29.3579 42.1349 29.2512 42.0338 29.1207ZM34.4985 26.6653C34.0049 27.5314 33.3875 28.3117 32.668 28.9783C32.1363 29.525 31.4328 29.8459 30.6915 29.8798C30.3688 29.8643 30.0591 29.7411 29.8069 29.528C29.5547 29.3149 29.3729 29.0228 29.2877 28.6936C28.933 27.3551 28.9021 25.9439 29.1979 24.5895C29.4014 23.0813 29.8178 21.6139 30.4332 20.2362C30.9101 19.122 31.5805 18.1122 32.4097 17.2589C33.0004 16.6076 33.8031 16.2176 34.6557 16.1676C35.0358 16.1542 35.4112 16.2596 35.7349 16.4706C36.0585 16.6816 36.316 16.9888 36.475 17.3538C36.8779 18.4203 36.9641 19.5911 36.722 20.7107C36.5583 21.7407 36.2949 22.7503 35.9359 23.7236C35.5462 24.7501 35.0649 25.7351 34.4985 26.6653Z" fill="white"/>
<path d="M70.3227 29.0732C70.3027 29.0461 70.2772 29.0242 70.248 29.0091C70.2188 28.994 70.1867 28.9862 70.1542 28.9862C70.1217 28.9862 70.0896 28.994 70.0605 29.0091C70.0313 29.0242 70.0057 29.0461 69.9858 29.0732C69.5478 29.5477 69.1547 29.9391 68.8628 30.2594C68.6023 30.5374 68.2551 30.7061 67.8858 30.7339C67.7608 30.7293 67.6405 30.6833 67.5417 30.6024C67.4429 30.5215 67.3708 30.4098 67.3355 30.2831C67.1957 29.6992 67.1957 29.0878 67.3355 28.5039L68.6494 20.0939C69.0307 18.554 68.98 16.9303 68.5034 15.4203C68.3187 14.9576 68.0046 14.5655 67.6033 14.2963C67.202 14.0271 66.7324 13.8937 66.2574 13.9139C65.5151 13.9592 64.791 14.1747 64.1355 14.5455C63.48 14.9163 62.9088 15.4334 62.4617 16.0609C61.0947 17.8235 60.0408 19.8329 59.3509 21.9918L59.6542 20.0227C60.026 18.4725 59.9477 16.8399 59.4296 15.3373C59.2294 14.8903 58.9105 14.5144 58.5118 14.2554C58.113 13.9963 57.6515 13.8653 57.1835 13.8783C56.4197 13.9232 55.6745 14.1452 55.0011 14.5286C54.3276 14.9119 53.7423 15.4472 53.2867 16.0964C51.924 17.8866 50.8744 19.9191 50.1872 22.0985L50.7937 18.1248C51.0247 17.1347 50.9936 16.0965 50.7038 15.1238C50.5628 14.7736 50.3179 14.4813 50.006 14.2909C49.6941 14.1005 49.3321 14.0223 48.9744 14.0681C48.1265 14.0954 47.307 14.3977 46.6273 14.934C45.5543 15.7325 44.6005 16.6961 43.7974 17.7927C43.7524 17.8468 43.7275 17.9164 43.7275 17.9884C43.7275 18.0604 43.7524 18.13 43.7974 18.1841C43.9097 18.3265 43.9995 18.3383 44.0893 18.1841C44.4991 17.6612 44.9624 17.1879 45.4706 16.7726C45.7506 16.504 46.105 16.3377 46.4813 16.2981C47.1327 16.2981 47.3461 17.0691 47.099 18.6705L45.4033 29.2156C45.291 30.034 45.1674 30.7932 45.0102 31.493C44.9139 31.8836 44.8389 32.2796 44.7856 32.6792C44.7856 32.7741 44.8867 32.8571 45.0776 32.9402C45.4426 33.0482 45.8226 33.0883 46.2006 33.0588C47.6043 33.0588 48.3792 32.7504 48.514 32.1099C48.8935 29.2659 49.4983 26.4607 50.322 23.7236C50.8251 21.8437 51.5815 20.0501 52.568 18.3976C53.3766 17.2115 54.1402 16.5591 54.814 16.5591C55.0822 16.5721 55.3385 16.6797 55.542 16.8646C55.7456 17.0495 55.8846 17.3011 55.937 17.5792C56.1777 18.6757 56.1777 19.8158 55.937 20.9123L54.567 29.2156C54.4731 29.9814 54.342 30.7415 54.1739 31.493C54.0776 31.8836 54.0026 32.2796 53.9493 32.6792C53.9493 32.7741 54.0504 32.8571 54.2413 32.9402C54.6063 33.0482 54.9863 33.0883 55.3643 33.0588C56.8242 33.0588 57.6103 32.7504 57.6777 32.1099C58.0512 29.1723 58.6675 26.2748 59.5194 23.4508C60.0493 21.6139 60.8286 19.8679 61.8328 18.2671C62.6638 17.1166 63.3938 16.6065 64.0114 16.6065C64.6291 16.6065 64.9098 16.9742 65.1344 17.6978C65.2959 18.8129 65.2693 19.9494 65.0558 21.0547L63.8093 28.4683C63.5638 29.6043 63.5638 30.7841 63.8093 31.9201C63.9288 32.3045 64.1711 32.6331 64.4949 32.8496C64.8186 33.066 65.2035 33.1567 65.5836 33.1062C66.44 33.0846 67.2608 32.7395 67.897 32.1336C68.7886 31.3261 69.591 30.4149 70.289 29.4172C70.3357 29.3757 70.3653 29.3166 70.3715 29.2524C70.3778 29.1883 70.3603 29.124 70.3227 29.0732Z" fill="white"/>
<path d="M114.22 14.8154C114.037 14.5497 113.795 14.3359 113.515 14.1931C113.234 14.0503 112.925 13.9829 112.614 13.9969C111.979 13.964 111.357 14.1986 110.885 14.6493C110.663 14.8757 110.489 15.1493 110.375 15.4519C110.261 15.7546 110.209 16.0794 110.222 16.4049C110.197 16.9652 110.326 17.5214 110.593 18.0062L111.357 19.2873C111.642 19.8077 111.836 20.3783 111.929 20.9716C112.047 21.8923 111.986 22.8287 111.75 23.7236C111.493 24.7094 111.147 25.6668 110.716 26.5823C110.166 27.8278 109.504 29.2037 108.718 30.722C108.324 31.4693 107.92 32.2166 107.516 32.952C107.641 30.6488 107.641 28.3399 107.516 26.0366C107.384 23.9487 107.079 21.8769 106.606 19.8448C106.289 18.3364 105.714 16.9015 104.911 15.6101C104.664 15.1648 104.316 14.7915 103.898 14.5243C103.481 14.2571 103.006 14.1043 102.519 14.0799C101.57 14.151 100.664 14.5277 99.9244 15.1594C98.9429 15.8881 98.1667 16.8842 97.6784 18.0418C97.6784 18.1723 97.6784 18.2553 97.8693 18.3027C97.8974 18.3168 97.9277 18.3249 97.9587 18.3265C97.9897 18.3282 98.0206 18.3234 98.0499 18.3123C98.0791 18.3013 98.1059 18.2843 98.1289 18.2623C98.1519 18.2403 98.1705 18.2137 98.1838 18.1841C98.3941 17.7894 98.6721 17.4395 99.0036 17.1522C99.289 16.8847 99.6553 16.7333 100.037 16.7251C101.407 16.7251 102.485 18.6586 103.249 22.5137C104.088 27.7307 104.412 33.0258 104.214 38.3136C104.023 38.5745 103.844 38.8592 103.664 39.1083C103.051 40.0061 102.33 40.8155 101.519 41.5163C101.293 41.7358 101.024 41.9005 100.731 41.9988C100.438 42.0972 100.128 42.1268 99.8234 42.0856C99.3163 41.9502 98.8316 41.7342 98.3859 41.4451C97.9135 41.1391 97.3678 40.9827 96.8137 40.9943C96.225 40.9517 95.644 41.1555 95.1964 41.5617C94.7488 41.9679 94.4705 42.5439 94.4217 43.165C94.3145 43.5593 94.31 43.9768 94.4089 44.3735C94.5077 44.7702 94.7062 45.1314 94.9832 45.4188C95.5177 45.8167 96.1601 46.0206 96.8137 46C97.8426 45.918 98.8227 45.5039 99.6212 44.8138C100.828 43.8615 101.934 42.7759 102.923 41.5756C104.13 40.1002 105.255 38.5516 106.292 36.9376C107.415 35.2216 108.485 33.4344 109.504 31.5761C110.522 29.7177 111.454 27.891 112.3 26.0959C113.011 24.476 113.63 22.8123 114.153 21.114C114.551 19.886 114.778 18.6034 114.827 17.3064C114.874 16.4297 114.662 15.5592 114.22 14.8154Z" fill="white"/>
<path d="M133.278 29.1207C133.165 29.0021 133.064 28.9783 132.986 29.1207C132.611 29.5576 132.198 29.9549 131.75 30.3069C131.471 30.5577 131.127 30.7147 130.762 30.7576C130.212 30.7576 130.055 30.0103 130.302 28.5276L132.694 13.641C132.694 13.5699 132.694 13.5106 132.514 13.4513C132.334 13.3919 132.256 13.4513 132.2 13.4513C131.856 14.0568 131.419 14.5979 130.908 15.0526C130.562 14.677 130.145 14.382 129.684 14.1867C129.148 13.9583 128.577 13.8376 128 13.8308C126.694 13.8859 125.435 14.3528 124.383 15.1712C123.045 16.171 121.849 17.3695 120.835 18.7297C119.73 20.1905 118.792 21.7829 118.038 23.4745C117.309 25.046 116.827 26.7328 116.612 28.4683C116.316 29.7397 116.485 31.0823 117.084 32.2285C117.333 32.6108 117.669 32.9203 118.062 33.1277C118.455 33.3352 118.891 33.4339 119.33 33.4146C120.603 33.3532 121.821 32.8438 122.789 31.9675C124.146 30.8068 125.288 29.3913 126.158 27.7922C126.577 27.026 126.952 26.2338 127.281 25.4198L126.753 28.4683C126.504 29.6473 126.554 30.8749 126.899 32.0268C127.05 32.388 127.305 32.6899 127.627 32.8899C127.95 33.09 128.323 33.1781 128.696 33.1418C129.53 33.1117 130.327 32.7666 130.942 32.1692C131.847 31.3692 132.657 30.4572 133.356 29.4528C133.401 29.3579 133.379 29.2512 133.278 29.1207ZM125.776 26.6653C125.282 27.5314 124.665 28.3117 123.945 28.9783C123.413 29.5232 122.71 29.8437 121.969 29.8798C121.646 29.8643 121.337 29.7411 121.084 29.528C120.832 29.3149 120.65 29.0228 120.565 28.6937C120.207 27.3476 120.176 25.9278 120.475 24.5657C120.688 23.0582 121.108 21.5916 121.722 20.2125C122.199 19.0983 122.869 18.0885 123.698 17.2352C124.289 16.5839 125.092 16.1939 125.944 16.1439C126.323 16.1297 126.697 16.2349 127.019 16.4461C127.341 16.6574 127.597 16.9651 127.752 17.3301C128.184 18.4138 128.278 19.6141 128.022 20.7581C127.844 21.7528 127.574 22.7263 127.213 23.6643C126.822 24.709 126.341 25.7136 125.776 26.6653Z" fill="white"/>
<path d="M152.863 29.0732C152.75 28.9546 152.649 28.9546 152.571 29.0732C152.133 29.5477 151.728 29.9391 151.38 30.2594C151.11 30.5365 150.756 30.7044 150.381 30.7339C150.256 30.7293 150.135 30.6833 150.037 30.6024C149.938 30.5215 149.866 30.4098 149.83 30.2831C149.691 29.6992 149.691 29.0878 149.83 28.5039L151.189 20.0939C151.555 18.5246 151.485 16.8774 150.987 15.3491C150.773 14.8673 150.425 14.4653 149.99 14.1964C149.555 13.9275 149.053 13.8041 148.55 13.8427C147.775 13.8845 147.017 14.1046 146.33 14.4878C145.644 14.8709 145.045 15.4078 144.575 16.0609C143.111 17.9279 141.991 20.0683 141.273 22.3713V22.4662L141.947 18.0892C142.178 17.0991 142.147 16.0609 141.857 15.0882C141.715 14.7392 141.469 14.448 141.158 14.2579C140.846 14.0677 140.485 13.9887 140.128 14.0325C139.28 14.0598 138.46 14.3621 137.781 14.8984C136.753 15.7187 135.845 16.6938 135.085 17.7927C135.04 17.8468 135.016 17.9164 135.016 17.9884C135.016 18.0604 135.04 18.13 135.085 18.1841C135.198 18.3265 135.288 18.3383 135.366 18.1841C135.782 17.6669 136.244 17.1941 136.747 16.7726C137.03 16.5081 137.383 16.3424 137.758 16.2981C138.421 16.2981 138.634 17.0691 138.387 18.6704L136.691 29.2156C136.579 30.034 136.456 30.7932 136.298 31.493C136.202 31.8836 136.127 32.2796 136.074 32.6792C136.074 32.7741 136.164 32.8571 136.366 32.9402C136.731 33.0482 137.111 33.0883 137.489 33.0588C138.892 33.0588 139.656 32.7504 139.802 32.1099C140.191 29.2168 140.811 26.3638 141.655 23.5812C142.193 21.7031 142.999 19.923 144.047 18.3027C144.9 17.1166 145.709 16.5116 146.484 16.5116C147.719 16.5116 148.094 17.9943 147.607 20.9598L146.383 28.4683C146.121 29.6023 146.121 30.786 146.383 31.9201C146.502 32.3001 146.741 32.6254 147.06 32.8414C147.379 33.0574 147.758 33.1509 148.135 33.1062C149.006 33.0896 149.842 32.7446 150.493 32.1336C151.384 31.3286 152.183 30.417 152.874 29.4172C152.91 29.3673 152.928 29.3058 152.926 29.2431C152.924 29.1805 152.902 29.1205 152.863 29.0732Z" fill="white"/>
<path d="M169.764 13.9969C168.851 14.0235 167.948 14.2078 167.091 14.5426C166.609 14.7091 166.14 14.9153 165.688 15.1594C164.871 14.5023 163.86 14.1742 162.835 14.2342C161.688 14.2311 160.56 14.5373 159.556 15.1238C158.502 15.7377 157.595 16.5992 156.906 17.642C156.216 18.6847 155.763 19.8807 155.581 21.1377C155.381 22.2737 155.408 23.4413 155.659 24.5658C155.875 25.5601 156.377 26.4593 157.097 27.1398C157.485 27.4944 157.941 27.7572 158.433 27.9108C157.905 28.3853 157.422 28.8479 156.996 29.2868C156.365 29.901 155.926 30.7037 155.738 31.5879C155.664 31.8927 155.653 32.2109 155.707 32.5203C155.762 32.8297 155.879 33.1228 156.052 33.3791C156.366 33.8165 156.746 34.1971 157.175 34.5059C156.042 35.2213 154.954 36.0137 153.919 36.8783C152.752 37.7916 151.951 39.1329 151.673 40.6385C151.52 41.5696 151.696 42.5275 152.167 43.3311C152.707 44.2144 153.491 44.9016 154.413 45.3002C155.596 45.8204 156.871 46.0671 158.152 46.0237C159.592 46.0345 161.022 45.7734 162.375 45.2527C163.607 44.7789 164.726 44.0259 165.654 43.0464C166.524 42.125 167.087 40.9305 167.26 39.6421C167.414 38.6665 167.281 37.6645 166.878 36.7715C166.527 35.9882 166.008 35.3018 165.362 34.7669C164.691 34.1731 163.965 33.6525 163.195 33.213C162.408 32.786 161.667 32.3708 160.949 31.9557C160.336 31.6109 159.779 31.1666 159.298 30.639C159.097 30.4039 158.948 30.1242 158.862 29.8204C158.777 29.5166 158.757 29.1965 158.804 28.8835C158.835 28.5669 158.927 28.2603 159.073 27.982C159.326 28.0203 159.581 28.0401 159.837 28.0413C160.932 28.0365 162.009 27.7429 162.97 27.1872C164.066 26.5715 165.012 25.6966 165.735 24.6307C166.458 23.5648 166.937 22.3369 167.136 21.0428C167.374 19.9219 167.374 18.7594 167.136 17.6385C166.993 17.0135 166.733 16.4248 166.373 15.9067C166.587 15.9128 166.802 15.9366 167.013 15.9778C167.896 16.1313 168.731 16.5054 169.45 17.0691C169.528 17.1284 169.618 17.0691 169.697 16.7133C169.79 16.354 169.865 15.9897 169.921 15.622C169.989 15.2308 170.02 14.8334 170.011 14.4358C169.978 14.163 169.91 13.9969 169.764 13.9969ZM159.522 35.8819C160.245 36.2565 160.947 36.6763 161.622 37.1393C162.261 37.5616 162.821 38.1044 163.273 38.7406C163.713 39.3962 163.923 40.1929 163.868 40.9943C163.853 41.8596 163.565 42.6946 163.049 43.3667C162.69 43.79 162.241 44.1179 161.74 44.324C161.238 44.5301 160.698 44.6085 160.162 44.5529C159.255 44.5703 158.358 44.3416 157.557 43.8886C156.815 43.456 156.204 42.8104 155.794 42.0263C155.368 41.184 155.206 40.2201 155.334 39.2744C155.42 38.4669 155.665 37.6873 156.052 36.9851C156.418 36.3476 156.864 35.765 157.377 35.2532L157.759 34.9092C158.343 35.2177 158.893 35.5854 159.522 35.8819ZM163.588 21.5054C163.517 22.9009 163.185 24.2677 162.611 25.5266C162.105 26.5348 161.488 27.0449 160.949 27.0449C160.712 27.0218 160.485 26.9356 160.289 26.7946C160.092 26.6535 159.933 26.4621 159.826 26.2383C159.455 25.5577 159.225 24.8016 159.152 24.0201C159.032 22.9364 159.032 21.8418 159.152 20.7581C159.239 19.3792 159.574 18.0306 160.14 16.7844C160.668 15.7169 161.263 15.1712 161.836 15.1712C162.122 15.1859 162.397 15.2943 162.622 15.4813C162.848 15.6683 163.012 15.9248 163.094 16.2151C163.398 17.0132 163.576 17.8587 163.621 18.7179C163.689 19.6463 163.678 20.5792 163.588 21.5054Z" fill="white"/>
<path d="M98.454 0C97.8925 0 97.2412 0 96.5112 0.0711707C95.7813 0.142341 95.0176 0.142341 94.2652 0.142341C93.5128 0.142341 92.7267 0.142341 92.0192 0.0711707C91.3117 0 90.6042 0 90.054 0C89.9754 0 89.9304 0.0948943 89.9304 0.296545C89.9304 0.498195 89.9304 0.581227 90.054 0.581227C91.0085 0.581227 91.6037 0.818463 91.8171 1.28107C92.0348 2.17995 92.0348 3.12226 91.8171 4.02115L90.0652 17.1877H81.0138L81.9796 10.4265C82.0563 9.70582 82.1992 8.99472 82.4063 8.30325C82.5401 7.86278 82.8244 7.49068 83.2037 7.25941C83.6972 7.04228 84.2307 6.945 84.7646 6.97473C84.7646 6.97473 84.8432 6.86797 84.8432 6.67818C84.8432 6.4884 84.8432 6.38164 84.7646 6.38164C84.2144 6.38164 83.5518 6.38164 82.8106 6.46467C82.0694 6.5477 81.2833 6.53584 80.4748 6.53584C79.6662 6.53584 78.9475 6.53584 78.2288 6.46467C77.51 6.3935 76.9148 6.3935 76.3646 6.3935C76.3646 6.3935 76.286 6.50026 76.286 6.69005C76.286 6.87983 76.286 6.98659 76.3646 6.98659C77.3304 6.98659 77.9368 7.2001 78.1838 7.63899C78.4691 8.50303 78.4965 9.43872 78.2625 10.3198L75.118 32.7622C75.034 33.4909 74.872 34.2072 74.6352 34.8974C74.5659 35.1085 74.4578 35.3032 74.3171 35.4701C74.1765 35.637 74.0059 35.7729 73.8154 35.87C73.3189 36.0572 72.792 36.1378 72.2656 36.1073C72.187 36.1073 72.1533 36.214 72.1533 36.4038C72.1533 36.5936 72.1533 36.6885 72.2656 36.6885C72.8159 36.6885 73.456 36.6885 74.1635 36.6885C74.871 36.6885 75.6234 36.6885 76.4095 36.6885C77.1956 36.6885 78.0266 36.6885 78.7566 36.6885C79.4865 36.6885 80.1379 36.6885 80.6994 36.6885C80.778 36.6885 80.8117 36.5936 80.8117 36.4038C80.8117 36.214 80.8117 36.1073 80.6994 36.1073C79.7336 36.1073 79.1384 35.9056 78.8913 35.4786C78.6446 34.5919 78.6446 33.6489 78.8913 32.7622L80.879 18.5281H89.8406L88.7176 26.345C88.639 27.0725 88.4846 27.7885 88.2572 28.4801C88.1965 28.689 88.0966 28.8827 87.9635 29.0498C87.8304 29.2169 87.6667 29.354 87.4823 29.4528C86.9771 29.6359 86.4436 29.7164 85.9101 29.69C85.9101 29.69 85.8315 29.7849 85.8315 29.9747C85.8315 30.1645 85.8315 30.2713 85.9101 30.2713C86.4828 30.2713 87.1454 30.2713 87.8866 30.2713C88.6278 30.2713 89.3914 30.2713 90.2 30.2713C91.0085 30.2713 91.7834 30.2713 92.5133 30.2713C93.2433 30.2713 93.8609 30.2713 94.3438 30.2713C94.4224 30.2713 94.4561 30.1764 94.4561 29.9747C94.4561 29.7731 94.4561 29.69 94.3438 29.69C93.4005 29.69 92.8053 29.4765 92.5583 29.0614C92.2668 28.1877 92.2277 27.2422 92.446 26.345L95.6353 3.92625C95.7418 3.21641 95.9071 2.51783 96.1294 1.83858C96.2635 1.41317 96.5496 1.0599 96.9267 0.854049C97.4117 0.649442 97.9323 0.556433 98.454 0.581227C98.454 0.581227 98.5214 0.486333 98.5214 0.296545C98.5214 0.106756 98.4989 0 98.454 0Z" fill="#9BD4B9"/>
<path d="M22.7408 7.94738C22.0779 5.85304 20.7992 4.03697 19.091 2.76378C17.2559 1.47326 15.0842 0.822034 12.8808 0.901483C12.1307 0.898691 11.381 0.938287 10.6348 1.0201C9.88861 1.10077 9.13893 1.14037 8.38882 1.13872C7.64764 1.18617 6.86154 1.115 6.14282 1.06755C5.4241 1.0201 4.77276 0.996377 4.1888 0.996377C4.1888 0.996377 4.11019 1.09127 4.11019 1.29292C4.11019 1.49457 4.11019 1.5776 4.1888 1.5776H5.74977C6.26658 4.00239 6.64163 6.45846 6.87277 8.93191C6.87277 9.24823 6.89523 9.59222 6.94015 9.96389C6.65419 8.97492 6.1321 8.08032 5.4241 7.36616C4.50069 6.59391 3.35642 6.17569 2.17862 6.17998C2.43199 7.43972 3.03392 8.59159 3.90805 9.48942C4.79136 10.2389 5.88588 10.6563 7.01876 10.6756C7.09737 12.1465 7.11983 13.8546 7.01876 15.622C6.74401 14.4752 6.17239 13.432 5.36795 12.6091C4.44454 11.8368 3.30027 11.4186 2.12247 11.4229C2.36324 12.7081 2.96606 13.8865 3.8519 14.8035C4.7511 15.5557 5.86058 15.9728 7.00753 15.9897C7.00753 17.3775 6.86154 18.8009 6.69309 20.1769C6.42027 19.1448 5.89328 18.2075 5.16581 17.4605C4.2424 16.6883 3.09813 16.2701 1.92033 16.2744C2.1611 17.5596 2.76392 18.7379 3.64976 19.655C4.50675 20.3888 5.56793 20.8055 6.67063 20.8411C6.2102 24.2573 5.32303 27.2821 3.71714 28.6225C3.515 28.7767 1.77434 29.868 1.52728 29.9984L0.24706 30.7101H0.12353C0 30.7101 0 30.8406 0 30.9948C0 31.149 0 31.2914 0.12353 31.2914C0.696261 31.2914 1.33637 31.2914 2.03263 31.2914C2.72889 31.2914 3.50377 31.2914 4.33479 31.2914C5.16581 31.2914 5.97437 31.2914 6.884 31.4337C7.79363 31.5761 8.55727 31.5761 9.13 31.5761C10.7237 31.5665 12.2958 31.1858 13.7343 30.4611C15.3186 29.6393 16.7521 28.5268 17.968 27.1753C19.3458 25.7065 20.4842 24.0071 21.337 22.1459C22.2776 20.0927 22.903 17.8945 23.19 15.6338C23.6246 13.0706 23.4705 10.4347 22.7408 7.94738ZM18.9338 16.7014C18.6225 19.2914 17.9369 21.8156 16.9012 24.1862C16.124 26.0404 14.9334 27.6683 13.4311 28.9309C12.1624 29.9782 10.5942 30.5387 8.98401 30.5204L6.17651 30.4492C6.20068 30.2889 6.23444 30.1305 6.27758 29.9747L6.38988 29.3105C6.59202 28.1243 6.86154 26.8195 7.13106 25.5977C7.26582 25.0046 7.38935 24.4115 7.52411 23.7829C7.69256 22.7983 7.83855 21.8138 7.95085 20.8174C8.99044 20.7381 9.98204 20.3241 10.792 19.6312C11.6734 18.7107 12.2755 17.5338 12.5215 16.2506C11.3404 16.2474 10.1929 16.6654 9.26476 17.4368C8.79266 17.895 8.41101 18.4473 8.14176 19.0619C8.2316 18.0418 8.28775 17.0216 8.32144 16.0015C9.33105 15.9092 10.2904 15.4956 11.0728 14.8154C11.9542 13.8948 12.5562 12.718 12.8022 11.4347C11.6212 11.4315 10.4737 11.8495 9.54551 12.6209C9.05325 13.1014 8.65295 13.6772 8.36636 14.3172C8.36636 13.131 8.36636 11.8618 8.36636 10.6519C9.34999 10.5525 10.2838 10.1481 11.0503 9.48942C11.9317 8.56884 12.5337 7.39201 12.7798 6.10881C11.5987 6.10558 10.4512 6.52353 9.52305 7.29499C8.96798 7.84931 8.5348 8.52551 8.25406 9.2759C8.1193 6.64259 7.86101 4.0923 7.63641 1.69622C9.70273 1.77925 12.0049 1.87415 12.5439 1.87415C13.9077 1.80477 15.2463 2.27892 16.2948 3.20267C17.285 4.16776 18.0105 5.39711 18.3948 6.76121C18.8692 8.31557 19.1339 9.93283 19.1809 11.5652C19.2422 13.2816 19.1595 15.0004 18.9338 16.7014Z" fill="white"/>
</svg>
