<svg width="15" height="15" viewBox="0 0 15 15" fill="none" xmlns="http://www.w3.org/2000/svg">
<path fill-rule="evenodd" clip-rule="evenodd" d="M8.988 1.18794C9.05325 1.30649 9.06975 1.4587 9.102 1.76314C9.1635 2.33835 9.19425 2.62595 9.32325 2.78449C9.40362 2.88292 9.51043 2.95969 9.63281 3.007C9.75519 3.05432 9.88878 3.07048 10.02 3.05385C10.23 3.0279 10.47 2.84481 10.9485 2.47864C11.2012 2.28434 11.328 2.18753 11.4637 2.14685C11.6366 2.09518 11.8237 2.1039 11.9902 2.1714C12.1215 2.22471 12.2378 2.33274 12.468 2.54879L13.1385 3.17591C13.3695 3.39196 13.485 3.49999 13.542 3.62274C13.6142 3.77851 13.6235 3.95347 13.5682 4.11518C13.5247 4.24214 13.4212 4.36069 13.2142 4.59709C12.822 5.04533 12.6263 5.2691 12.5978 5.46621C12.5802 5.5889 12.5977 5.71374 12.6484 5.82807C12.6991 5.9424 12.7812 6.04215 12.8865 6.11718C13.0552 6.23783 13.3635 6.26659 13.9792 6.32411C14.304 6.35427 14.4667 6.36971 14.5942 6.43073C14.7551 6.50874 14.8803 6.63855 14.9468 6.7962C15 6.92036 15 7.07328 15 7.37912V8.26578C15 8.57162 15 8.72454 14.9475 8.848C14.8808 9.00615 14.755 9.13627 14.5935 9.21417C14.4668 9.2752 14.304 9.29063 13.9785 9.3208C13.3635 9.37832 13.056 9.40708 12.8865 9.52773C12.7813 9.6029 12.6992 9.7028 12.6486 9.81726C12.598 9.93172 12.5807 10.0567 12.5985 10.1794C12.627 10.3758 12.8227 10.6003 13.2142 11.0478C13.4212 11.2842 13.5247 11.4021 13.5682 11.5297C13.6235 11.6914 13.6142 11.8664 13.542 12.0222C13.485 12.1449 13.3695 12.2529 13.1385 12.469L12.468 13.0954C12.237 13.3122 12.1215 13.4202 11.9902 13.4728C11.8237 13.5403 11.6366 13.549 11.4637 13.4974C11.328 13.4567 11.2012 13.3599 10.9485 13.1663C10.4692 12.8001 10.23 12.617 10.02 12.5911C9.88878 12.5744 9.75519 12.5906 9.63281 12.6379C9.51043 12.6852 9.40362 12.762 9.32325 12.8604C9.19425 13.0183 9.1635 13.3059 9.102 13.8818C9.06975 14.1862 9.05325 14.3384 8.988 14.457C8.90489 14.6079 8.76605 14.7256 8.59725 14.7881C8.4645 14.8372 8.301 14.8372 7.974 14.8372H7.026C6.699 14.8372 6.5355 14.8372 6.4035 14.7881C6.23442 14.7257 6.0953 14.6081 6.012 14.457C5.94675 14.3384 5.93025 14.1862 5.898 13.8818C5.8365 13.3066 5.80575 13.019 5.67675 12.8604C5.59644 12.7621 5.48976 12.6854 5.36753 12.6381C5.24529 12.5908 5.11185 12.5746 4.98075 12.5911C4.77 12.617 4.53075 12.8001 4.0515 13.1663C3.79875 13.3606 3.672 13.4574 3.53625 13.4981C3.36336 13.5497 3.17629 13.541 3.00975 13.4735C2.8785 13.4202 2.76225 13.3122 2.532 13.0961L1.8615 12.469C1.6305 12.2529 1.515 12.1449 1.458 12.0222C1.38583 11.8664 1.3765 11.6914 1.43175 11.5297C1.47525 11.4028 1.57875 11.2842 1.78575 11.0478C2.178 10.5996 2.37375 10.3758 2.4015 10.1787C2.41914 10.0561 2.40179 9.93127 2.35121 9.81694C2.30063 9.70262 2.21862 9.60284 2.1135 9.52773C1.94475 9.40708 1.6365 9.37832 1.02075 9.3208C0.696 9.29063 0.53325 9.2752 0.40575 9.21417C0.244911 9.13617 0.119697 9.00635 0.0532501 8.84871C7.26432e-08 8.72454 0 8.57162 0 8.26578V7.37912C0 7.07328 -5.02914e-08 6.92036 0.0524999 6.7969C0.119165 6.63876 0.244961 6.50864 0.4065 6.43073C0.53325 6.36971 0.696 6.35427 1.0215 6.32411C1.6365 6.26659 1.94475 6.23783 2.1135 6.11718C2.21876 6.04215 2.30091 5.9424 2.35163 5.82807C2.40234 5.71374 2.41981 5.5889 2.40225 5.46621C2.37375 5.2691 2.17725 5.04533 1.78575 4.59639C1.57875 4.35999 1.47525 4.24214 1.43175 4.11448C1.3765 3.95277 1.38583 3.77781 1.458 3.62204C1.515 3.49999 1.6305 3.39126 1.8615 3.1752L2.532 2.54879C2.763 2.33274 2.8785 2.22401 3.00975 2.1714C3.17629 2.1039 3.36336 2.09518 3.53625 2.14685C3.672 2.18753 3.79875 2.28434 4.0515 2.47794C4.53075 2.84411 4.77 3.02719 4.98 3.05385C5.11141 3.07053 5.2452 3.05432 5.36773 3.00688C5.49026 2.95944 5.59715 2.88246 5.6775 2.78378C5.805 2.62595 5.8365 2.33835 5.898 1.76244C5.93025 1.4587 5.94675 1.30649 6.012 1.18724C6.09526 1.03654 6.23407 0.919163 6.40275 0.856842C6.5355 0.807739 6.699 0.807739 7.026 0.807739H7.974C8.301 0.807739 8.4645 0.807739 8.5965 0.856842C8.76558 0.919194 8.9047 1.03685 8.988 1.18794ZM7.5 10.6283C8.29565 10.6283 9.05871 10.3327 9.62132 9.80651C10.1839 9.28031 10.5 8.56662 10.5 7.82245C10.5 7.07829 10.1839 6.3646 9.62132 5.83839C9.05871 5.31219 8.29565 5.01657 7.5 5.01657C6.70435 5.01657 5.94129 5.31219 5.37868 5.83839C4.81607 6.3646 4.5 7.07829 4.5 7.82245C4.5 8.56662 4.81607 9.28031 5.37868 9.80651C5.94129 10.3327 6.70435 10.6283 7.5 10.6283Z" fill="#9BD4B9"/>
</svg>
