<svg width="20" height="20" viewBox="0 0 20 20" fill="none" xmlns="http://www.w3.org/2000/svg">
<g clip-path="url(#clip0_7823_359)">
<path d="M3.93264 8.9863V4.84546H2.52199C2.14786 4.84546 1.78905 5.00906 1.5245 5.30027C1.25995 5.59148 1.11133 5.98644 1.11133 6.39827V15.7152C1.11203 15.8113 1.13703 15.9053 1.18354 15.9867C1.23005 16.068 1.29623 16.1335 1.37465 16.1758C1.45021 16.2136 1.53351 16.2288 1.6161 16.2197C1.69869 16.2106 1.77762 16.1776 1.84487 16.1241L4.2665 14.1623H10.5862C10.7645 14.1681 10.9419 14.1336 11.1075 14.0609C11.2731 13.9881 11.4233 13.8787 11.549 13.7395C11.6746 13.6002 11.7729 13.434 11.8378 13.2513C11.9028 13.0685 11.9329 12.8729 11.9264 12.6768V12.0919H6.75396C6.0057 12.0919 5.28809 11.7647 4.75899 11.1823C4.22989 10.5999 3.93264 9.80996 3.93264 8.9863Z" fill="#9BD4B9"/>
<path d="M14.7481 1.22223H6.75441C6.38028 1.22223 6.02147 1.38583 5.75692 1.67704C5.49237 1.96825 5.34375 2.36321 5.34375 2.77504V8.9863C5.34375 9.39813 5.49237 9.7931 5.75692 10.0843C6.02147 10.3755 6.38028 10.5391 6.75441 10.5391H13.1259L15.3735 12.4594C15.4403 12.5138 15.5191 12.5477 15.6017 12.5577C15.6843 12.5677 15.7678 12.5535 15.8438 12.5164C15.9238 12.4744 15.9914 12.4084 16.0388 12.326C16.0862 12.2436 16.1115 12.1481 16.1118 12.0505V2.77504C16.112 2.37202 15.9698 1.98471 15.7154 1.69494C15.4609 1.40517 15.1141 1.23566 14.7481 1.22223Z" fill="#9BD4B9"/>
</g>
<defs>
<clipPath id="clip0_7823_359">
<rect width="20" height="20" fill="white"/>
</clipPath>
</defs>
</svg>
