<svg width="12" height="12" viewBox="0 0 12 12" fill="none" xmlns="http://www.w3.org/2000/svg">
<g clip-path="url(#clip0_7823_364)">
<path d="M10.8 0H1.2C0.88174 0 0.576516 0.126428 0.351472 0.351472C0.126428 0.576516 0 0.88174 0 1.2L0 12L2.4 9.6H10.8C11.1183 9.6 11.4235 9.47357 11.6485 9.24853C11.8736 9.02348 12 8.71826 12 8.4V1.2C12 0.88174 11.8736 0.576516 11.6485 0.351472C11.4235 0.126428 11.1183 0 10.8 0ZM8.4 2.4C8.578 2.4 8.75201 2.45278 8.90001 2.55168C9.04802 2.65057 9.16337 2.79113 9.23149 2.95559C9.29961 3.12004 9.31743 3.301 9.28271 3.47558C9.24798 3.65016 9.16226 3.81053 9.0364 3.9364C8.91053 4.06226 8.75016 4.14798 8.57558 4.18271C8.401 4.21743 8.22004 4.19961 8.05559 4.13149C7.89113 4.06337 7.75057 3.94802 7.65168 3.80001C7.55278 3.65201 7.5 3.478 7.5 3.3C7.5 3.06131 7.59482 2.83239 7.7636 2.6636C7.93239 2.49482 8.16131 2.4 8.4 2.4ZM3.6 2.4C3.778 2.4 3.95201 2.45278 4.10001 2.55168C4.24802 2.65057 4.36337 2.79113 4.43149 2.95559C4.49961 3.12004 4.51743 3.301 4.48271 3.47558C4.44798 3.65016 4.36226 3.81053 4.2364 3.9364C4.11053 4.06226 3.95016 4.14798 3.77558 4.18271C3.601 4.21743 3.42004 4.19961 3.25559 4.13149C3.09113 4.06337 2.95057 3.94802 2.85168 3.80001C2.75278 3.65201 2.7 3.478 2.7 3.3C2.7 3.06131 2.79482 2.83239 2.9636 2.6636C3.13239 2.49482 3.36131 2.4 3.6 2.4ZM6 7.2C4.434 7.2 3.102 6.798 2.61 5.4H9.39C8.898 6.798 7.566 7.2 6 7.2Z" fill="#3E3E3E"/>
</g>
<defs>
<clipPath id="clip0_7823_364">
<rect width="12" height="12" fill="white"/>
</clipPath>
</defs>
</svg>
