<svg width="217" height="59" viewBox="0 0 217 59" fill="none" xmlns="http://www.w3.org/2000/svg">
<g clip-path="url(#clip0_7823_336)">
<path d="M53.6547 37.3503C53.5113 37.1981 53.3823 37.1677 53.2819 37.3503C52.8043 37.9107 52.2761 38.4202 51.7051 38.8717C51.3483 39.1934 50.909 39.3947 50.4437 39.4498C49.7413 39.4498 49.5406 38.4913 49.8559 36.5896L52.9092 17.496C52.9092 17.4047 52.9092 17.3286 52.6799 17.2526C52.4505 17.1765 52.3502 17.2526 52.2785 17.2526C51.8443 18.0327 51.2867 18.7275 50.63 19.3065C50.1825 18.8466 49.6506 18.4892 49.0675 18.2567C48.3842 17.9624 47.6547 17.8075 46.9173 17.8003C45.2514 17.871 43.6437 18.4698 42.3015 19.5194C40.5926 20.8017 39.067 22.339 37.7717 24.0837C36.362 25.9572 35.164 27.9997 34.2023 30.1693C33.2771 32.166 32.6623 34.3084 32.3818 36.5135C32.0251 38.1189 32.2342 39.8073 32.9696 41.2603C33.2889 41.7487 33.7189 42.144 34.2198 42.4099C34.7208 42.6757 35.2768 42.8036 35.8365 42.7817C37.4621 42.7028 39.0161 42.0495 40.2516 40.9256C41.9837 39.4369 43.4417 37.6213 44.5521 35.5702C45.0873 34.5876 45.566 33.5715 45.9855 32.5274L45.3261 36.5135C45.0083 38.0258 45.0726 39.6003 45.5125 41.0777C45.7056 41.541 46.0308 41.9282 46.4423 42.1847C46.8538 42.4413 47.3308 42.5543 47.8061 42.5078C48.8704 42.4639 49.8859 42.022 50.673 41.2603C51.8196 40.2294 52.8491 39.0602 53.7407 37.7763C53.8123 37.6546 53.7837 37.5176 53.6547 37.3503ZM44.036 34.201C43.406 35.3119 42.6178 36.3127 41.6994 37.1677C41.0208 37.8689 40.1227 38.2805 39.1765 38.324C38.7646 38.3041 38.3693 38.1461 38.0474 37.8727C37.7254 37.5994 37.4934 37.2247 37.3847 36.8026C36.9319 35.0857 36.8925 33.2757 37.27 31.5385C37.5298 29.6042 38.0613 27.7221 38.8468 25.955C39.4556 24.526 40.3114 23.2307 41.3697 22.1363C42.1237 21.301 43.1485 20.8007 44.2367 20.7366C44.7219 20.7193 45.2011 20.8545 45.6142 21.1252C46.0273 21.3958 46.356 21.7899 46.5589 22.258C47.0733 23.6259 47.1833 25.1276 46.8743 26.5635C46.6654 27.8847 46.3291 29.1796 45.8709 30.4279C45.3735 31.7446 44.7591 33.0079 44.036 34.201Z" fill="white"/>
<path d="M89.7643 37.2891C89.7388 37.2544 89.7062 37.2262 89.669 37.2069C89.6317 37.1875 89.5908 37.1775 89.5493 37.1775C89.5078 37.1775 89.4669 37.1875 89.4296 37.2069C89.3923 37.2262 89.3597 37.2544 89.3343 37.2891C88.7752 37.8977 88.2735 38.3997 87.9008 38.8105C87.5683 39.1671 87.1251 39.3834 86.6537 39.4191C86.4942 39.4132 86.3406 39.3542 86.2145 39.2504C86.0884 39.1467 85.9963 39.0034 85.9513 38.841C85.7729 38.092 85.7729 37.3078 85.9513 36.5589L87.6284 25.7721C88.1152 23.7971 88.0505 21.7145 87.4421 19.7778C87.2062 19.1843 86.8054 18.6814 86.2931 18.3361C85.7808 17.9909 85.1815 17.8197 84.5751 17.8456C83.6276 17.9037 82.7033 18.1802 81.8666 18.6557C81.0299 19.1313 80.3008 19.7945 79.73 20.5993C77.9851 22.8602 76.6398 25.4373 75.7592 28.2064L76.1463 25.6808C76.6209 23.6925 76.521 21.5986 75.8596 19.6713C75.6041 19.098 75.197 18.6158 74.688 18.2836C74.179 17.9513 73.59 17.7833 72.9926 17.8C72.0175 17.8575 71.0664 18.1423 70.2067 18.634C69.347 19.1257 68.5999 19.8123 68.0184 20.645C66.279 22.9411 64.9392 25.548 64.062 28.3433L64.8361 23.2466C65.131 21.9766 65.0913 20.6451 64.7214 19.3974C64.5415 18.9483 64.2288 18.5734 63.8307 18.3292C63.4325 18.085 62.9704 17.9847 62.5139 18.0434C61.4315 18.0784 60.3855 18.4662 59.5179 19.154C58.1483 20.1782 56.9307 21.4141 55.9055 22.8206C55.8481 22.89 55.8164 22.9792 55.8164 23.0716C55.8164 23.164 55.8481 23.2532 55.9055 23.3226C56.0489 23.5052 56.1636 23.5204 56.2782 23.3226C56.8013 22.652 57.3926 22.0448 58.0414 21.5122C58.3988 21.1677 58.8511 20.9544 59.3316 20.9036C60.163 20.9036 60.4353 21.8925 60.12 23.9464L57.9554 37.4717C57.8121 38.5215 57.6544 39.4952 57.4537 40.3928C57.3308 40.8937 57.2351 41.4016 57.167 41.9142C57.167 42.0359 57.296 42.1424 57.5397 42.2489C58.0056 42.3875 58.4907 42.4389 58.9732 42.401C60.765 42.401 61.7541 42.0055 61.9262 41.1839C62.4106 37.5363 63.1826 33.9382 64.2341 30.4276C64.8763 28.0165 65.8418 25.7159 67.101 23.5965C68.1331 22.0751 69.1079 21.2383 69.968 21.2383C70.3103 21.2551 70.6374 21.3931 70.8972 21.6302C71.1571 21.8674 71.3346 22.19 71.4015 22.5467C71.7087 23.9531 71.7087 25.4155 71.4015 26.8219L69.6526 37.4717C69.5329 38.4539 69.3654 39.4289 69.1509 40.3928C69.028 40.8937 68.9322 41.4016 68.8642 41.9142C68.8642 42.0359 68.9932 42.1424 69.2369 42.2489C69.7028 42.3875 70.1878 42.4389 70.6704 42.401C72.5339 42.401 73.5373 42.0055 73.6233 41.1839C74.1002 37.4161 74.8868 33.6999 75.9742 30.0777C76.6507 27.7217 77.6453 25.4822 78.9272 23.4291C79.988 21.9534 80.9197 21.2992 81.7082 21.2992C82.4966 21.2992 82.8549 21.7708 83.1416 22.6989C83.3478 24.1291 83.3138 25.5868 83.0413 27.0044L81.4501 36.5132C81.1369 37.9702 81.1369 39.4835 81.4501 40.9405C81.6027 41.4336 81.9121 41.8551 82.3253 42.1327C82.7385 42.4102 83.2298 42.5266 83.715 42.4619C84.8082 42.4342 85.8559 41.9916 86.668 41.2143C87.8061 40.1787 88.8304 39.01 89.7213 37.7303C89.7809 37.677 89.8187 37.6012 89.8267 37.5189C89.8347 37.4367 89.8124 37.3543 89.7643 37.2891Z" fill="white"/>
<path d="M145.799 19.0019C145.566 18.6611 145.256 18.387 144.898 18.2038C144.541 18.0206 144.146 17.9342 143.749 17.9522C142.938 17.9099 142.144 18.2108 141.542 18.7889C141.259 19.0793 141.037 19.4302 140.891 19.8184C140.745 20.2065 140.679 20.6231 140.696 21.0406C140.664 21.7593 140.828 22.4727 141.169 23.0945L142.144 24.7376C142.508 25.4051 142.756 26.137 142.875 26.898C143.025 28.0789 142.947 29.2798 142.646 30.4277C142.318 31.6921 141.877 32.9201 141.327 34.0942C140.624 35.6917 139.779 37.4565 138.775 39.4039C138.273 40.3624 137.757 41.3209 137.241 42.2642C137.4 39.31 137.4 36.3486 137.241 33.3944C137.073 30.7164 136.684 28.059 136.08 25.4527C135.675 23.518 134.941 21.6776 133.916 20.0213C133.601 19.45 133.157 18.9713 132.624 18.6286C132.09 18.2858 131.485 18.0899 130.862 18.0587C129.651 18.1497 128.495 18.633 127.551 19.4431C126.298 20.3778 125.307 21.6554 124.684 23.1401C124.684 23.3075 124.684 23.414 124.928 23.4748C124.963 23.4929 125.002 23.5032 125.042 23.5054C125.081 23.5075 125.121 23.5013 125.158 23.4871C125.195 23.473 125.23 23.4512 125.259 23.423C125.288 23.3948 125.312 23.3607 125.329 23.3227C125.598 22.8165 125.952 22.3676 126.376 21.9991C126.74 21.656 127.207 21.4619 127.694 21.4514C129.443 21.4514 130.819 23.9313 131.794 28.8758C132.866 35.5672 133.279 42.3588 133.027 49.1409C132.783 49.4756 132.554 49.8408 132.324 50.1603C131.542 51.3117 130.622 52.3499 129.587 53.2487C129.298 53.5303 128.954 53.7415 128.58 53.8677C128.206 53.9938 127.811 54.0318 127.422 53.979C126.775 53.8053 126.156 53.5283 125.587 53.1574C124.984 52.765 124.288 52.5643 123.58 52.5793C122.829 52.5246 122.087 52.786 121.516 53.307C120.944 53.828 120.589 54.5667 120.527 55.3634C120.39 55.8691 120.384 56.4046 120.511 56.9135C120.637 57.4223 120.89 57.8855 121.244 58.2541C121.926 58.7645 122.746 59.0261 123.58 58.9996C124.894 58.8945 126.145 58.3633 127.164 57.4782C128.704 56.2567 130.117 54.8643 131.378 53.3248C132.92 51.4325 134.356 49.4462 135.679 47.3761C137.112 45.1751 138.479 42.8829 139.779 40.4993C141.078 38.1158 142.268 35.7729 143.348 33.4705C144.256 31.3927 145.046 29.2589 145.713 27.0806C146.221 25.5055 146.511 23.8604 146.573 22.1969C146.634 21.0725 146.363 19.956 145.799 19.0019Z" fill="white"/>
<path d="M170.126 37.3503C169.982 37.1982 169.853 37.1677 169.753 37.3503C169.275 37.9107 168.747 38.4202 168.176 38.8717C167.819 39.1934 167.38 39.3947 166.915 39.4498C166.212 39.4498 166.012 38.4913 166.327 36.5896L169.38 17.496C169.38 17.4047 169.38 17.3286 169.151 17.2526C168.922 17.1765 168.821 17.2526 168.75 17.2526C168.311 18.0293 167.754 18.7233 167.101 19.3065C166.659 18.8247 166.127 18.4464 165.539 18.1958C164.855 17.9029 164.126 17.7481 163.388 17.7394C161.722 17.8101 160.115 18.4089 158.773 19.4586C157.064 20.7409 155.538 22.2781 154.243 24.0228C152.833 25.8964 151.635 27.9388 150.673 30.1084C149.742 32.1241 149.127 34.2876 148.853 36.5135C148.475 38.1443 148.69 39.8663 149.455 41.3364C149.772 41.8268 150.202 42.2237 150.703 42.4898C151.205 42.7559 151.762 42.8825 152.322 42.8578C153.947 42.7789 155.501 42.1256 156.737 41.0017C158.469 39.513 159.927 37.6974 161.037 35.6463C161.573 34.6637 162.051 33.6476 162.471 32.6035L161.797 36.5135C161.479 38.0258 161.544 39.6003 161.984 41.0777C162.177 41.541 162.502 41.9282 162.913 42.1847C163.325 42.4413 163.802 42.5543 164.277 42.5078C165.343 42.4692 166.36 42.0266 167.144 41.2603C168.299 40.2343 169.334 39.0645 170.226 37.7763C170.283 37.6546 170.255 37.5176 170.126 37.3503ZM160.55 34.201C159.92 35.3119 159.132 36.3127 158.213 37.1677C157.533 37.8665 156.636 38.2777 155.691 38.324C155.279 38.3041 154.883 38.1461 154.561 37.8727C154.239 37.5994 154.007 37.2247 153.899 36.8026C153.441 35.0762 153.402 33.255 153.784 31.5081C154.055 29.5746 154.591 27.6935 155.375 25.9246C155.984 24.4955 156.84 23.2003 157.898 22.1058C158.652 21.2705 159.677 20.7703 160.765 20.7061C161.249 20.6879 161.726 20.8229 162.137 21.0938C162.548 21.3648 162.874 21.7594 163.073 22.2275C163.623 23.6175 163.744 25.1571 163.417 26.6244C163.19 27.9001 162.845 29.1488 162.385 30.3518C161.886 31.6919 161.272 32.9804 160.55 34.201Z" fill="white"/>
<path d="M195.125 37.2898C194.982 37.1376 194.852 37.1376 194.752 37.2898C194.193 37.8983 193.677 38.4004 193.233 38.8112C192.888 39.1665 192.436 39.3819 191.957 39.4197C191.797 39.4139 191.644 39.3548 191.518 39.2511C191.392 39.1473 191.3 39.004 191.254 38.8416C191.076 38.0927 191.076 37.3084 191.254 36.5595L192.989 25.7728C193.456 23.76 193.366 21.6472 192.731 19.6871C192.457 19.0691 192.014 18.5536 191.458 18.2086C190.903 17.8637 190.262 17.7055 189.62 17.755C188.63 17.8086 187.663 18.0909 186.787 18.5823C185.91 19.0737 185.146 19.7623 184.546 20.6C182.677 22.9946 181.247 25.74 180.331 28.6939V28.8156L181.191 23.2016C181.486 21.9316 181.447 20.6001 181.077 19.3524C180.895 18.9048 180.582 18.5314 180.184 18.2875C179.787 18.0435 179.325 17.9422 178.869 17.9984C177.787 18.0335 176.741 18.4212 175.873 19.109C174.561 20.1611 173.402 21.4118 172.433 22.8212C172.375 22.8906 172.344 22.9799 172.344 23.0723C172.344 23.1647 172.375 23.2539 172.433 23.3233C172.576 23.5059 172.691 23.5211 172.791 23.3233C173.322 22.6599 173.912 22.0535 174.554 21.5128C174.915 21.1736 175.366 20.9611 175.845 20.9043C176.69 20.9043 176.963 21.8932 176.647 23.9471L174.483 37.4723C174.339 38.5221 174.182 39.4958 173.981 40.3934C173.858 40.8943 173.762 41.4023 173.694 41.9148C173.694 42.0366 173.809 42.1431 174.067 42.2496C174.533 42.3881 175.018 42.4396 175.501 42.4017C177.292 42.4017 178.267 42.0061 178.453 41.1846C178.95 37.474 179.741 33.8146 180.819 30.2457C181.505 27.8368 182.535 25.5536 183.872 23.4754C184.962 21.954 185.994 21.1781 186.983 21.1781C188.56 21.1781 189.037 23.0799 188.416 26.8834L186.854 36.5139C186.52 37.9684 186.52 39.4866 186.854 40.9411C187.005 41.4286 187.31 41.8459 187.717 42.1229C188.125 42.3999 188.609 42.5199 189.09 42.4625C190.201 42.4412 191.269 41.9987 192.1 41.215C193.237 40.1825 194.257 39.0134 195.139 37.731C195.185 37.6669 195.208 37.588 195.206 37.5077C195.203 37.4273 195.175 37.3504 195.125 37.2898Z" fill="white"/>
<path d="M216.699 17.9521C215.533 17.9862 214.381 18.2226 213.287 18.652C212.671 18.8656 212.072 19.1301 211.495 19.4431C210.453 18.6003 209.162 18.1795 207.854 18.2564C206.39 18.2525 204.949 18.6452 203.668 19.3975C202.322 20.1849 201.165 21.2899 200.285 22.6273C199.405 23.9647 198.827 25.4987 198.594 27.111C198.339 28.5681 198.373 30.0656 198.694 31.5078C198.97 32.7832 199.611 33.9366 200.529 34.8093C201.025 35.2641 201.606 35.6012 202.235 35.7982C201.561 36.4068 200.945 37.0001 200.4 37.563C199.595 38.3509 199.035 39.3804 198.795 40.5146C198.7 40.9054 198.686 41.3135 198.756 41.7103C198.825 42.1072 198.975 42.4831 199.196 42.8119C199.597 43.3729 200.081 43.8611 200.629 44.2572C199.183 45.1747 197.794 46.1911 196.472 47.3C194.983 48.4714 193.96 50.1918 193.605 52.1229C193.411 53.3172 193.635 54.5457 194.236 55.5764C194.926 56.7094 195.927 57.5907 197.103 58.102C198.614 58.7692 200.241 59.0856 201.877 59.03C203.714 59.0438 205.54 58.7089 207.266 58.0411C208.84 57.4334 210.268 56.4675 211.452 55.2113C212.563 54.0295 213.282 52.4974 213.502 50.8449C213.699 49.5936 213.529 48.3084 213.015 47.1631C212.566 46.1583 211.904 45.278 211.079 44.5919C210.223 43.8303 209.296 43.1626 208.313 42.5989C207.309 42.0512 206.363 41.5187 205.446 40.9862C204.664 40.544 203.953 39.9742 203.339 39.2974C203.082 38.9959 202.892 38.6371 202.783 38.2475C202.674 37.8579 202.648 37.4472 202.708 37.0458C202.748 36.6397 202.865 36.2465 203.052 35.8895C203.375 35.9386 203.701 35.9641 204.027 35.9656C205.425 35.9594 206.8 35.5829 208.026 34.8701C209.425 34.0805 210.633 32.9582 211.555 31.5911C212.478 30.224 213.09 28.6491 213.344 26.9893C213.648 25.5516 213.648 24.0605 213.344 22.6229C213.161 21.8212 212.83 21.0661 212.37 20.4016C212.644 20.4094 212.917 20.44 213.187 20.4929C214.314 20.6897 215.38 21.1696 216.297 21.8926C216.398 21.9687 216.512 21.8926 216.613 21.4362C216.732 20.9753 216.827 20.5081 216.899 20.0365C216.986 19.5348 217.025 19.025 217.014 18.5151C216.971 18.1651 216.885 17.9521 216.699 17.9521ZM203.625 46.022C204.548 46.5024 205.443 47.041 206.306 47.6347C207.121 48.1764 207.835 48.8726 208.413 49.6886C208.975 50.5295 209.243 51.5514 209.173 52.5793C209.154 53.689 208.785 54.7601 208.126 55.6221C207.668 56.165 207.096 56.5856 206.456 56.8499C205.816 57.1143 205.126 57.2148 204.442 57.1435C203.283 57.1659 202.138 56.8725 201.117 56.2915C200.169 55.7367 199.389 54.9086 198.866 53.9029C198.322 52.8225 198.116 51.5862 198.278 50.3732C198.389 49.3375 198.702 48.3376 199.196 47.4369C199.663 46.6193 200.232 45.8721 200.887 45.2157L201.375 44.7745C202.12 45.17 202.823 45.6417 203.625 46.022ZM208.815 27.5826C208.725 29.3725 208.301 31.1255 207.567 32.7402C206.922 34.0334 206.134 34.6876 205.446 34.6876C205.144 34.6579 204.854 34.5475 204.603 34.3665C204.353 34.1856 204.149 33.9401 204.012 33.653C203.539 32.7801 203.246 31.8103 203.152 30.808C203 29.4181 203 28.0141 203.152 26.6241C203.264 24.8556 203.692 23.1257 204.414 21.5274C205.088 20.1582 205.847 19.4583 206.578 19.4583C206.944 19.4771 207.295 19.6161 207.582 19.856C207.87 20.0959 208.08 20.4248 208.184 20.7972C208.572 21.8209 208.8 22.9054 208.858 24.0073C208.944 25.1981 208.93 26.3946 208.815 27.5826Z" fill="white"/>
<path d="M125.673 0C124.956 0 124.125 0 123.193 0.0912842C122.261 0.182568 121.286 0.182568 120.326 0.182568C119.365 0.182568 118.362 0.182568 117.459 0.0912842C116.556 0 115.653 0 114.95 0C114.85 0 114.793 0.121712 114.793 0.380351C114.793 0.638989 114.793 0.745487 114.95 0.745487C116.169 0.745487 116.928 1.04977 117.201 1.64311C117.479 2.79603 117.479 4.00464 117.201 5.15756L114.965 22.0451H103.411L104.644 13.3731C104.741 12.4488 104.924 11.5367 105.188 10.6498C105.359 10.0849 105.722 9.60761 106.206 9.31098C106.836 9.03249 107.517 8.90771 108.199 8.94585C108.199 8.94585 108.299 8.80892 108.299 8.5655C108.299 8.32207 108.299 8.18515 108.199 8.18515C107.496 8.18515 106.65 8.18515 105.704 8.29164C104.758 8.39814 103.755 8.38293 102.723 8.38293C101.691 8.38293 100.773 8.38293 99.8557 8.29164C98.9383 8.20036 98.1785 8.20036 97.4761 8.20036C97.4761 8.20036 97.3758 8.33729 97.3758 8.58071C97.3758 8.82414 97.3758 8.96106 97.4761 8.96106C98.7089 8.96106 99.483 9.23491 99.7984 9.79783C100.162 10.9061 100.198 12.1062 99.8987 13.2362L95.885 42.0211C95.7776 42.9558 95.5709 43.8745 95.2686 44.7597C95.1802 45.0305 95.0422 45.2802 94.8627 45.4943C94.6831 45.7084 94.4654 45.8827 94.2221 46.0072C93.5884 46.2472 92.9158 46.3507 92.2439 46.3115C92.1436 46.3115 92.1006 46.4484 92.1006 46.6919C92.1006 46.9353 92.1006 47.057 92.2439 47.057C92.9463 47.057 93.7634 47.057 94.6665 47.057C95.5696 47.057 96.53 47.057 97.5335 47.057C98.5369 47.057 99.5977 47.057 100.529 47.057C101.461 47.057 102.293 47.057 103.009 47.057C103.11 47.057 103.153 46.9353 103.153 46.6919C103.153 46.4484 103.153 46.3115 103.009 46.3115C101.777 46.3115 101.017 46.0529 100.701 45.5052C100.386 44.3679 100.386 43.1584 100.701 42.0211L103.239 23.7643H114.678L113.244 33.7904C113.144 34.7234 112.947 35.6418 112.657 36.5289C112.579 36.7967 112.452 37.0452 112.282 37.2596C112.112 37.4739 111.903 37.6497 111.668 37.7764C111.023 38.0113 110.342 38.1146 109.661 38.0807C109.661 38.0807 109.56 38.2024 109.56 38.4458C109.56 38.6893 109.56 38.8262 109.661 38.8262C110.392 38.8262 111.238 38.8262 112.184 38.8262C113.13 38.8262 114.104 38.8262 115.137 38.8262C116.169 38.8262 117.158 38.8262 118.09 38.8262C119.021 38.8262 119.81 38.8262 120.426 38.8262C120.526 38.8262 120.569 38.7045 120.569 38.4458C120.569 38.1872 120.569 38.0807 120.426 38.0807C119.222 38.0807 118.462 37.8069 118.147 37.2744C117.775 36.1538 117.725 34.9411 118.004 33.7904L122.075 5.03584C122.211 4.1254 122.422 3.22939 122.705 2.35817C122.877 1.81255 123.242 1.35944 123.723 1.09541C124.342 0.83298 125.007 0.713686 125.673 0.745487C125.673 0.745487 125.759 0.623775 125.759 0.380351C125.759 0.136926 125.73 0 125.673 0Z" fill="#9BD4B9"/>
<path d="M29.0279 10.1929C28.1818 7.50669 26.5496 5.1774 24.3691 3.54439C22.0266 1.88916 19.2546 1.05389 16.442 1.15579C15.4845 1.15221 14.5275 1.20299 13.575 1.30793C12.6225 1.4114 11.6656 1.46218 10.7081 1.46007C9.76199 1.52093 8.75855 1.42964 7.84113 1.36879C6.9237 1.30793 6.09228 1.2775 5.34688 1.2775C5.34688 1.2775 5.24653 1.39921 5.24653 1.65785C5.24653 1.91649 5.24653 2.02299 5.34688 2.02299H7.33941C7.99911 5.13303 8.47784 8.28322 8.77289 11.4557C8.77289 11.8614 8.80156 12.3026 8.8589 12.7793C8.49388 11.5109 7.82744 10.3634 6.9237 9.44744C5.745 8.45695 4.28437 7.92054 2.78095 7.92603C3.10436 9.5418 3.87271 11.0192 4.98851 12.1707C6.11603 13.1321 7.51315 13.6674 8.95924 13.6921C9.05958 15.5787 9.08825 17.7695 8.95924 20.0364C8.60853 18.5656 7.87888 17.2275 6.85203 16.172C5.67332 15.1815 4.21269 14.6451 2.70927 14.6506C3.0166 16.2991 3.78609 17.8104 4.91683 18.9866C6.06464 19.9515 7.48085 20.4864 8.94491 20.508C8.94491 22.2881 8.75855 24.1138 8.54353 25.8786C8.19529 24.5548 7.5226 23.3526 6.594 22.3946C5.4153 21.4041 3.95467 20.8677 2.45125 20.8732C2.75858 22.5216 3.52806 24.033 4.65881 25.2092C5.75273 26.1504 7.1073 26.6848 8.51486 26.7306C7.92714 31.1122 6.79469 34.9918 4.74481 36.711C4.48679 36.9088 2.2649 38.3084 1.94953 38.4758L0.315365 39.3886H0.157683C0 39.3886 0 39.556 0 39.7538C0 39.9516 0 40.1341 0.157683 40.1341C0.888757 40.1341 1.70584 40.1341 2.5946 40.1341C3.48335 40.1341 4.47245 40.1341 5.53323 40.1341C6.594 40.1341 7.62611 40.1341 8.78722 40.3167C9.94834 40.4993 10.9231 40.4993 11.6542 40.4993C13.6885 40.487 15.6953 39.9987 17.5314 39.0691C19.5538 38.0151 21.3836 36.5882 22.9357 34.8549C24.6944 32.9709 26.1475 30.7913 27.2361 28.4041C28.4366 25.7706 29.235 22.9512 29.6013 20.0516C30.1561 16.764 29.9595 13.3831 29.0279 10.1929ZM24.1684 21.4209C23.771 24.7428 22.896 27.9805 21.5739 31.0209C20.5818 33.3992 19.0621 35.4872 17.1444 37.1065C15.5249 38.4499 13.5231 39.1688 11.4678 39.1452L7.88413 39.0539C7.91499 38.8484 7.95808 38.6451 8.01315 38.4454L8.15649 37.5934C8.41452 36.072 8.75855 34.3984 9.10259 32.8314C9.27461 32.0707 9.43229 31.31 9.60431 30.5036C9.81933 29.2409 10.0057 27.9781 10.149 26.7001C11.476 26.5984 12.7418 26.0674 13.7757 25.1787C14.9008 23.998 15.6693 22.4886 15.9833 20.8427C14.4757 20.8386 13.011 21.3747 11.8262 22.3641C11.2236 22.9518 10.7364 23.6602 10.3927 24.4485C10.5074 23.1401 10.5791 21.8317 10.6221 20.5232C11.9108 20.4049 13.1354 19.8744 14.1341 19.0018C15.2592 17.8211 16.0276 16.3117 16.3417 14.6658C14.8341 14.6617 13.3693 15.1978 12.1846 16.1873C11.5562 16.8035 11.0452 17.542 10.6794 18.3629C10.6794 16.8415 10.6794 15.2136 10.6794 13.6617C11.935 13.5343 13.127 13.0155 14.1054 12.1707C15.2305 10.99 15.999 9.4806 16.313 7.83475C14.8054 7.83061 13.3407 8.36668 12.1559 9.35615C11.4474 10.0671 10.8944 10.9344 10.5361 11.8969C10.3641 8.51938 10.0344 5.24836 9.74765 2.17513C12.3853 2.28163 15.3239 2.40334 16.012 2.40334C17.7527 2.31436 19.4615 2.9225 20.7998 4.10731C22.0638 5.34514 22.9899 6.92192 23.4804 8.67152C24.086 10.6652 24.4238 12.7395 24.4838 14.8332C24.5621 17.0347 24.4566 19.2392 24.1684 21.4209Z" fill="white"/>
</g>
<defs>
<clipPath id="clip0_7823_336">
<rect width="217" height="59" fill="white"/>
</clipPath>
</defs>
</svg>
