<svg width="55" height="55" viewBox="0 0 55 55" fill="none" xmlns="http://www.w3.org/2000/svg">
<path d="M33.983 27.3813L37.2235 24.1409L27.4999 14.415L17.7764 24.1386L21.0191 27.379L25.2082 23.1921V40.4644H29.7916V23.1921L33.983 27.3813Z" fill="white"/>
<path fill-rule="evenodd" clip-rule="evenodd" d="M45.3245 9.67574C35.4795 -0.169258 19.5204 -0.169258 9.67538 9.67574C-0.169624 19.5207 -0.169624 35.4799 9.67538 45.3249C19.5204 55.1699 35.4795 55.1699 45.3245 45.3249C55.1695 35.4799 55.1695 19.5207 45.3245 9.67574ZM42.0841 12.9162C38.2162 9.0482 32.9701 6.8752 27.5 6.8752C22.0298 6.8752 16.7838 9.0482 12.9158 12.9162C9.04783 16.7841 6.87483 22.0302 6.87483 27.5003C6.87483 32.9705 9.04783 38.2165 12.9158 42.0845C16.7838 45.9525 22.0298 48.1255 27.5 48.1255C32.9701 48.1255 38.2162 45.9525 42.0841 42.0845C45.9521 38.2165 48.1251 32.9704 48.1251 27.5003C48.1251 22.0302 45.9521 16.7841 42.0841 12.9162Z" fill="white"/>
</svg>
