<svg width="184" height="50" viewBox="0 0 184 50" fill="none" xmlns="http://www.w3.org/2000/svg">
<g clip-path="url(#clip0_7788_22)">
<path d="M45.4956 31.6529C45.374 31.524 45.2646 31.4982 45.1796 31.6529C44.7745 32.1278 44.3267 32.5597 43.8425 32.9422C43.5399 33.2149 43.1675 33.3855 42.7729 33.4322C42.1773 33.4322 42.0071 32.6199 42.2745 31.0082L44.8635 14.8272C44.8635 14.7499 44.8635 14.6854 44.6691 14.6209C44.4746 14.5565 44.3895 14.6209 44.3287 14.6209C43.9606 15.2821 43.4877 15.8709 42.9309 16.3615C42.5514 15.9718 42.1005 15.669 41.606 15.4719C41.0266 15.2225 40.4081 15.0912 39.7828 15.0851C38.3703 15.145 37.007 15.6525 35.8689 16.542C34.4199 17.6287 33.1263 18.9315 32.028 20.41C30.8327 21.9978 29.8169 23.7287 29.0015 25.5673C28.2169 27.2594 27.6956 29.075 27.4578 30.9438C27.1554 32.3043 27.3326 33.7351 27.9561 34.9665C28.2269 35.3804 28.5915 35.7154 29.0163 35.9407C29.4411 36.166 29.9125 36.2744 30.3871 36.2558C31.7655 36.189 33.0832 35.6353 34.1308 34.6828C35.5995 33.4212 36.8357 31.8826 37.7773 30.1444C38.2311 29.3117 38.637 28.4505 38.9927 27.5658L38.4336 30.9438C38.1641 32.2254 38.2186 33.5597 38.5916 34.8118C38.7554 35.2043 39.0311 35.5325 39.38 35.7499C39.729 35.9674 40.1334 36.0631 40.5364 36.0237C41.4389 35.9865 42.3 35.612 42.9674 34.9665C43.9396 34.0928 44.8126 33.102 45.5685 32.0139C45.6293 31.9108 45.605 31.7947 45.4956 31.6529ZM37.3397 28.984C36.8055 29.9255 36.1372 30.7736 35.3584 31.4982C34.783 32.0924 34.0215 32.4412 33.2192 32.4781C32.8699 32.4612 32.5347 32.3273 32.2617 32.0957C31.9887 31.864 31.792 31.5465 31.6998 31.1888C31.3159 29.7338 31.2825 28.1999 31.6026 26.7277C31.8229 25.0884 32.2735 23.4934 32.9396 21.9959C33.4559 20.7848 34.1815 19.6872 35.0789 18.7597C35.7182 18.0518 36.5871 17.6278 37.5099 17.5735C37.9213 17.5589 38.3276 17.6735 38.6779 17.9028C39.0282 18.1322 39.3068 18.4661 39.4789 18.8628C39.9151 20.0221 40.0083 21.2947 39.7463 22.5116C39.5692 23.6312 39.2841 24.7286 38.8955 25.7865C38.4737 26.9023 37.9528 27.973 37.3397 28.984Z" fill="white"/>
<path d="M76.1136 31.6014C76.092 31.572 76.0644 31.5481 76.0328 31.5317C76.0012 31.5153 75.9665 31.5068 75.9313 31.5068C75.8961 31.5068 75.8614 31.5153 75.8298 31.5317C75.7982 31.5481 75.7706 31.572 75.749 31.6014C75.2749 32.1172 74.8495 32.5426 74.5335 32.8908C74.2516 33.193 73.8758 33.3762 73.476 33.4065C73.3408 33.4015 73.2105 33.3515 73.1036 33.2635C72.9967 33.1756 72.9186 33.0542 72.8804 32.9165C72.7292 32.2819 72.7292 31.6172 72.8804 30.9826L74.3026 21.8412C74.7153 20.1675 74.6604 18.4026 74.1445 16.7613C73.9446 16.2584 73.6047 15.8322 73.1703 15.5396C72.7359 15.247 72.2277 15.102 71.7136 15.1239C70.9101 15.1731 70.1264 15.4074 69.4169 15.8104C68.7075 16.2134 68.0892 16.7755 67.6052 17.4575C66.1257 19.3735 64.985 21.5575 64.2383 23.9042L64.5665 21.7639C64.9689 20.0788 64.8842 18.3044 64.3234 16.6711C64.1068 16.1852 63.7617 15.7766 63.3301 15.495C62.8984 15.2135 62.399 15.0711 61.8925 15.0852C61.0657 15.134 60.2592 15.3753 59.5302 15.792C58.8013 16.2087 58.1678 16.7905 57.6747 17.4962C56.1998 19.4421 55.0638 21.6513 54.32 24.0202L54.9764 19.701C55.2264 18.6247 55.1928 17.4963 54.8791 16.439C54.7265 16.0584 54.4614 15.7406 54.1238 15.5337C53.7862 15.3267 53.3944 15.2417 53.0073 15.2915C52.0895 15.3212 51.2026 15.6498 50.4669 16.2327C49.3056 17.1006 48.2731 18.148 47.4039 19.34C47.3552 19.3988 47.3283 19.4744 47.3283 19.5527C47.3283 19.631 47.3552 19.7066 47.4039 19.7654C47.5254 19.9202 47.6227 19.933 47.7199 19.7654C48.1634 19.1971 48.6648 18.6825 49.215 18.2311C49.518 17.9392 49.9015 17.7584 50.3089 17.7154C51.0139 17.7154 51.2448 18.5535 50.9774 20.2941L49.142 31.7561C49.0205 32.6458 48.8868 33.4709 48.7166 34.2316C48.6124 34.6561 48.5312 35.0866 48.4735 35.521C48.4735 35.6241 48.5829 35.7144 48.7895 35.8046C49.1846 35.9221 49.5959 35.9657 50.005 35.9336C51.5244 35.9336 52.3631 35.5983 52.5089 34.9021C52.9197 31.8109 53.5743 28.7617 54.4659 25.7866C55.0104 23.7433 55.8291 21.7936 56.8968 19.9975C57.772 18.7082 58.5985 17.9991 59.3278 17.9991C59.618 18.0133 59.8954 18.1302 60.1157 18.3312C60.336 18.5322 60.4866 18.8056 60.5433 19.1079C60.8038 20.2997 60.8038 21.539 60.5433 22.7309L59.0604 31.7561C58.9588 32.5885 58.8168 33.4148 58.635 34.2316C58.5307 34.6561 58.4496 35.0866 58.3919 35.521C58.3919 35.6241 58.5013 35.7144 58.7079 35.8046C59.1029 35.9221 59.5142 35.9657 59.9234 35.9336C61.5035 35.9336 62.3543 35.5983 62.4273 34.9021C62.8316 31.7091 63.4986 28.5597 64.4207 25.49C64.9942 23.4934 65.8376 21.5956 66.9246 19.8557C67.824 18.605 68.6141 18.0506 69.2826 18.0506C69.9511 18.0506 70.255 18.4503 70.4981 19.2368C70.6729 20.4489 70.6441 21.6842 70.413 22.8856L69.0638 30.9439C68.7982 32.1786 68.7982 33.461 69.0638 34.6958C69.1932 35.1137 69.4555 35.4709 69.8059 35.7061C70.1563 35.9414 70.5729 36.04 70.9843 35.9851C71.9112 35.9616 72.7996 35.5865 73.4882 34.9279C74.4532 34.0502 75.3217 33.0598 76.0772 31.9753C76.1277 31.9301 76.1597 31.8659 76.1665 31.7962C76.1733 31.7264 76.1544 31.6566 76.1136 31.6014Z" fill="white"/>
<path d="M123.627 16.1036C123.429 15.8148 123.166 15.5825 122.863 15.4273C122.56 15.2721 122.225 15.1988 121.889 15.214C121.201 15.1782 120.528 15.4332 120.017 15.9231C119.777 16.1692 119.589 16.4666 119.465 16.7955C119.342 17.1245 119.285 17.4775 119.3 17.8313C119.272 18.4404 119.412 19.045 119.701 19.5719L120.527 20.9644C120.836 21.5301 121.046 22.1503 121.147 22.7952C121.275 23.796 121.208 24.8137 120.953 25.7865C120.675 26.8581 120.301 27.8987 119.835 28.8937C119.239 30.2475 118.522 31.7431 117.671 33.3935C117.246 34.2058 116.808 35.018 116.37 35.8174C116.505 33.3139 116.505 30.8042 116.37 28.3007C116.227 26.0311 115.898 23.7792 115.386 21.5704C115.042 19.9308 114.42 18.3711 113.551 16.9675C113.284 16.4834 112.907 16.0777 112.455 15.7872C112.003 15.4968 111.49 15.3308 110.962 15.3043C109.935 15.3814 108.955 15.791 108.154 16.4775C107.091 17.2696 106.251 18.3524 105.723 19.6106C105.723 19.7524 105.723 19.8427 105.929 19.8943C105.96 19.9095 105.993 19.9183 106.026 19.9201C106.06 19.9219 106.093 19.9167 106.125 19.9047C106.156 19.8927 106.186 19.8742 106.21 19.8503C106.235 19.8264 106.255 19.7975 106.27 19.7653C106.497 19.3363 106.798 18.9559 107.157 18.6436C107.466 18.3529 107.862 18.1883 108.275 18.1795C109.758 18.1795 110.925 20.2811 111.752 24.4714C112.661 30.142 113.011 35.8976 112.797 41.6452C112.59 41.9288 112.396 42.2382 112.201 42.509C111.538 43.4848 110.758 44.3647 109.88 45.1263C109.635 45.365 109.344 45.544 109.027 45.6509C108.71 45.7578 108.374 45.79 108.044 45.7452C107.496 45.598 106.971 45.3633 106.489 45.049C105.977 44.7164 105.387 44.5463 104.787 44.559C104.15 44.5127 103.521 44.7342 103.036 45.1757C102.552 45.6172 102.251 46.2433 102.198 46.9185C102.082 47.347 102.077 47.8009 102.184 48.2321C102.291 48.6632 102.506 49.0558 102.806 49.3682C103.384 49.8007 104.079 50.0224 104.787 50C105.9 49.9109 106.961 49.4608 107.826 48.7107C109.131 47.6755 110.329 46.4955 111.399 45.1908C112.706 43.5871 113.924 41.9039 115.046 40.1495C116.261 38.2843 117.42 36.3417 118.522 34.3218C119.624 32.3019 120.633 30.3163 121.548 28.3651C122.319 26.6043 122.988 24.796 123.554 22.95C123.985 21.6152 124.231 20.221 124.283 18.8112C124.334 17.8583 124.105 16.9122 123.627 16.1036Z" fill="white"/>
<path d="M144.254 31.6529C144.132 31.524 144.023 31.4982 143.938 31.6529C143.533 32.1278 143.085 32.5597 142.601 32.9422C142.298 33.2149 141.926 33.3855 141.531 33.4322C140.935 33.4322 140.765 32.6199 141.033 31.0082L143.622 14.8272C143.622 14.7499 143.622 14.6854 143.427 14.6209C143.233 14.5565 143.148 14.6209 143.087 14.6209C142.715 15.2792 142.242 15.8673 141.689 16.3615C141.314 15.9532 140.863 15.6326 140.364 15.4203C139.784 15.1721 139.166 15.0409 138.541 15.0335C137.128 15.0934 135.765 15.6009 134.627 16.4905C133.178 17.5771 131.884 18.8799 130.786 20.3584C129.591 21.9462 128.575 23.6771 127.76 25.5157C126.97 27.2239 126.449 29.0574 126.216 30.9438C125.896 32.3258 126.078 33.7851 126.726 35.0309C126.996 35.4466 127.36 35.7829 127.785 36.0084C128.21 36.2339 128.682 36.3412 129.157 36.3203C130.536 36.2534 131.853 35.6998 132.901 34.7473C134.37 33.4857 135.606 31.947 136.547 30.2089C137.001 29.3761 137.407 28.515 137.763 27.6302L137.192 30.9438C136.922 32.2254 136.977 33.5597 137.35 34.8118C137.513 35.2043 137.789 35.5325 138.138 35.7499C138.487 35.9674 138.892 36.0631 139.294 36.0237C140.198 35.991 141.06 35.6159 141.725 34.9665C142.705 34.0969 143.582 33.1056 144.339 32.0139C144.387 31.9108 144.363 31.7947 144.254 31.6529ZM136.134 28.984C135.6 29.9255 134.932 30.7736 134.153 31.4982C133.576 32.0904 132.816 32.4388 132.014 32.4781C131.664 32.4612 131.329 32.3273 131.056 32.0957C130.783 31.864 130.587 31.5465 130.494 31.1888C130.106 29.7257 130.073 28.1823 130.397 26.7019C130.627 25.0633 131.082 23.4692 131.746 21.9701C132.263 20.7591 132.988 19.6614 133.886 18.7339C134.525 18.026 135.394 17.602 136.317 17.5477C136.727 17.5323 137.132 17.6466 137.48 17.8762C137.829 18.1059 138.105 18.4403 138.273 18.837C138.74 20.015 138.842 21.3197 138.565 22.5632C138.373 23.6443 138.08 24.7025 137.69 25.722C137.267 26.8577 136.746 27.9496 136.134 28.984Z" fill="white"/>
<path d="M165.452 31.6013C165.33 31.4723 165.221 31.4723 165.136 31.6013C164.662 32.117 164.224 32.5425 163.847 32.8906C163.555 33.1917 163.172 33.3743 162.765 33.4063C162.63 33.4013 162.5 33.3513 162.393 33.2634C162.286 33.1754 162.208 33.054 162.17 32.9164C162.019 32.2817 162.019 31.6171 162.17 30.9824L163.641 21.8411C164.036 20.1354 163.96 18.3449 163.422 16.6838C163.19 16.16 162.814 15.7231 162.343 15.4308C161.872 15.1385 161.328 15.0044 160.784 15.0463C159.945 15.0918 159.125 15.3311 158.382 15.7475C157.638 16.1639 156.99 16.7475 156.481 17.4574C154.897 19.4867 153.684 21.8133 152.908 24.3166V24.4197L153.637 19.6621C153.887 18.5859 153.854 17.4575 153.54 16.4001C153.386 16.0208 153.12 15.7043 152.783 15.4976C152.446 15.2909 152.055 15.205 151.668 15.2526C150.75 15.2823 149.863 15.611 149.128 16.1938C148.015 17.0854 147.033 18.1454 146.211 19.3398C146.162 19.3986 146.135 19.4742 146.135 19.5525C146.135 19.6308 146.162 19.7064 146.211 19.7653C146.332 19.92 146.429 19.9329 146.514 19.7653C146.964 19.2031 147.465 18.6892 148.01 18.231C148.315 17.9435 148.697 17.7634 149.103 17.7152C149.821 17.7152 150.052 18.5533 149.784 20.2939L147.949 31.756C147.827 32.6456 147.693 33.4708 147.523 34.2315C147.419 34.656 147.338 35.0865 147.28 35.5208C147.28 35.624 147.377 35.7142 147.596 35.8045C147.991 35.9219 148.403 35.9655 148.812 35.9334C150.331 35.9334 151.158 35.5982 151.316 34.9019C151.736 31.7573 152.407 28.6562 153.321 25.6317C153.903 23.5903 154.776 21.6554 155.91 19.8942C156.834 18.6049 157.709 17.9473 158.548 17.9473C159.885 17.9473 160.29 19.559 159.763 22.7823L158.438 30.9437C158.155 32.1763 158.155 33.463 158.438 34.6956C158.567 35.1087 158.826 35.4624 159.171 35.6971C159.516 35.9319 159.927 36.0335 160.335 35.985C161.277 35.9669 162.182 35.5919 162.887 34.9277C163.851 34.0528 164.716 33.0619 165.464 31.9752C165.503 31.9208 165.523 31.854 165.52 31.7859C165.518 31.7178 165.494 31.6526 165.452 31.6013Z" fill="white"/>
<path d="M183.745 15.2141C182.756 15.243 181.779 15.4433 180.852 15.8072C180.33 15.9882 179.822 16.2124 179.333 16.4776C178.449 15.7634 177.354 15.4068 176.245 15.472C175.004 15.4686 173.782 15.8015 172.696 16.439C171.555 17.1063 170.573 18.0427 169.827 19.1761C169.081 20.3095 168.591 21.6095 168.393 22.9758C168.177 24.2106 168.206 25.4798 168.478 26.702C168.712 27.7828 169.255 28.7602 170.034 29.4998C170.454 29.8852 170.948 30.171 171.481 30.3379C170.909 30.8536 170.387 31.3565 169.925 31.8335C169.242 32.5012 168.767 33.3737 168.563 34.3348C168.483 34.666 168.472 35.0119 168.53 35.3482C168.589 35.6845 168.717 36.0031 168.904 36.2817C169.244 36.7571 169.654 37.1708 170.119 37.5065C168.893 38.2841 167.715 39.1454 166.594 40.0852C165.331 41.0779 164.464 42.5358 164.163 44.1723C163.998 45.1845 164.189 46.2256 164.698 47.0991C165.283 48.0592 166.132 48.8061 167.129 49.2394C168.41 49.8048 169.79 50.073 171.177 50.0259C172.735 50.0376 174.283 49.7538 175.747 49.1878C177.081 48.6728 178.292 47.8543 179.296 46.7897C180.238 45.7882 180.848 44.4897 181.034 43.0893C181.201 42.0289 181.057 40.9397 180.621 39.9691C180.241 39.1176 179.679 38.3716 178.98 37.7902C178.254 37.1448 177.468 36.5789 176.634 36.1012C175.783 35.637 174.981 35.1857 174.203 34.7345C173.541 34.3598 172.938 33.8768 172.416 33.3033C172.199 33.0478 172.038 32.7437 171.945 32.4135C171.853 32.0834 171.831 31.7354 171.882 31.3951C171.916 31.0511 172.015 30.7178 172.173 30.4152C172.447 30.4569 172.723 30.4784 173 30.4797C174.186 30.4745 175.351 30.1554 176.391 29.5514C177.577 28.8822 178.601 27.9311 179.384 26.7726C180.166 25.614 180.685 24.2793 180.901 22.8727C181.158 21.6543 181.158 20.3907 180.901 19.1723C180.745 18.493 180.464 17.8531 180.074 17.2899C180.306 17.2966 180.538 17.3224 180.767 17.3673C181.723 17.5341 182.627 17.9408 183.404 18.5535C183.49 18.6179 183.587 18.5535 183.672 18.1667C183.773 17.7761 183.854 17.3802 183.915 16.9805C183.989 16.5553 184.021 16.1233 184.012 15.6912C183.976 15.3946 183.903 15.2141 183.745 15.2141ZM172.66 39.0021C173.442 39.4093 174.201 39.8656 174.933 40.3688C175.624 40.8279 176.229 41.4179 176.719 42.1094C177.195 42.822 177.423 43.688 177.363 44.5591C177.347 45.4996 177.035 46.4073 176.476 47.1378C176.088 47.5979 175.602 47.9543 175.059 48.1783C174.517 48.4023 173.932 48.4876 173.352 48.4271C172.37 48.4461 171.399 48.1975 170.532 47.7051C169.729 47.2349 169.067 46.5331 168.624 45.6808C168.163 44.7652 167.988 43.7175 168.126 42.6896C168.22 41.8119 168.485 40.9645 168.904 40.2012C169.3 39.5083 169.782 38.8751 170.338 38.3188L170.751 37.9449C171.383 38.2801 171.979 38.6798 172.66 39.0021ZM177.06 23.3755C176.983 24.8924 176.624 26.378 176.002 27.7463C175.455 28.8423 174.787 29.3967 174.203 29.3967C173.947 29.3716 173.701 29.2779 173.489 29.1246C173.276 28.9713 173.104 28.7632 172.988 28.5199C172.586 27.7802 172.338 26.9583 172.258 26.1089C172.129 24.931 172.129 23.7412 172.258 22.5633C172.353 21.0645 172.716 19.5985 173.328 18.244C173.899 17.0836 174.544 16.4905 175.163 16.4905C175.473 16.5065 175.771 16.6243 176.015 16.8276C176.259 17.0308 176.437 17.3096 176.525 17.6251C176.854 18.4927 177.047 19.4118 177.096 20.3456C177.169 21.3547 177.157 22.3687 177.06 23.3755Z" fill="white"/>
<path d="M106.561 0C105.954 0 105.249 0 104.459 0.0773595C103.669 0.154719 102.842 0.154719 102.028 0.154719C101.213 0.154719 100.363 0.154719 99.5968 0.0773595C98.831 0 98.0653 0 97.4697 0C97.3846 0 97.336 0.103146 97.336 0.322331C97.336 0.541516 97.336 0.631769 97.4697 0.631769C98.5028 0.631769 99.147 0.889634 99.378 1.39247C99.6136 2.36952 99.6136 3.39376 99.378 4.37081L97.4818 18.6823H87.685L88.7303 11.3332C88.8134 10.5498 88.9681 9.77687 89.1922 9.02527C89.3371 8.5465 89.6447 8.14205 90.0552 7.89067C90.5894 7.65466 91.1668 7.54891 91.7447 7.58123C91.7447 7.58123 91.8298 7.46519 91.8298 7.2589C91.8298 7.0526 91.8298 6.93657 91.7447 6.93657C91.1492 6.93657 90.432 6.93656 89.6298 7.02682C88.8276 7.11707 87.9767 7.10418 87.1016 7.10418C86.2264 7.10418 85.4485 7.10418 84.6706 7.02682C83.8927 6.94946 83.2485 6.94946 82.6529 6.94946C82.6529 6.94946 82.5678 7.0655 82.5678 7.27179C82.5678 7.47808 82.5678 7.59412 82.6529 7.59412C83.6982 7.59412 84.3546 7.8262 84.622 8.30325C84.9308 9.24243 84.9604 10.2595 84.7071 11.2171L81.3037 35.6111C81.2127 36.4032 81.0374 37.1818 80.7811 37.9319C80.7061 38.1615 80.5891 38.373 80.4369 38.5545C80.2846 38.7359 80.1 38.8836 79.8938 38.9892C79.3564 39.1926 78.7861 39.2802 78.2164 39.247C78.1313 39.247 78.0948 39.3631 78.0948 39.5694C78.0948 39.7757 78.0948 39.8788 78.2164 39.8788C78.812 39.8788 79.5048 39.8788 80.2706 39.8788C81.0363 39.8788 81.8507 39.8788 82.7015 39.8788C83.5524 39.8788 84.4518 39.8788 85.2419 39.8788C86.032 39.8788 86.7369 39.8788 87.3447 39.8788C87.4298 39.8788 87.4662 39.7757 87.4662 39.5694C87.4662 39.3631 87.4662 39.247 87.3447 39.247C86.2994 39.247 85.6552 39.0279 85.3878 38.5637C85.1207 37.5999 85.1207 36.5749 85.3878 35.6111L87.5392 20.1392H97.2387L96.0232 28.6359C95.9382 29.4266 95.7711 30.2049 95.5249 30.9567C95.4592 31.1836 95.3512 31.3942 95.2071 31.5759C95.063 31.7576 94.8858 31.9065 94.6862 32.0139C94.1394 32.213 93.562 32.3005 92.9845 32.2718C92.9845 32.2718 92.8994 32.3749 92.8994 32.5812C92.8994 32.7875 92.8994 32.9036 92.9845 32.9036C93.6044 32.9036 94.3216 32.9036 95.1238 32.9036C95.926 32.9036 96.7525 32.9036 97.6277 32.9036C98.5028 32.9036 99.3415 32.9036 100.132 32.9036C100.922 32.9036 101.59 32.9036 102.113 32.9036C102.198 32.9036 102.234 32.8004 102.234 32.5812C102.234 32.362 102.234 32.2718 102.113 32.2718C101.092 32.2718 100.448 32.0397 100.18 31.5884C99.8647 30.6388 99.8224 29.6111 100.059 28.6359L103.511 4.26766C103.626 3.4961 103.805 2.73677 104.045 1.99845C104.191 1.53606 104.5 1.15207 104.908 0.928314C105.433 0.705916 105.997 0.604819 106.561 0.631769C106.561 0.631769 106.634 0.528623 106.634 0.322331C106.634 0.116039 106.61 0 106.561 0Z" fill="#9BD4B9"/>
<path d="M24.6136 8.63855C23.8961 6.36208 22.5121 4.3881 20.6632 3.0042C18.6769 1.60146 16.3264 0.893601 13.9416 0.979959C13.1297 0.976924 12.3182 1.01996 11.5106 1.10889C10.703 1.19658 9.89155 1.23961 9.07967 1.23782C8.27745 1.2894 7.42661 1.21204 6.6487 1.16046C5.87079 1.10889 5.16581 1.0831 4.53376 1.0831C4.53376 1.0831 4.44867 1.18625 4.44867 1.40544C4.44867 1.62462 4.44867 1.71487 4.53376 1.71487H6.22328C6.78265 4.3505 7.18858 7.02015 7.43876 9.70869C7.43876 10.0525 7.46307 10.4264 7.51169 10.8304C7.20218 9.75543 6.6371 8.78305 5.87079 8.00678C4.87134 7.16738 3.63283 6.7128 2.35804 6.71745C2.63227 8.08674 3.28377 9.33877 4.22988 10.3147C5.18595 11.1293 6.3706 11.583 7.59678 11.604C7.68186 13.2028 7.70617 15.0594 7.59678 16.9805C7.2994 15.734 6.68071 14.6001 5.81001 13.7056C4.81056 12.8662 3.57205 12.4116 2.29727 12.4163C2.55786 13.8132 3.21032 15.0941 4.16911 16.0908C5.14237 16.9085 6.34321 17.3618 7.58462 17.3802C7.58462 18.8887 7.42661 20.4359 7.24429 21.9315C6.949 20.8096 6.37861 19.7908 5.59123 18.9789C4.59177 18.1395 3.35327 17.6849 2.07848 17.6896C2.33907 19.0866 2.99153 20.3674 3.95032 21.3642C4.87789 22.1618 6.02647 22.6147 7.21998 22.6535C6.72163 26.3668 5.76139 29.6545 4.02325 31.1115C3.80447 31.2791 1.92046 32.4653 1.65306 32.6071L0.267407 33.3807H0.133703C0 33.3807 0 33.5225 0 33.6901C0 33.8577 0 34.0124 0.133703 34.0124C0.7536 34.0124 1.44643 34.0124 2.20003 34.0124C2.95363 34.0124 3.79231 34.0124 4.69177 34.0124C5.59123 34.0124 6.46638 34.0124 7.45092 34.1672C8.43546 34.3219 9.26199 34.3219 9.88189 34.3219C11.6069 34.3115 13.3084 33.8977 14.8654 33.1099C16.5802 32.2167 18.1317 31.0074 19.4477 29.5385C20.939 27.9419 22.1711 26.0948 23.0942 24.0718C24.1122 21.84 24.7891 19.4507 25.0997 16.9934C25.5701 14.2073 25.4034 11.3421 24.6136 8.63855ZM20.4931 18.1538C20.1561 20.969 19.4141 23.7127 18.293 26.2894C17.4519 28.3049 16.1632 30.0744 14.5372 31.4467C13.164 32.5851 11.4666 33.1944 9.72387 33.1744L6.68516 33.097C6.71133 32.9228 6.74786 32.7506 6.79456 32.5813L6.9161 31.8593C7.13489 30.57 7.42661 29.1517 7.71832 27.8237C7.86418 27.179 7.99789 26.5344 8.14374 25.851C8.32607 24.7809 8.48408 23.7107 8.60563 22.6277C9.73083 22.5415 10.8041 22.0915 11.6808 21.3384C12.6348 20.3378 13.2864 19.0586 13.5526 17.6638C12.2743 17.6603 11.0323 18.1146 10.0277 18.9531C9.51677 19.4512 9.10368 20.0515 8.81226 20.7195C8.9095 19.6107 8.97027 18.5019 9.00674 17.3931C10.0995 17.2927 11.1378 16.8432 11.9847 16.1037C12.9386 15.1031 13.5902 13.824 13.8565 12.4292C12.5782 12.4257 11.3362 12.88 10.3316 13.7185C9.79882 14.2407 9.36555 14.8666 9.05536 15.5622C9.05536 14.2729 9.05536 12.8933 9.05536 11.5782C10.12 11.4702 11.1307 11.0306 11.9604 10.3147C12.9143 9.31405 13.5659 8.03488 13.8322 6.64009C12.5539 6.63659 11.3119 7.09088 10.3073 7.92942C9.70652 8.53194 9.23766 9.26694 8.93381 10.0826C8.78795 7.22029 8.50839 4.44824 8.26529 1.84381C10.5018 1.93406 12.9935 2.0372 13.577 2.0372C15.053 1.9618 16.5019 2.47717 17.6367 3.48125C18.7085 4.53025 19.4937 5.86651 19.9096 7.34922C20.4232 9.03875 20.7096 10.7966 20.7605 12.571C20.8268 14.4366 20.7374 16.3049 20.4931 18.1538Z" fill="white"/>
</g>
<defs>
<clipPath id="clip0_7788_22">
<rect width="184" height="50" fill="white"/>
</clipPath>
</defs>
</svg>
