<svg width="27" height="26" viewBox="0 0 27 26" fill="none" xmlns="http://www.w3.org/2000/svg">
<path d="M5.5 0C4.04131 0 2.64236 0.579463 1.61091 1.61091C0.579463 2.64236 0 4.04131 0 5.5V20.5C0 21.9587 0.579463 23.3576 1.61091 24.3891C2.64236 25.4205 4.04131 26 5.5 26H17.5C17.8978 26 18.2794 25.842 18.5607 25.5607C18.842 25.2794 19 24.8978 19 24.5C19 24.1022 18.842 23.7206 18.5607 23.4393C18.2794 23.158 17.8978 23 17.5 23H5.5C4.12 23 3 21.88 3 20.5V5.5C3 4.12 4.12 3 5.5 3H17.5C17.8978 3 18.2794 2.84196 18.5607 2.56066C18.842 2.27936 19 1.89782 19 1.5C19 1.10218 18.842 0.720644 18.5607 0.43934C18.2794 0.158035 17.8978 0 17.5 0H5.5ZM21.06 6.44C20.9227 6.29263 20.7571 6.17442 20.5731 6.09244C20.3891 6.01045 20.1904 5.96637 19.989 5.96282C19.7876 5.95926 19.5876 5.99631 19.4008 6.07175C19.214 6.1472 19.0444 6.25949 18.9019 6.40192C18.7595 6.54436 18.6472 6.71403 18.5718 6.9008C18.4963 7.08758 18.4593 7.28764 18.4628 7.48905C18.4664 7.69045 18.5105 7.88908 18.5924 8.07308C18.6744 8.25707 18.7926 8.42268 18.94 8.56L21.88 11.5H10.5C10.1022 11.5 9.72064 11.658 9.43934 11.9393C9.15804 12.2206 9 12.6022 9 13C9 13.3978 9.15804 13.7794 9.43934 14.0607C9.72064 14.342 10.1022 14.5 10.5 14.5H21.88L18.94 17.44C18.7926 17.5773 18.6744 17.7429 18.5924 17.9269C18.5105 18.1109 18.4664 18.3096 18.4628 18.511C18.4593 18.7124 18.4963 18.9124 18.5718 19.0992C18.6472 19.286 18.7595 19.4556 18.9019 19.5981C19.0444 19.7405 19.214 19.8528 19.4008 19.9282C19.5876 20.0037 19.7876 20.0407 19.989 20.0372C20.1904 20.0336 20.3891 19.9895 20.5731 19.9076C20.7571 19.8256 20.9227 19.7074 21.06 19.56L26.56 14.06C26.8409 13.7787 26.9987 13.3975 26.9987 13C26.9987 12.6025 26.8409 12.2213 26.56 11.94L21.06 6.44Z" fill="#9BD4B9"/>
</svg>
