<svg width="264" height="68" viewBox="0 0 264 68" fill="none" xmlns="http://www.w3.org/2000/svg">
<g filter="url(#filter0_d_7822_7)">
<path d="M67.2772 41.9595C67.1081 41.8048 66.956 41.7739 66.8376 41.9595C66.2743 42.529 65.6514 43.0469 64.978 43.5057C64.5572 43.8327 64.0391 44.0373 63.4903 44.0933C62.662 44.0933 62.4253 43.1191 62.7972 41.1864L66.3981 21.7813C66.3981 21.6885 66.3981 21.6112 66.1276 21.5339C65.8571 21.4566 65.7388 21.5339 65.6542 21.5339C65.1422 22.3267 64.4845 23.0329 63.7101 23.6213C63.1823 23.1539 62.5551 22.7907 61.8674 22.5544C61.0616 22.2553 60.2012 22.0979 59.3316 22.0905C57.3669 22.1624 55.4709 22.7709 53.888 23.8377C51.8727 25.141 50.0734 26.7033 48.5459 28.4764C46.8834 30.3806 45.4706 32.4563 44.3364 34.6613C43.2452 36.6906 42.5202 38.868 42.1894 41.1091C41.7688 42.7406 42.0153 44.4565 42.8825 45.9333C43.2591 46.4296 43.7662 46.8314 44.357 47.1016C44.9479 47.3718 45.6035 47.5017 46.2636 47.4795C48.1807 47.3993 50.0134 46.7353 51.4705 45.5931C53.5132 44.0801 55.2326 42.2349 56.5422 40.1504C57.1734 39.1517 57.738 38.119 58.2327 37.0579L57.4551 41.1091C57.0802 42.646 57.1561 44.2462 57.6748 45.7477C57.9026 46.2185 58.2861 46.612 58.7714 46.8728C59.2567 47.1336 59.8193 47.2484 60.3797 47.2012C61.635 47.1565 62.8326 46.7074 63.7608 45.9333C65.1131 44.8856 66.3272 43.6973 67.3786 42.3924C67.4631 42.2687 67.4293 42.1296 67.2772 41.9595ZM55.9336 38.7588C55.1906 39.8878 54.2611 40.9049 53.178 41.7739C52.3776 42.4865 51.3185 42.9048 50.2026 42.9491C49.7169 42.9288 49.2506 42.7683 48.8709 42.4904C48.4912 42.2126 48.2176 41.8318 48.0894 41.4028C47.5555 39.658 47.509 37.8185 47.9542 36.0529C48.2605 34.087 48.8874 32.1742 49.8138 30.3783C50.5318 28.9259 51.541 27.6095 52.7892 26.4972C53.6784 25.6483 54.8869 25.1399 56.1703 25.0747C56.7425 25.0572 57.3076 25.1946 57.7948 25.4697C58.282 25.7447 58.6696 26.1452 58.9089 26.6209C59.5155 28.0112 59.6453 29.5374 59.2809 30.9968C59.0345 32.3395 58.6379 33.6555 58.0975 34.9242C57.5109 36.2623 56.7863 37.5463 55.9336 38.7588Z" fill="white"/>
</g>
<g filter="url(#filter1_d_7822_7)">
<path d="M109.862 41.8976C109.832 41.8623 109.794 41.8337 109.75 41.814C109.706 41.7944 109.657 41.7841 109.609 41.7841C109.56 41.7841 109.511 41.7944 109.467 41.814C109.423 41.8337 109.385 41.8623 109.355 41.8976C108.696 42.5161 108.104 43.0264 107.664 43.4438C107.272 43.8063 106.75 44.0261 106.194 44.0623C106.006 44.0563 105.824 43.9964 105.676 43.8909C105.527 43.7854 105.418 43.6398 105.365 43.4748C105.155 42.7136 105.155 41.9166 105.365 41.1554L107.343 30.1927C107.917 28.1855 107.841 26.0689 107.123 24.1006C106.845 23.4975 106.373 22.9863 105.768 22.6354C105.164 22.2845 104.457 22.1106 103.742 22.1369C102.625 22.196 101.535 22.4769 100.548 22.9602C99.5613 23.4436 98.7014 24.1176 98.0282 24.9356C95.9704 27.2333 94.384 29.8525 93.3454 32.6667L93.8019 30.0999C94.3616 28.0791 94.2438 25.9511 93.4638 23.9924C93.1624 23.4097 92.6824 22.9197 92.0821 22.582C91.4818 22.2444 90.7871 22.0736 90.0827 22.0905C88.9327 22.149 87.811 22.4384 86.7972 22.9381C85.7833 23.4379 84.9022 24.1357 84.2164 24.9819C82.1651 27.3155 80.585 29.9649 79.5505 32.8058L80.4634 27.626C80.8112 26.3353 80.7644 24.982 80.3282 23.714C80.1159 23.2576 79.7473 22.8766 79.2777 22.6284C78.8081 22.3802 78.2631 22.2782 77.7247 22.3379C76.4482 22.3735 75.2146 22.7676 74.1915 23.4666C72.5762 24.5075 71.1403 25.7636 69.9313 27.193C69.8635 27.2636 69.8262 27.3543 69.8262 27.4482C69.8262 27.5421 69.8635 27.6327 69.9313 27.7033C70.1004 27.8888 70.2356 27.9043 70.3708 27.7033C70.9877 27.0217 71.685 26.4046 72.4502 25.8633C72.8717 25.5132 73.4051 25.2964 73.9717 25.2448C74.9522 25.2448 75.2734 26.2498 74.9015 28.3372L72.3488 42.0832C72.1797 43.1501 71.9938 44.1396 71.7571 45.0519C71.6121 45.561 71.4992 46.0772 71.419 46.5981C71.419 46.7218 71.5711 46.8301 71.8585 46.9383C72.408 47.0791 72.98 47.1314 73.5491 47.0929C75.6623 47.0929 76.8287 46.6909 77.0316 45.8559C77.6029 42.1488 78.5134 38.492 79.7534 34.9241C80.5108 32.4737 81.6495 30.1356 83.1345 27.9816C84.3517 26.4354 85.5013 25.585 86.5156 25.585C86.9193 25.602 87.3051 25.7423 87.6115 25.9833C87.9179 26.2243 88.1273 26.5522 88.2062 26.9147C88.5685 28.344 88.5685 29.8303 88.2062 31.2596L86.1437 42.0832C86.0024 43.0814 85.805 44.0723 85.552 45.0519C85.407 45.561 85.2941 46.0772 85.2139 46.5981C85.2139 46.7218 85.366 46.8301 85.6534 46.9383C86.2029 47.0791 86.7749 47.1314 87.344 47.0929C89.5417 47.0929 90.7251 46.6909 90.8265 45.8559C91.3888 42.0267 92.3165 38.2498 93.599 34.5685C94.3967 32.1741 95.5698 29.8981 97.0815 27.8115C98.3325 26.3117 99.4314 25.6468 100.361 25.6468C101.291 25.6468 101.714 26.1261 102.052 27.0693C102.295 28.5229 102.255 30.0044 101.933 31.4451L100.057 41.109C99.6875 42.5898 99.6875 44.1277 100.057 45.6085C100.237 46.1097 100.602 46.5381 101.089 46.8202C101.576 47.1023 102.156 47.2206 102.728 47.1548C104.017 47.1266 105.253 46.6768 106.211 45.8869C107.553 44.8343 108.761 43.6465 109.811 42.346C109.882 42.2918 109.926 42.2148 109.936 42.1312C109.945 42.0475 109.919 41.9638 109.862 41.8976Z" fill="white"/>
</g>
<g filter="url(#filter2_d_7822_7)">
<path d="M175.946 23.3126C175.67 22.9662 175.305 22.6876 174.883 22.5014C174.462 22.3153 173.996 22.2274 173.528 22.2457C172.572 22.2028 171.635 22.5086 170.925 23.0961C170.591 23.3912 170.329 23.7478 170.157 24.1423C169.985 24.5368 169.907 24.9602 169.927 25.3845C169.889 26.115 170.083 26.8399 170.485 27.4719L171.635 29.1418C172.064 29.8202 172.357 30.5641 172.497 31.3375C172.674 32.5376 172.582 33.7581 172.227 34.9247C171.841 36.2098 171.32 37.4578 170.671 38.6511C169.843 40.2746 168.845 42.0682 167.662 44.0474C167.07 45.0215 166.462 45.9957 165.853 46.9543C166.041 43.9519 166.041 40.9422 165.853 37.9398C165.654 35.2181 165.196 32.5175 164.484 29.8686C164.006 27.9023 163.141 26.0319 161.931 24.3485C161.56 23.768 161.036 23.2815 160.407 22.9331C159.779 22.5848 159.065 22.3857 158.33 22.3539C156.902 22.4465 155.539 22.9376 154.425 23.761C152.947 24.7109 151.779 26.0094 151.044 27.5183C151.044 27.6884 151.044 27.7966 151.331 27.8585C151.374 27.8768 151.419 27.8873 151.466 27.8895C151.512 27.8916 151.559 27.8853 151.603 27.871C151.647 27.8566 151.687 27.8344 151.722 27.8058C151.757 27.7771 151.785 27.7425 151.805 27.7038C152.121 27.1893 152.54 26.7332 153.039 26.3586C153.468 26.01 154.02 25.8126 154.594 25.802C156.657 25.802 158.279 28.3223 159.429 33.3476C160.693 40.1481 161.18 47.0505 160.883 53.9432C160.596 54.2834 160.325 54.6545 160.055 54.9792C159.132 56.1494 158.047 57.2046 156.826 58.118C156.485 58.4042 156.08 58.6189 155.639 58.7471C155.198 58.8753 154.732 58.9139 154.273 58.8602C153.51 58.6837 152.78 58.4022 152.109 58.0253C151.398 57.6264 150.576 57.4225 149.742 57.4377C148.856 57.3821 147.981 57.6478 147.308 58.1773C146.634 58.7068 146.215 59.4575 146.141 60.2673C145.98 60.7812 145.973 61.3255 146.122 61.8426C146.271 62.3597 146.57 62.8304 146.987 63.2051C147.791 63.7238 148.758 63.9897 149.742 63.9628C151.291 63.8559 152.766 63.3161 153.969 62.4165C155.785 61.1751 157.451 59.76 158.939 58.1953C160.757 56.2722 162.45 54.2535 164.01 52.1496C165.701 49.9127 167.313 47.5831 168.845 45.1607C170.378 42.7383 171.781 40.3571 173.055 38.0171C174.126 35.9054 175.057 33.7368 175.844 31.523C176.444 29.9223 176.785 28.2503 176.859 26.5596C176.93 25.4169 176.611 24.2822 175.946 23.3126Z" fill="white"/>
</g>
<g filter="url(#filter3_d_7822_7)">
<path d="M204.635 41.9595C204.466 41.8048 204.313 41.7739 204.195 41.9595C203.632 42.529 203.009 43.0469 202.335 43.5057C201.915 43.8327 201.397 44.0373 200.848 44.0933C200.019 44.0933 199.783 43.1191 200.155 41.1864L203.756 21.7813C203.756 21.6885 203.756 21.6112 203.485 21.5339C203.215 21.4566 203.096 21.5339 203.012 21.5339C202.494 22.3232 201.837 23.0286 201.068 23.6213C200.546 23.1316 199.918 22.7471 199.225 22.4925C198.419 22.1948 197.559 22.0375 196.689 22.0287C194.724 22.1005 192.828 22.7091 191.245 23.7759C189.23 25.0791 187.431 26.6414 185.903 28.4146C184.241 30.3187 182.828 32.3945 181.694 34.5995C180.596 36.648 179.871 38.8468 179.547 41.109C179.101 42.7664 179.355 44.5165 180.257 46.0106C180.631 46.509 181.138 46.9124 181.729 47.1828C182.321 47.4532 182.977 47.5819 183.638 47.5568C185.555 47.4766 187.388 46.8127 188.845 45.6704C190.888 44.1574 192.607 42.3122 193.917 40.2277C194.548 39.229 195.112 38.1963 195.607 37.1353L194.813 41.109C194.438 42.646 194.514 44.2462 195.032 45.7477C195.26 46.2185 195.644 46.612 196.129 46.8728C196.614 47.1336 197.177 47.2484 197.737 47.2012C198.994 47.1619 200.193 46.7121 201.118 45.9333C202.481 44.8905 203.701 43.7017 204.753 42.3924C204.821 42.2687 204.787 42.1296 204.635 41.9595ZM193.342 38.7588C192.599 39.8878 191.669 40.9049 190.586 41.7739C189.784 42.4841 188.726 42.902 187.611 42.9491C187.125 42.9288 186.659 42.7683 186.279 42.4904C185.899 42.2126 185.626 41.8318 185.498 41.4028C184.958 39.6482 184.911 37.7974 185.362 36.022C185.682 34.0569 186.314 32.1451 187.239 30.3473C187.957 28.895 188.966 27.5786 190.214 26.4663C191.103 25.6174 192.312 25.109 193.595 25.0438C194.166 25.0253 194.729 25.1624 195.214 25.4378C195.698 25.7132 196.083 26.1143 196.317 26.59C196.966 28.0027 197.108 29.5674 196.723 31.0586C196.456 32.3552 196.048 33.6242 195.506 34.8468C194.917 36.2088 194.193 37.5183 193.342 38.7588Z" fill="white"/>
</g>
<g filter="url(#filter4_d_7822_7)">
<path d="M234.118 41.8982C233.949 41.7435 233.797 41.7435 233.678 41.8982C233.019 42.5166 232.41 43.0269 231.886 43.4444C231.48 43.8055 230.947 44.0244 230.382 44.0629C230.194 44.0569 230.012 43.9969 229.864 43.8915C229.715 43.786 229.606 43.6404 229.553 43.4753C229.343 42.7142 229.343 41.9171 229.553 41.156L231.599 30.1933C232.149 28.1477 232.044 26.0004 231.295 24.0084C230.972 23.3802 230.448 22.8563 229.794 22.5057C229.139 22.1551 228.383 21.9944 227.626 22.0447C226.459 22.0991 225.318 22.3861 224.284 22.8855C223.251 23.3849 222.349 24.0848 221.642 24.9361C219.437 27.3698 217.751 30.16 216.671 33.162V33.2857L217.686 27.5801C218.033 26.2895 217.987 24.9362 217.55 23.6682C217.336 23.2133 216.967 22.8337 216.498 22.5858C216.029 22.338 215.485 22.2349 214.947 22.2921C213.67 22.3277 212.437 22.7218 211.414 23.4208C209.867 24.49 208.5 25.7612 207.356 27.1936C207.289 27.2641 207.251 27.3548 207.251 27.4487C207.251 27.5426 207.289 27.6333 207.356 27.7038C207.525 27.8894 207.661 27.9048 207.779 27.7038C208.404 27.0296 209.101 26.4133 209.858 25.8638C210.284 25.5191 210.815 25.3031 211.38 25.2453C212.377 25.2453 212.698 26.2504 212.327 28.3378L209.774 42.0837C209.605 43.1506 209.419 44.1402 209.182 45.0525C209.037 45.5615 208.924 46.0778 208.844 46.5987C208.844 46.7224 208.979 46.8306 209.284 46.9388C209.833 47.0797 210.405 47.132 210.974 47.0935C213.087 47.0935 214.237 46.6914 214.457 45.8565C215.042 42.0853 215.975 38.3663 217.246 34.7391C218.055 32.291 219.27 29.9705 220.847 27.8585C222.132 26.3122 223.349 25.5237 224.515 25.5237C226.375 25.5237 226.939 27.4564 226.206 31.322L224.363 41.1096C223.97 42.5878 223.97 44.1309 224.363 45.6091C224.542 46.1045 224.902 46.5286 225.382 46.8101C225.862 47.0917 226.434 47.2136 227.001 47.1553C228.311 47.1336 229.571 46.6839 230.551 45.8874C231.891 44.8381 233.094 43.6499 234.135 42.3466C234.189 42.2814 234.216 42.2013 234.213 42.1196C234.21 42.038 234.176 41.9597 234.118 41.8982Z" fill="white"/>
</g>
<g filter="url(#filter5_d_7822_7)">
<path d="M259.561 22.2456C258.186 22.2802 256.827 22.5205 255.537 22.9569C254.811 23.174 254.104 23.4428 253.424 23.7609C252.195 22.9043 250.673 22.4767 249.13 22.5548C247.404 22.5508 245.704 22.95 244.194 23.7145C242.606 24.5148 241.241 25.6378 240.204 26.997C239.166 28.3562 238.484 29.9153 238.209 31.5539C237.908 33.0347 237.949 34.5567 238.328 36.0224C238.652 37.3186 239.408 38.4908 240.491 39.3778C241.076 39.84 241.762 40.1826 242.503 40.3828C241.709 41.0013 240.982 41.6043 240.339 42.1764C239.39 42.9771 238.729 44.0235 238.446 45.1761C238.334 45.5733 238.318 45.9881 238.4 46.3914C238.482 46.7947 238.659 47.1768 238.919 47.5109C239.392 48.0811 239.963 48.5772 240.61 48.9798C238.904 49.9123 237.266 50.9453 235.707 52.0722C233.951 53.2628 232.745 55.0112 232.326 56.9738C232.097 58.1876 232.361 59.4361 233.07 60.4837C233.884 61.6351 235.064 62.5308 236.451 63.0504C238.232 63.7285 240.152 64.0501 242.081 63.9936C244.248 64.0076 246.401 63.6673 248.437 62.9886C250.292 62.371 251.977 61.3893 253.373 60.1126C254.683 58.9115 255.531 57.3544 255.791 55.6749C256.023 54.4032 255.822 53.0971 255.216 51.9331C254.687 50.9119 253.906 50.0173 252.934 49.32C251.924 48.546 250.831 47.8673 249.671 47.2944C248.488 46.7378 247.372 46.1966 246.29 45.6554C245.368 45.2061 244.53 44.6269 243.805 43.9391C243.502 43.6326 243.278 43.268 243.149 42.872C243.021 42.476 242.99 42.0587 243.061 41.6507C243.109 41.2381 243.247 40.8384 243.467 40.4756C243.848 40.5255 244.232 40.5514 244.616 40.5529C246.265 40.5466 247.887 40.164 249.333 39.4396C250.983 38.637 252.407 37.4965 253.495 36.1071C254.583 34.7177 255.305 33.117 255.605 31.4302C255.963 29.969 255.963 28.4537 255.605 26.9925C255.389 26.1778 254.998 25.4104 254.455 24.735C254.779 24.743 255.101 24.774 255.419 24.8278C256.748 25.0278 258.006 25.5155 259.087 26.2503C259.206 26.3276 259.341 26.2503 259.459 25.7865C259.6 25.3181 259.712 24.8433 259.798 24.3639C259.9 23.8541 259.945 23.336 259.933 22.8177C259.882 22.4621 259.781 22.2456 259.561 22.2456ZM244.143 50.7734C245.232 51.2617 246.287 51.809 247.304 52.4124C248.266 52.9629 249.108 53.6705 249.789 54.4998C250.452 55.3544 250.768 56.3929 250.685 57.4376C250.663 58.5655 250.228 59.654 249.451 60.5301C248.911 61.0818 248.236 61.5093 247.481 61.778C246.726 62.0466 245.913 62.1488 245.107 62.0763C243.74 62.099 242.39 61.8009 241.185 61.2104C240.067 60.6465 239.147 59.8049 238.53 58.7828C237.889 57.6848 237.646 56.4283 237.837 55.1956C237.968 54.143 238.336 53.1268 238.919 52.2114C239.47 51.3804 240.141 50.6211 240.914 49.9539L241.489 49.5055C242.368 49.9075 243.196 50.3869 244.143 50.7734ZM250.263 32.0332C250.157 33.8522 249.657 35.6339 248.792 37.2749C248.031 38.5892 247.101 39.2541 246.29 39.2541C245.934 39.2239 245.592 39.1117 245.296 38.9278C245.001 38.7439 244.761 38.4944 244.599 38.2026C244.041 37.3155 243.695 36.3299 243.585 35.3112C243.405 33.8986 243.405 32.4717 243.585 31.0591C243.716 29.2616 244.221 27.5036 245.073 25.8792C245.867 24.4876 246.763 23.7764 247.626 23.7764C248.056 23.7955 248.47 23.9367 248.809 24.1805C249.149 24.4243 249.397 24.7586 249.519 25.137C249.977 26.1775 250.246 27.2796 250.314 28.3996C250.415 29.6097 250.398 30.8258 250.263 32.0332Z" fill="white"/>
</g>
<g filter="url(#filter6_d_7822_7)">
<path d="M152.211 4C151.365 4 150.385 4 149.286 4.09277C148.187 4.18555 147.038 4.18555 145.905 4.18555C144.772 4.18555 143.589 4.18555 142.524 4.09277C141.459 4 140.394 4 139.565 4C139.447 4 139.379 4.1237 139.379 4.38656C139.379 4.64941 139.379 4.75765 139.565 4.75765C141.002 4.75765 141.898 5.06689 142.219 5.66992C142.547 6.84164 142.547 8.06997 142.219 9.24169L139.582 26.4048H125.956L127.41 17.5913C127.526 16.6518 127.741 15.7249 128.053 14.8236C128.254 14.2494 128.682 13.7644 129.253 13.4629C129.996 13.1798 130.799 13.053 131.603 13.0918C131.603 13.0918 131.721 12.9526 131.721 12.7052C131.721 12.4578 131.721 12.3187 131.603 12.3187C130.774 12.3187 129.777 12.3187 128.661 12.4269C127.545 12.5351 126.362 12.5197 125.145 12.5197C123.928 12.5197 122.846 12.5197 121.764 12.4269C120.682 12.3341 119.786 12.3341 118.957 12.3341C118.957 12.3341 118.839 12.4733 118.839 12.7207C118.839 12.9681 118.839 13.1073 118.957 13.1073C120.411 13.1073 121.324 13.3856 121.696 13.9577C122.126 15.084 122.167 16.3037 121.815 17.4521L117.081 46.7067C116.954 47.6565 116.711 48.5902 116.354 49.4899C116.25 49.7651 116.087 50.0189 115.875 50.2365C115.664 50.454 115.407 50.6312 115.12 50.7578C114.373 51.0017 113.579 51.1068 112.787 51.067C112.669 51.067 112.618 51.2062 112.618 51.4536C112.618 51.701 112.618 51.8247 112.787 51.8247C113.615 51.8247 114.579 51.8247 115.644 51.8247C116.709 51.8247 117.842 51.8247 119.025 51.8247C120.208 51.8247 121.459 51.8247 122.558 51.8247C123.657 51.8247 124.638 51.8247 125.483 51.8247C125.601 51.8247 125.652 51.701 125.652 51.4536C125.652 51.2062 125.652 51.067 125.483 51.067C124.029 51.067 123.133 50.8042 122.761 50.2475C122.39 49.0917 122.39 47.8625 122.761 46.7067L125.753 28.152H139.244L137.554 38.3416C137.435 39.2898 137.203 40.2232 136.86 41.1248C136.769 41.397 136.619 41.6496 136.418 41.8674C136.218 42.0853 135.972 42.2639 135.694 42.3927C134.933 42.6314 134.13 42.7363 133.327 42.702C133.327 42.702 133.209 42.8256 133.209 43.073C133.209 43.3204 133.209 43.4596 133.327 43.4596C134.189 43.4596 135.187 43.4596 136.303 43.4596C137.418 43.4596 138.568 43.4596 139.785 43.4596C141.002 43.4596 142.169 43.4596 143.268 43.4596C144.366 43.4596 145.296 43.4596 146.023 43.4596C146.142 43.4596 146.192 43.3359 146.192 43.073C146.192 42.8102 146.192 42.702 146.023 42.702C144.603 42.702 143.707 42.4236 143.335 41.8825C142.896 40.7436 142.838 39.5111 143.166 38.3416L147.967 9.118C148.128 8.1927 148.377 7.28208 148.711 6.39664C148.913 5.84211 149.344 5.38162 149.911 5.11328C150.641 4.84657 151.425 4.72533 152.211 4.75765C152.211 4.75765 152.312 4.63395 152.312 4.38656C152.312 4.13916 152.278 4 152.211 4Z" fill="#9BD4B9"/>
</g>
<g filter="url(#filter7_d_7822_7)">
<path d="M38.2336 14.359C37.2358 11.629 35.3109 9.26169 32.7394 7.60205C29.9767 5.91981 26.7076 5.07092 23.3906 5.17448C22.2614 5.17084 21.1327 5.22246 20.0095 5.3291C18.8862 5.43426 17.7576 5.48587 16.6284 5.48373C15.5126 5.54557 14.3293 5.4528 13.2473 5.39095C12.1654 5.3291 11.1848 5.29818 10.3058 5.29818C10.3058 5.29818 10.1874 5.42188 10.1874 5.68473C10.1874 5.94759 10.1874 6.05583 10.3058 6.05583H12.6556C13.4336 9.21661 13.9982 12.4182 14.3462 15.6424C14.3462 16.0547 14.38 16.5031 14.4476 16.9876C14.0171 15.6985 13.2312 14.5323 12.1654 13.6014C10.7753 12.5947 9.0527 12.0496 7.27967 12.0552C7.66108 13.6973 8.56722 15.1988 9.88312 16.3691C11.2128 17.3461 12.8605 17.8902 14.5659 17.9154C14.6843 19.8327 14.7181 22.0592 14.5659 24.3631C14.1523 22.8683 13.2918 21.5084 12.0808 20.4357C10.6907 19.429 8.96817 18.8839 7.19514 18.8895C7.55759 20.5648 8.46506 22.1008 9.79859 23.2962C11.1522 24.2768 12.8224 24.8204 14.549 24.8424C14.549 26.6515 14.3293 28.507 14.0757 30.3006C13.665 28.9552 12.8717 27.7334 11.7765 26.7597C10.3864 25.7531 8.66387 25.2079 6.89084 25.2135C7.25329 26.8888 8.16076 28.4249 9.49429 29.6203C10.7844 30.5768 12.3819 31.12 14.0419 31.1665C13.3487 35.6196 12.0132 39.5625 9.59572 41.3097C9.29142 41.5107 6.67107 42.9332 6.29915 43.1033L4.37192 44.031H4.18596C4 44.031 4 44.2011 4 44.4021C4 44.6031 4 44.7887 4.18596 44.7887C5.04814 44.7887 6.01175 44.7887 7.0599 44.7887C8.10804 44.7887 9.27452 44.7887 10.5255 44.7887C11.7765 44.7887 12.9937 44.7887 14.3631 44.9742C15.7324 45.1598 16.882 45.1598 17.7442 45.1598C20.1433 45.1474 22.51 44.6511 24.6754 43.7063C27.0604 42.6351 29.2184 41.1849 31.0488 39.4233C33.123 37.5086 34.8366 35.2934 36.1205 32.8673C37.5363 30.1908 38.4779 27.3255 38.9099 24.3786C39.5641 21.0373 39.3322 17.6013 38.2336 14.359ZM32.5027 25.7702C32.034 29.1463 31.002 32.4368 29.4428 35.5268C28.2729 37.9439 26.4805 40.0659 24.219 41.7117C22.309 43.077 19.9483 43.8076 17.5244 43.7837L13.298 43.6909C13.3344 43.482 13.3852 43.2754 13.4502 43.0724L13.6192 42.2065C13.9235 40.6603 14.3293 38.9594 14.735 37.3668C14.9379 36.5937 15.1238 35.8206 15.3267 35.0011C15.5803 33.7177 15.8 32.4344 15.9691 31.1356C17.5341 31.0321 19.0268 30.4925 20.2462 29.5893C21.573 28.3893 22.4793 26.8553 22.8496 25.1826C21.0717 25.1784 19.3443 25.7232 17.947 26.7288C17.2363 27.3261 16.6618 28.046 16.2565 28.8471C16.3917 27.5174 16.4763 26.1876 16.527 24.8579C18.0468 24.7376 19.491 24.1984 20.6688 23.3117C21.9956 22.1117 22.9019 20.5776 23.2723 18.9049C21.4943 18.9007 19.7669 19.4455 18.3697 20.4512C17.6286 21.0774 17.026 21.8281 16.5946 22.6623C16.5946 21.116 16.5946 19.4616 16.5946 17.8844C18.0753 17.7549 19.4811 17.2277 20.635 16.3691C21.9618 15.1691 22.8681 13.6351 23.2385 11.9624C21.4605 11.9582 19.7331 12.503 18.3359 13.5086C17.5003 14.2312 16.8482 15.1126 16.4255 16.0908C16.2227 12.6582 15.8339 9.33382 15.4957 6.21045C18.6064 6.31869 22.072 6.44238 22.8834 6.44238C24.9364 6.35195 26.9516 6.97001 28.5299 8.17415C30.0206 9.43217 31.1128 11.0347 31.6912 12.8128C32.4054 14.839 32.8038 16.9471 32.8746 19.075C32.9669 21.3124 32.8425 23.5529 32.5027 25.7702Z" fill="white"/>
</g>
<defs>
<filter id="filter0_d_7822_7" x="37.989" y="17.4995" width="33.4348" height="33.9824" filterUnits="userSpaceOnUse" color-interpolation-filters="sRGB">
<feFlood flood-opacity="0" result="BackgroundImageFix"/>
<feColorMatrix in="SourceAlpha" type="matrix" values="0 0 0 0 0 0 0 0 0 0 0 0 0 0 0 0 0 0 127 0" result="hardAlpha"/>
<feOffset/>
<feGaussianBlur stdDeviation="2"/>
<feComposite in2="hardAlpha" operator="out"/>
<feColorMatrix type="matrix" values="0 0 0 0 0 0 0 0 0 0 0 0 0 0 0 0 0 0 0.25 0"/>
<feBlend mode="normal" in2="BackgroundImageFix" result="effect1_dropShadow_7822_7"/>
<feBlend mode="normal" in="SourceGraphic" in2="effect1_dropShadow_7822_7" result="shape"/>
</filter>
<filter id="filter1_d_7822_7" x="65.8262" y="18.0894" width="48.1113" height="33.083" filterUnits="userSpaceOnUse" color-interpolation-filters="sRGB">
<feFlood flood-opacity="0" result="BackgroundImageFix"/>
<feColorMatrix in="SourceAlpha" type="matrix" values="0 0 0 0 0 0 0 0 0 0 0 0 0 0 0 0 0 0 127 0" result="hardAlpha"/>
<feOffset/>
<feGaussianBlur stdDeviation="2"/>
<feComposite in2="hardAlpha" operator="out"/>
<feColorMatrix type="matrix" values="0 0 0 0 0 0 0 0 0 0 0 0 0 0 0 0 0 0 0.25 0"/>
<feBlend mode="normal" in2="BackgroundImageFix" result="effect1_dropShadow_7822_7"/>
<feBlend mode="normal" in="SourceGraphic" in2="effect1_dropShadow_7822_7" result="shape"/>
</filter>
<filter id="filter2_d_7822_7" x="142.015" y="18.2417" width="38.8533" height="49.7231" filterUnits="userSpaceOnUse" color-interpolation-filters="sRGB">
<feFlood flood-opacity="0" result="BackgroundImageFix"/>
<feColorMatrix in="SourceAlpha" type="matrix" values="0 0 0 0 0 0 0 0 0 0 0 0 0 0 0 0 0 0 127 0" result="hardAlpha"/>
<feOffset/>
<feGaussianBlur stdDeviation="2"/>
<feComposite in2="hardAlpha" operator="out"/>
<feColorMatrix type="matrix" values="0 0 0 0 0 0 0 0 0 0 0 0 0 0 0 0 0 0 0.25 0"/>
<feBlend mode="normal" in2="BackgroundImageFix" result="effect1_dropShadow_7822_7"/>
<feBlend mode="normal" in="SourceGraphic" in2="effect1_dropShadow_7822_7" result="shape"/>
</filter>
<filter id="filter3_d_7822_7" x="175.332" y="17.4995" width="33.4539" height="34.0605" filterUnits="userSpaceOnUse" color-interpolation-filters="sRGB">
<feFlood flood-opacity="0" result="BackgroundImageFix"/>
<feColorMatrix in="SourceAlpha" type="matrix" values="0 0 0 0 0 0 0 0 0 0 0 0 0 0 0 0 0 0 127 0" result="hardAlpha"/>
<feOffset/>
<feGaussianBlur stdDeviation="2"/>
<feComposite in2="hardAlpha" operator="out"/>
<feColorMatrix type="matrix" values="0 0 0 0 0 0 0 0 0 0 0 0 0 0 0 0 0 0 0.25 0"/>
<feBlend mode="normal" in2="BackgroundImageFix" result="effect1_dropShadow_7822_7"/>
<feBlend mode="normal" in="SourceGraphic" in2="effect1_dropShadow_7822_7" result="shape"/>
</filter>
<filter id="filter4_d_7822_7" x="203.251" y="18.0356" width="34.9624" height="33.1338" filterUnits="userSpaceOnUse" color-interpolation-filters="sRGB">
<feFlood flood-opacity="0" result="BackgroundImageFix"/>
<feColorMatrix in="SourceAlpha" type="matrix" values="0 0 0 0 0 0 0 0 0 0 0 0 0 0 0 0 0 0 127 0" result="hardAlpha"/>
<feOffset/>
<feGaussianBlur stdDeviation="2"/>
<feComposite in2="hardAlpha" operator="out"/>
<feColorMatrix type="matrix" values="0 0 0 0 0 0 0 0 0 0 0 0 0 0 0 0 0 0 0.25 0"/>
<feBlend mode="normal" in2="BackgroundImageFix" result="effect1_dropShadow_7822_7"/>
<feBlend mode="normal" in="SourceGraphic" in2="effect1_dropShadow_7822_7" result="shape"/>
</filter>
<filter id="filter5_d_7822_7" x="228.246" y="18.2456" width="35.6892" height="49.7544" filterUnits="userSpaceOnUse" color-interpolation-filters="sRGB">
<feFlood flood-opacity="0" result="BackgroundImageFix"/>
<feColorMatrix in="SourceAlpha" type="matrix" values="0 0 0 0 0 0 0 0 0 0 0 0 0 0 0 0 0 0 127 0" result="hardAlpha"/>
<feOffset/>
<feGaussianBlur stdDeviation="2"/>
<feComposite in2="hardAlpha" operator="out"/>
<feColorMatrix type="matrix" values="0 0 0 0 0 0 0 0 0 0 0 0 0 0 0 0 0 0 0.25 0"/>
<feBlend mode="normal" in2="BackgroundImageFix" result="effect1_dropShadow_7822_7"/>
<feBlend mode="normal" in="SourceGraphic" in2="effect1_dropShadow_7822_7" result="shape"/>
</filter>
<filter id="filter6_d_7822_7" x="108.618" y="0" width="47.6941" height="55.8247" filterUnits="userSpaceOnUse" color-interpolation-filters="sRGB">
<feFlood flood-opacity="0" result="BackgroundImageFix"/>
<feColorMatrix in="SourceAlpha" type="matrix" values="0 0 0 0 0 0 0 0 0 0 0 0 0 0 0 0 0 0 127 0" result="hardAlpha"/>
<feOffset/>
<feGaussianBlur stdDeviation="2"/>
<feComposite in2="hardAlpha" operator="out"/>
<feColorMatrix type="matrix" values="0 0 0 0 0 0 0 0 0 0 0 0 0 0 0 0 0 0 0.25 0"/>
<feBlend mode="normal" in2="BackgroundImageFix" result="effect1_dropShadow_7822_7"/>
<feBlend mode="normal" in="SourceGraphic" in2="effect1_dropShadow_7822_7" result="shape"/>
</filter>
<filter id="filter7_d_7822_7" x="0" y="1.16602" width="43.2732" height="47.9937" filterUnits="userSpaceOnUse" color-interpolation-filters="sRGB">
<feFlood flood-opacity="0" result="BackgroundImageFix"/>
<feColorMatrix in="SourceAlpha" type="matrix" values="0 0 0 0 0 0 0 0 0 0 0 0 0 0 0 0 0 0 127 0" result="hardAlpha"/>
<feOffset/>
<feGaussianBlur stdDeviation="2"/>
<feComposite in2="hardAlpha" operator="out"/>
<feColorMatrix type="matrix" values="0 0 0 0 0 0 0 0 0 0 0 0 0 0 0 0 0 0 0.25 0"/>
<feBlend mode="normal" in2="BackgroundImageFix" result="effect1_dropShadow_7822_7"/>
<feBlend mode="normal" in="SourceGraphic" in2="effect1_dropShadow_7822_7" result="shape"/>
</filter>
</defs>
</svg>
